<?xml version="1.0" standalone="no"?>
<!DOCTYPE svg PUBLIC "-//W3C//DTD SVG 1.1//EN" "http://www.w3.org/Graphics/SVG/1.1/DTD/svg11.dtd" >
<svg xmlns="http://www.w3.org/2000/svg" xmlns:xlink="http://www.w3.org/1999/xlink" version="1.1">
<metadata></metadata>
<defs>
<font id="arialbold" horiz-adv-x="1536" >
<font-face units-per-em="2048" ascent="1638" descent="-410" />
<missing-glyph horiz-adv-x="569" />
<glyph unicode="&#x651;&#x64b;" horiz-adv-x="433" d="M70 1504q0 26 8 55q5 18 19 54l21 8q0 -8 -2 -26t-2 -30q0 -22 9 -39.5t27 -17.5q43 0 69 56q12 25 30 100l21 7q9 -49 13 -60q12 -32 40 -32q38 0 60 50q18 41 18 86l21 6q4 -19 7.5 -43.5t3.5 -41.5q0 -76 -26 -124q-29 -54 -80 -54q-17 0 -33.5 6.5t-33.5 18.5 q-20 -34 -39 -53q-32 -32 -67 -32q-41 0 -62.5 28.5t-21.5 77.5zM70 1680q0 43 44 83q83 35 298 125q0 -48 -50 -91q-92 -37 -292 -117zM70 1832q0 43 44 83q83 35 298 123q0 -46 -51 -89q-91 -37 -291 -117z" />
<glyph unicode="&#x651;&#x64c;" horiz-adv-x="463" arabic-form="isolated" d="M48 1799q7 71 18 101q20 55 66 55q34 0 53 -33.5t19 -75.5q0 -17 -3.5 -34.5t-11.5 -50.5q69 20 133 66q-32 32 -41 44q-18 24 -18 51q0 47 39 94q44 53 96 53q27 0 46 -19t19 -45q0 -37 -11 -70t-33 -68q15 -12 23.5 -22.5t8.5 -23.5q0 -18 -1.5 -39.5t-5.5 -47.5 l-86 67q-46 -54 -104 -84q-71 -36 -158 -36l36 60q20 37 20 66q0 22 -10 41t-29 19q-21 0 -39 -24zM70 1504q0 26 7 51t20 58l21 8q0 -8 -2 -26t-2 -30q0 -22 9 -39.5t27 -17.5q43 0 69 56q12 25 30 101l21 6q8 -49 13 -60q12 -31 40 -31q38 0 60 50q18 41 18 85l21 6 q4 -19 7.5 -43.5t3.5 -42.5q0 -75 -26 -123q-29 -54 -80 -54q-18 0 -33 6t-34 19q-20 -34 -39 -53q-32 -32 -67 -32q-42 0 -63 28t-21 78zM326 1978q0 -18 18 -38q5 -6 35 -33q13 17 13 38q0 24 -11.5 43t-32.5 19q-10 0 -16 -8.5t-6 -20.5z" />
<glyph unicode="&#x651;&#x64d;" horiz-adv-x="433" arabic-form="isolated" d="M70 1786q0 25 8 54q5 18 19 54l21 8q0 -8 -2 -26t-2 -30q0 -23 8.5 -39.5t27.5 -16.5q43 0 69 56q13 27 30 100l21 6q9 -49 13 -60q12 -32 40 -32q38 0 60 50q18 41 18 86l21 7q4 -24 7.5 -46t3.5 -40q0 -76 -26 -124q-29 -53 -80 -53q-17 0 -33.5 6.5t-33.5 18.5 q-19 -34 -39 -53q-32 -31 -67 -31q-42 0 -63 28t-21 77zM76 1389q0 43 43 84q84 35 299 125q0 -47 -51 -92q-90 -36 -291 -117zM76 1514q0 44 43 85q84 34 299 122q0 -46 -52 -90q-89 -35 -290 -117z" />
<glyph unicode="&#x651;&#x64e;" horiz-adv-x="433" arabic-form="isolated" d="M70 1504q0 26 8 55q5 18 19 54l21 8q0 -8 -2 -26t-2 -30q0 -22 9 -39.5t27 -17.5q43 0 69 56q12 25 30 101l21 6q8 -49 13 -60q12 -31 40 -31q38 0 60 50q18 41 18 85l21 6q4 -19 7.5 -43.5t3.5 -42.5q0 -75 -26 -123q-29 -54 -80 -54q-17 0 -33.5 6.5t-33.5 18.5 q-20 -34 -39 -53q-32 -32 -67 -32q-42 0 -63 28t-21 78zM76 1673q0 42 45 83q82 34 297 124q0 -46 -52 -92q-89 -35 -290 -115z" />
<glyph unicode="&#x651;&#x64f;" horiz-adv-x="433" arabic-form="isolated" d="M64 1679q76 34 107 49q48 23 106 56q-23 22 -34 37q-17 23 -17 46q0 43 35.5 85.5t80.5 42.5q29 0 52.5 -20.5t23.5 -49.5q0 -21 -10 -44q-3 -7 -23 -42q32 -15 38 -26q10 -17 10 -71q-35 0 -74 9q-8 2 -43 12q-57 -49 -80 -63q-60 -38 -116 -38q-14 0 -27.5 4.5 t-28.5 12.5zM70 1504q0 26 8 55q5 18 19 54l21 8q0 -8 -2 -26t-2 -30q0 -22 9 -39.5t27 -17.5q43 0 69 56q12 25 30 100l21 7q9 -50 13 -61q12 -31 40 -31q38 0 60 50q18 41 18 86l21 6q4 -20 7.5 -44.5t3.5 -41.5q0 -75 -26 -123q-29 -54 -80 -54q-17 0 -33.5 6.5 t-33.5 18.5q-20 -34 -39 -53q-32 -32 -67 -32q-42 0 -63 28t-21 78zM287 1932q0 -21 10 -35.5t45 -33.5q3 7 6.5 16t3.5 15q0 21 -15 41t-37 20q-7 0 -10 -7t-3 -16z" />
<glyph unicode="&#x651;&#x650;" horiz-adv-x="433" arabic-form="isolated" d="M70 1691q0 25 8 54q5 18 19 53l21 9q0 -9 -2 -27t-2 -30q0 -22 9 -38.5t27 -16.5q43 0 69 55q12 26 30 100l21 6q8 -49 13 -60q12 -31 40 -31q38 0 60 50q18 41 18 85l21 6q4 -19 7.5 -43.5t3.5 -42.5q0 -75 -26 -122q-29 -53 -80 -53q-18 0 -33 6t-34 19 q-20 -34 -39 -53q-32 -32 -67 -32q-42 0 -63 28t-21 78zM76 1398q0 43 44 83q83 35 298 125q0 -47 -51 -92q-90 -36 -291 -116z" />
<glyph unicode="&#xfedf;&#xfee0;&#xfeea;" horiz-adv-x="1440" arabic-form="isolated" d="M46 324q0 37 60 158t114 190q34 45 67 65q57 30 111 59l2 52q0 40 13.5 87.5t48.5 122.5l126 -453q19 -68 46.5 -96.5t83.5 -28.5q51 0 103 25t86 63l-97 314q-9 31 -11.5 44.5t-2.5 27.5q0 53 18 113q14 46 44 103l142 -442q45 -137 78.5 -174.5t109.5 -37.5q47 0 56 30 l-122 391q-8 27 -13 50.5t-5 38.5q0 46 14.5 97.5t43.5 112.5l152 -466q22 -66 31 -110t9 -90q0 -51 -15.5 -141t-30.5 -147q-9 -33 -31 -40.5t-103 -7.5q-80 0 -116 18t-68 68q-65 -71 -138 -104q-66 -30 -140 -30q-77 0 -122 45t-80 159q-56 -63 -93 -96q-52 -46 -83 -46 q-107 0 -197.5 25.5t-90.5 50.5zM288 540q0 -6 44 -17t70 -11q12 0 32.5 10.5t37.5 25.5l-34 108q-68 -28 -109 -60t-41 -56zM558 1884q71 -22 117 -76q62 -73 105 -230l-20 -36q-37 87 -68 127t-98 83zM610 1308q0 18 4 36q8 31 14 56l14 6q-1 -11 -1 -17q0 -31 9 -51 q14 -30 46 -30q34 0 56 40.5t22 115.5l18 6q12 -54 24 -71t36 -17q45 0 59 71q4 23 5 71l18 8q8 -31 11 -57t3 -51q0 -69 -26 -110.5t-70 -41.5q-13 0 -26.5 4t-35.5 16q-30 -51 -53.5 -71.5t-52.5 -20.5q-28 0 -51 32.5t-23 75.5z" />
<glyph unicode="&#xfedf;&#xfe82;" horiz-adv-x="1108" arabic-form="isolated" d="M0 1624q46 77 106 77q36 0 99 -26q41 -17 77 -25t68 -8q30 0 52 5t68 24l18 -15q-44 -49 -85 -69t-101 -20q-34 0 -66.5 7t-78.5 26q-29 13 -48.5 18.5t-36.5 5.5q-14 0 -58 -14zM146 1332q0 54 6.5 75t27.5 21q39 0 158 -112q102 -96 182 -192q63 -69 114 -138 q46 -61 144 -210q45 85 62 217q10 80 10 191q-36 17 -49 33.5t-13 44.5q0 60 13 122t43 130l42 -14q0 -64 30 -85q24 -17 160 -59q0 -70 -14 -141q-6 -30 -28 -109l-72 28q0 -118 -28 -235t-90 -231q55 -99 64 -116q24 -46 24 -83v-31q0 -25 -16 -204q-114 -54 -203.5 -70 t-266.5 -16v296q101 52 144.5 87.5t113.5 122.5q-114 144 -166 203q-42 48 -108 111q-16 -33 -23.5 -43.5t-14.5 -10.5q-24 0 -90 41q-59 37 -91 66t-48.5 108.5t-16.5 202.5zM616 428q76 8 108.5 17.5t89.5 40.5l-48 74q-44 -49 -67.5 -69.5t-82.5 -62.5z" />
<glyph unicode="&#xfee0;&#xfe82;" horiz-adv-x="1220" arabic-form="final" d="M0 1624q46 77 106 77q36 0 99 -26q41 -17 77 -25t68 -8q30 0 52 5t68 24l18 -15q-44 -49 -85 -69t-101 -20q-34 0 -66.5 7t-78.5 26q-29 13 -48.5 18.5t-36.5 5.5q-14 0 -58 -14zM138 194v64q72 25 142.5 49.5t105.5 42.5q204 103 276 150q128 83 185 174q67 107 67 262 q0 93 -14.5 181t-29.5 175q0 68 116 276q52 -171 66 -447q8 -195 17 -390q16 -166 78 -166h73v-272h-73q-63 0 -119 103q-60 110 -60 252q-88 -263 -246 -361q-153 -95 -468 -95zM162 1352q0 72 38 72q59 0 176 -69.5t220 -166.5q232 -214 232 -394q0 -30 -9 -55.5 t-33 -66.5q-59 133 -130 218t-168 136q0 -43 -10 -62.5t-28 -19.5q-30 0 -110 57q-86 61 -124 117q-27 39 -40.5 113t-13.5 121z" />
<glyph unicode="&#xfedf;&#xfe84;" horiz-adv-x="996" arabic-form="isolated" d="M34 1332q0 54 6.5 75t27.5 21q39 0 158 -112q102 -96 182 -192q63 -69 114 -138q46 -61 144 -210q45 85 62 217q10 80 10 191q-36 17 -49 33.5t-13 44.5q0 60 13 122t43 130l42 -14q0 -64 30 -85q24 -17 160 -59q0 -70 -14 -141q-6 -30 -28 -109l-72 28q0 -118 -28 -235 t-90 -231q55 -99 64 -116q24 -46 24 -83v-31q0 -25 -16 -204q-114 -54 -203.5 -70t-266.5 -16v296q101 52 144.5 87.5t113.5 122.5q-114 144 -166 203q-42 48 -108 111q-16 -33 -23.5 -43.5t-14.5 -10.5q-24 0 -90 41q-59 37 -91 66t-48.5 108.5t-16.5 202.5zM61 1504 q20 36 35 49.5t52 27.5q-28 18 -40.5 33.5t-12.5 30.5q0 13 8 29.5t21 32.5q65 87 129 87q19 0 30.5 -12.5t11.5 -32.5q0 -16 -4.5 -27.5t-18.5 -34.5q-50 25 -68 25t-36 -9q-12 -6 -22 -16q0 -13 48 -40t69 -27q13 0 72 15q-9 -32 -24 -47q-11 -11 -34 -18zM504 428 q76 8 108.5 17.5t89.5 40.5l-48 74q-44 -49 -67.5 -69.5t-82.5 -62.5z" />
<glyph unicode="&#xfee0;&#xfe84;" horiz-adv-x="1108" arabic-form="final" d="M26 194v64q72 25 142.5 49.5t105.5 42.5q204 103 276 150q128 83 185 174q67 107 67 262q0 93 -14.5 181t-29.5 175q0 68 116 276q52 -171 66 -447q8 -195 17 -390q16 -166 78 -166h73v-272h-73q-63 0 -119 103q-60 110 -60 252q-88 -263 -246 -361q-153 -95 -468 -95z M50 1352q0 72 38 72q59 0 176 -69.5t220 -166.5q232 -214 232 -394q0 -30 -9 -55.5t-33 -66.5q-59 133 -130 218t-168 136q0 -43 -10 -62.5t-28 -19.5q-30 0 -110 57q-86 61 -124 117q-27 39 -40.5 113t-13.5 121zM61 1504q20 36 35 49.5t52 27.5q-28 18 -40.5 33.5 t-12.5 30.5q0 13 8 29.5t21 32.5q65 87 129 87q19 0 30.5 -12.5t11.5 -32.5q0 -16 -4.5 -27.5t-18.5 -34.5q-50 25 -68 25t-36 -9q-12 -6 -22 -16q0 -13 48 -40t69 -27q13 0 72 15q-9 -32 -24 -47q-11 -11 -34 -18z" />
<glyph unicode="&#xfedf;&#xfe88;" horiz-adv-x="996" arabic-form="isolated" d="M34 1332q0 54 6.5 75t27.5 21q39 0 158 -112q102 -96 182 -192q63 -69 114 -138q46 -61 144 -210q45 85 62 217q10 80 10 191q-36 17 -49 33.5t-13 44.5q0 60 13 122t43 130l42 -14q0 -64 30 -85q24 -17 160 -59q0 -70 -14 -141q-6 -30 -28 -109l-72 28q0 -118 -28 -235 t-90 -231q55 -99 64 -116q24 -46 24 -83v-31q0 -25 -16 -204q-114 -54 -203.5 -70t-266.5 -16v296q101 52 144.5 87.5t113.5 122.5q-114 144 -166 203q-42 48 -108 111q-16 -33 -23.5 -43.5t-14.5 -10.5q-24 0 -90 41q-59 37 -91 66t-48.5 108.5t-16.5 202.5zM394 -246 q20 36 35 49.5t52 27.5q-28 18 -40.5 33.5t-12.5 30.5q0 13 8 29.5t21 32.5q65 87 129 87q19 0 30.5 -12.5t11.5 -32.5q0 -16 -4.5 -27.5t-18.5 -34.5q-50 25 -68 25t-36 -9q-12 -6 -22 -16q0 -13 48 -40t69 -27q13 0 72 15q-9 -32 -24 -47q-11 -11 -34 -18zM504 428 q76 8 108.5 17.5t89.5 40.5l-48 74q-44 -49 -67.5 -69.5t-82.5 -62.5z" />
<glyph unicode="&#xfee0;&#xfe88;" horiz-adv-x="1108" arabic-form="final" d="M26 194v64q72 25 142.5 49.5t105.5 42.5q204 103 276 150q128 83 185 174q67 107 67 262q0 93 -14.5 181t-29.5 175q0 68 116 276q52 -171 66 -447q8 -195 17 -390q16 -166 78 -166h73v-272h-73q-63 0 -119 103q-60 110 -60 252q-88 -263 -246 -361q-153 -95 -468 -95z M50 1352q0 72 38 72q59 0 176 -69.5t220 -166.5q232 -214 232 -394q0 -30 -9 -55.5t-33 -66.5q-59 133 -130 218t-168 136q0 -43 -10 -62.5t-28 -19.5q-30 0 -110 57q-86 61 -124 117q-27 39 -40.5 113t-13.5 121zM145 -246q20 36 35 49.5t52 27.5q-28 18 -40.5 33.5 t-12.5 30.5q0 13 8 29.5t21 32.5q65 87 129 87q19 0 30.5 -12.5t11.5 -32.5q0 -16 -4.5 -27.5t-18.5 -34.5q-50 25 -68 25t-36 -9q-12 -6 -22 -16q0 -13 48 -40t69 -27q13 0 72 15q-9 -32 -24 -47q-11 -11 -34 -18z" />
<glyph unicode="&#xfedf;&#xfe8e;" horiz-adv-x="996" arabic-form="isolated" d="M34 1332q0 54 6.5 75t27.5 21q39 0 158 -112q102 -96 182 -192q63 -69 114 -138q46 -61 144 -210q45 85 62 217q10 80 10 191q-36 17 -49 33.5t-13 44.5q0 60 13 122t43 130l42 -14q0 -64 30 -85q24 -17 160 -59q0 -70 -14 -141q-6 -30 -28 -109l-72 28q0 -118 -28 -235 t-90 -231q55 -99 64 -116q24 -46 24 -83v-31q0 -25 -16 -204q-114 -54 -203.5 -70t-266.5 -16v296q101 52 144.5 87.5t113.5 122.5q-114 144 -166 203q-42 48 -108 111q-16 -33 -23.5 -43.5t-14.5 -10.5q-24 0 -90 41q-59 37 -91 66t-48.5 108.5t-16.5 202.5zM504 428 q76 8 108.5 17.5t89.5 40.5l-48 74q-44 -49 -67.5 -69.5t-82.5 -62.5z" />
<glyph unicode="&#xfee0;&#xfe8e;" horiz-adv-x="1108" arabic-form="final" d="M26 194v64q72 25 142.5 49.5t105.5 42.5q204 103 276 150q128 83 185 174q67 107 67 262q0 93 -14.5 181t-29.5 175q0 68 116 276q52 -171 66 -447q8 -195 17 -390q16 -166 78 -166h73v-272h-73q-63 0 -119 103q-60 110 -60 252q-88 -263 -246 -361q-153 -95 -468 -95z M50 1352q0 72 38 72q59 0 176 -69.5t220 -166.5q232 -214 232 -394q0 -30 -9 -55.5t-33 -66.5q-59 133 -130 218t-168 136q0 -43 -10 -62.5t-28 -19.5q-30 0 -110 57q-86 61 -124 117q-27 39 -40.5 113t-13.5 121z" />
<glyph unicode="&#xfedf;&#xfb51;" horiz-adv-x="996" d="M15 1599q0 66 76 66h24q118 159 234 159q82 0 82 -100q0 -53 -48 -97q-52 -48 -124 -48h-167q-31 0 -31 -45q0 -5 2 -18q1 -12 0 -18q-48 49 -48 101zM34 1332q0 54 6.5 75t27.5 21q39 0 158 -112q102 -96 182 -192q63 -69 114 -138q46 -61 144 -210q45 85 62 217 q10 80 10 191q-36 17 -49 33.5t-13 44.5q0 60 13 122t43 130l42 -14q0 -64 30 -85q24 -17 160 -59q0 -70 -14 -141q-6 -30 -28 -109l-72 28q0 -118 -28 -235t-90 -231q55 -99 64 -116q24 -46 24 -83v-31q0 -25 -16 -204q-114 -54 -203.5 -70t-266.5 -16v296 q101 52 144.5 87.5t113.5 122.5q-114 144 -166 203q-42 48 -108 111q-16 -33 -23.5 -43.5t-14.5 -10.5q-24 0 -90 41q-59 37 -91 66t-48.5 108.5t-16.5 202.5zM169 1665h82q90 0 90 60q0 38 -32 38q-55 0 -140 -98zM504 428q76 8 108.5 17.5t89.5 40.5l-48 74 q-44 -49 -67.5 -69.5t-82.5 -62.5z" />
<glyph unicode="&#xfee0;&#xfb51;" horiz-adv-x="1108" d="M15 1599q0 66 76 66h24q118 159 234 159q82 0 82 -100q0 -53 -48 -97q-52 -48 -124 -48h-167q-31 0 -31 -45q0 -5 2 -18q1 -12 0 -18q-48 49 -48 101zM26 194v64q72 25 142.5 49.5t105.5 42.5q204 103 276 150q128 83 185 174q67 107 67 262q0 93 -14.5 181t-29.5 175 q0 68 116 276q52 -171 66 -447q8 -195 17 -390q16 -166 78 -166h73v-272h-73q-63 0 -119 103q-60 110 -60 252q-88 -263 -246 -361q-153 -95 -468 -95zM50 1352q0 72 38 72q59 0 176 -69.5t220 -166.5q232 -214 232 -394q0 -30 -9 -55.5t-33 -66.5q-59 133 -130 218 t-168 136q0 -43 -10 -62.5t-28 -19.5q-30 0 -110 57q-86 61 -124 117q-27 39 -40.5 113t-13.5 121zM169 1665h82q90 0 90 60q0 38 -32 38q-55 0 -140 -98z" />
<glyph unicode="&#x66e;" horiz-adv-x="556" d="M-70 293v272h526q-11 68 -40 115q-15 26 -70 90l80 238q75 -85 102.5 -178t27.5 -276v-261h-626z" />
<glyph unicode="&#x66f;" horiz-adv-x="624" d="M-70 293v272h600q0 87 -5 124q-8 57 -33 99q-32 -62 -86 -95t-115 -33q-80 0 -135 53t-55 133q0 118 72 280q79 178 160 178q105 0 198 -183t93 -387v-441h-694zM237 960q0 -23 18.5 -38.5t47.5 -15.5q23 0 46.5 13.5t57.5 46.5q-27 47 -47.5 65.5t-44.5 18.5 q-30 0 -54 -27t-24 -63z" />
<glyph unicode="&#x66f;" horiz-adv-x="664" d="M-70 293v272h180q46 0 87 -4q110 -12 251 -27q-149 33 -208.5 87.5t-59.5 158.5q0 155 71.5 279.5t160.5 124.5q101 0 176.5 -174.5t75.5 -421.5v-295h-734zM310 846q0 -43 64.5 -83.5t153.5 -54.5q-36 86 -80 134t-88 48q-20 0 -35 -13t-15 -31z" />
<glyph unicode="&#x672;" horiz-adv-x="480" d="M-51 1541q40 70 70 70q20 0 44 -11t43 -11q22 0 40 13q-68 35 -68 71q0 31 53 87q59 62 104 62q49 0 49 -49q0 -23 -23 -61q-31 28 -67 28q-65 0 -65 -30q0 -19 53 -44q49 -23 73 -23q33 0 71 15q0 -40 -94 -73q-76 -26 -129 -43q-7 -2 -16 -2q-16 0 -44.5 11.5 t-39.5 11.5q-17 0 -43 -35zM26 1257l108 250q58 -80 81 -158q27 -91 27 -232v-197q0 -209 28 -290q22 -65 70 -65h140v-272h-140q-117 0 -169 96q-58 106 -58 357v285q0 97 -27 151q-13 26 -60 75z" />
<glyph unicode="&#x673;" horiz-adv-x="480" d="M9 -159q40 70 70 70q20 0 44 -11t43 -11q22 0 40 13q-68 35 -68 71q0 31 53 87q59 62 104 62q49 0 49 -49q0 -23 -23 -61q-31 28 -67 28q-65 0 -65 -30q0 -19 53 -44q49 -23 73 -23q33 0 71 15q0 -40 -94 -73q-76 -26 -129 -43q-7 -2 -16 -2q-16 0 -44.5 11.5t-39.5 11.5 q-17 0 -43 -35zM26 1257l108 250q58 -80 81 -158q27 -91 27 -232v-197q0 -209 28 -290q22 -65 70 -65h140v-272h-140q-117 0 -169 96q-58 106 -58 357v285q0 97 -27 151q-13 26 -60 75z" />
<glyph unicode="&#x675;" horiz-adv-x="480" d="M26 1257l108 250q58 -80 81 -158q27 -91 27 -232v-197q0 -209 28 -290q22 -65 70 -65h140v-272h-140q-117 0 -169 96q-58 106 -58 357v285q0 97 -27 151q-13 26 -60 75zM274 1235q20 36 35 49.5t54 24.5q-28 18 -40.5 33.5t-12.5 30.5q0 13 8 29.5t21 32.5q65 87 129 87 q19 0 30.5 -12.5t11.5 -32.5q0 -16 -4.5 -27.5t-18.5 -34.5q-50 25 -68 25t-36 -9q-12 -6 -22 -16q0 -13 48 -40t69 -27q13 0 72 15q-11 -29 -26 -44q-11 -11 -34 -18z" />
<glyph unicode="&#x676;" horiz-adv-x="924" d="M6 116l42 58q108 -72 177 -96q57 -20 129 -20q97 0 192 54q112 64 232 206q-42 -6 -70 -6q-99 0 -157.5 64.5t-58.5 175.5q0 150 69 289q75 151 171 151q80 0 136 -109t56 -263v-258q0 -172 -146 -340t-288 -168q-83 0 -181.5 53t-302.5 209zM622 648q0 -36 39.5 -59.5 t104.5 -23.5h38q-28 161 -114 161q-31 0 -49.5 -24.5t-18.5 -53.5zM744 1135q20 36 35 49.5t54 24.5q-28 18 -40.5 33.5t-12.5 30.5q0 13 8 29.5t21 32.5q65 87 129 87q19 0 30.5 -12.5t11.5 -32.5q0 -16 -4.5 -27.5t-18.5 -34.5q-50 25 -68 25t-36 -9q-12 -6 -22 -16 q0 -13 48 -40t69 -27q13 0 72 15q-11 -29 -26 -44q-11 -11 -34 -18z" />
<glyph unicode="&#x677;" horiz-adv-x="924" d="M6 116l42 58q108 -72 177 -96q57 -20 129 -20q97 0 192 54q112 64 232 206q-42 -6 -70 -6q-99 0 -157.5 64.5t-58.5 175.5q0 150 69 289q75 151 171 151q80 0 136 -109t56 -263v-258q0 -172 -146 -340t-288 -168q-83 0 -181.5 53t-302.5 209zM322 1058q53 25 124 81 q64 51 97 90q-31 19 -47 40q-20 26 -20 57q0 66 38.5 116.5t83.5 50.5q26 0 47 -28t21 -68q0 -19 -5.5 -39.5t-25.5 -75.5q16 -14 33 -27q11 -11 11 -31q0 -17 -3 -35l-6 -36l-83 50q-50 -55 -68 -73q-74 -72 -124 -72h-73zM527 1389q0 -22 25 -46l44 -34q8 20 8 28 q0 27 -19 50t-37 23q-10 0 -15.5 -7t-5.5 -14zM622 648q0 -36 39.5 -59.5t104.5 -23.5h38q-28 161 -114 161q-31 0 -49.5 -24.5t-18.5 -53.5zM744 1135q20 36 35 49.5t54 24.5q-28 18 -40.5 33.5t-12.5 30.5q0 13 8 29.5t21 32.5q65 87 129 87q19 0 30.5 -12.5t11.5 -32.5 q0 -16 -4.5 -27.5t-18.5 -34.5q-50 25 -68 25t-36 -9q-12 -6 -22 -16q0 -13 48 -40t69 -27q13 0 72 15q-11 -29 -26 -44q-11 -11 -34 -18z" />
<glyph unicode="&#x678;" horiz-adv-x="1135" d="M10 -62q0 158 38 274q46 140 188 366l56 -42q-94 -160 -129 -255t-35 -187t59 -145t163 -53q127 0 273 39q132 35 226.5 84.5t94.5 81.5q0 10 -56 12t-100 2q-106 0 -137 8t-31 37q0 54 19.5 114t46.5 92q66 80 156 136q101 63 181 63h112v-272h-85q-37 0 -59.5 -6 t-22.5 -17q0 -6 49 -25t49 -59q0 -55 -16.5 -132.5t-45.5 -139.5q-22 -48 -123 -110q-108 -66 -245 -110q-157 -50 -298 -50q-162 0 -245 75t-83 219zM854 735q20 36 35 49.5t54 24.5q-28 18 -40.5 33.5t-12.5 30.5q0 13 8 29.5t21 32.5q65 87 129 87q19 0 30.5 -12.5 t11.5 -32.5q0 -16 -4.5 -27.5t-18.5 -34.5q-50 25 -68 25t-36 -9q-12 -6 -22 -16q0 -13 48 -40t69 -27q13 0 72 15q-11 -29 -26 -44q-11 -11 -34 -18z" />
<glyph unicode="&#x67c;" horiz-adv-x="556" d="M-70 293v272h526q-11 68 -40 115q-15 26 -70 90l80 238q75 -85 102.5 -178t27.5 -276v-261h-626zM22 1182l104 194l148 -74l84 162l182 -102l-110 -204l-142 80l-80 -158zM110 178q0 77 40 136.5t99 59.5q54 0 91 -45t37 -105q0 -62 -46 -111t-113 -49q-54 0 -81 30 t-27 84zM150 224q0 -35 33 -49q26 -11 75 -11q25 0 42 7t17 26q0 28 -39 62t-66 34q-26 0 -44 -22.5t-18 -46.5z" />
<glyph unicode="&#x67c;" horiz-adv-x="556" d="M-70 293v272h526q-11 68 -40 115q-15 26 -70 90l80 238q75 -85 102.5 -178t27.5 -276v-261h-626zM22 1182l104 194l148 -74l84 162l182 -102l-110 -204l-142 80l-80 -158zM110 178q0 77 40 136.5t99 59.5q54 0 91 -45t37 -105q0 -62 -46 -111t-113 -49q-54 0 -81 30 t-27 84zM150 224q0 -35 33 -49q26 -11 75 -11q25 0 42 7t17 26q0 28 -39 62t-66 34q-26 0 -44 -22.5t-18 -46.5z" />
<glyph unicode="&#x67c;" horiz-adv-x="1330" d="M57 624q0 41 4 73.5t16 76.5q17 65 38 109t74 119l56 -40q-43 -79 -58.5 -125t-15.5 -91q0 -57 36.5 -102.5t95.5 -59.5q35 -9 91.5 -14t118.5 -5h723q-28 76 -46 108q-21 38 -68 97l90 232q75 -107 98 -196q20 -78 20 -230v-283h-839q-121 0 -160.5 4t-85.5 21 q-82 28 -135 114t-53 192zM459 1062l104 194l148 -74l84 162l182 -102l-110 -204l-142 80l-80 -158zM600 178q0 77 40 136.5t99 59.5q54 0 91 -45t37 -105q0 -62 -46 -111t-113 -49q-54 0 -81 30t-27 84zM640 224q0 -35 33 -49q26 -11 75 -11q25 0 42 7t17 26q0 28 -39 62 t-66 34q-26 0 -44 -22.5t-18 -46.5z" />
<glyph unicode="&#x67d;" horiz-adv-x="556" d="M-70 293v272h526q-11 68 -40 115q-15 26 -70 90l80 238q75 -85 102.5 -178t27.5 -276v-261h-626zM0 1413l110 204l142 -80l80 158l186 -102l-104 -194l-148 74l-84 -162zM194 1176l100 208l188 -100l-102 -204z" />
<glyph unicode="&#x67d;" horiz-adv-x="556" d="M-70 293v272h526q-11 68 -40 115q-15 26 -70 90l80 238q75 -85 102.5 -178t27.5 -276v-261h-626zM0 1413l110 204l142 -80l80 158l186 -102l-104 -194l-148 74l-84 -162zM194 1176l100 208l188 -100l-102 -204z" />
<glyph unicode="&#x67d;" horiz-adv-x="1330" d="M57 624q0 41 4 73.5t16 76.5q17 65 38 109t74 119l56 -40q-43 -79 -58.5 -125t-15.5 -91q0 -57 36.5 -102.5t95.5 -59.5q35 -9 91.5 -14t118.5 -5h723q-28 76 -46 108q-21 38 -68 97l90 232q75 -107 98 -196q20 -78 20 -230v-283h-839q-121 0 -160.5 4t-85.5 21 q-82 28 -135 114t-53 192zM417 1287l110 204l142 -80l80 158l186 -102l-104 -194l-148 74l-84 -162zM611 1050l100 208l188 -100l-102 -204z" />
<glyph unicode="&#x681;" horiz-adv-x="1072" d="M-70 293v272h711q-121 125 -224 180q-91 49 -178 49q-26 0 -47.5 -2.5t-62.5 -11.5q55 126 122.5 186t153.5 60q66 0 127 -32t137 -103q60 -56 170 -175q75 -84 114.5 -109t118.5 -42v-272h-1142zM354 1155q20 36 35 49.5t54 24.5q-28 18 -40.5 33.5t-12.5 30.5 q0 13 8 29.5t21 32.5q65 87 129 87q19 0 30.5 -12.5t11.5 -32.5q0 -16 -4.5 -27.5t-18.5 -34.5q-50 25 -68 25t-36 -9q-12 -6 -22 -16q0 -13 48 -40t69 -27q13 0 72 15q-11 -29 -26 -44q-11 -11 -34 -18z" />
<glyph unicode="&#x681;" horiz-adv-x="1072" d="M-70 293v272h711q-121 125 -224 180q-91 49 -178 49q-26 0 -47.5 -2.5t-62.5 -11.5q55 126 122.5 186t153.5 60q66 0 127 -32t137 -103q60 -56 170 -175q75 -84 114.5 -109t118.5 -42v-272h-1142zM354 1155q20 36 35 49.5t54 24.5q-28 18 -40.5 33.5t-12.5 30.5 q0 13 8 29.5t21 32.5q65 87 129 87q19 0 30.5 -12.5t11.5 -32.5q0 -16 -4.5 -27.5t-18.5 -34.5q-50 25 -68 25t-36 -9q-12 -6 -22 -16q0 -13 48 -40t69 -27q13 0 72 15q-11 -29 -26 -44q-11 -11 -34 -18z" />
<glyph unicode="&#x681;" horiz-adv-x="1144" d="M48 708q45 372 364 372q37 0 141 -11.5t185 -17.5q152 -11 298 -11l-60 -242q-59 0 -101 -7q-56 -12 -101 -21q-3 -19 -5.5 -43t-2.5 -37q0 -71 47 -98t174 -27h157v-272h-156q-176 0 -240 51t-64 192q0 63 8 121q3 20 16 95q-228 -53 -368 -183q-144 -134 -144 -305 q0 -200 171.5 -308t494.5 -108q95 0 272 18l18 -32l-380 -244l-96 -2q-293 0 -451.5 148.5t-158.5 423.5q0 209 95.5 387.5t244.5 258.5h-22q-93 0 -153.5 -17.5t-182.5 -80.5zM494 1215q20 36 35 49.5t54 24.5q-28 18 -40.5 33.5t-12.5 30.5q0 13 8 29.5t21 32.5 q65 87 129 87q19 0 30.5 -12.5t11.5 -32.5q0 -16 -4.5 -27.5t-18.5 -34.5q-50 25 -68 25t-36 -9q-12 -6 -22 -16q0 -13 48 -40t69 -27q13 0 72 15q-11 -29 -26 -44q-11 -11 -34 -18z" />
<glyph unicode="&#x682;" horiz-adv-x="1072" d="M-70 293v272h711q-121 125 -224 180q-91 49 -178 49q-26 0 -47.5 -2.5t-62.5 -11.5q55 126 122.5 186t153.5 60q66 0 127 -32t137 -103q60 -56 170 -175q75 -84 114.5 -109t118.5 -42v-272h-1142zM277 1499l102 204l186 -96l-100 -208zM410 1234l102 204l186 -96 l-100 -208z" />
<glyph unicode="&#x682;" horiz-adv-x="1072" d="M-70 293v272h711q-121 125 -224 180q-91 49 -178 49q-26 0 -47.5 -2.5t-62.5 -11.5q55 126 122.5 186t153.5 60q66 0 127 -32t137 -103q60 -56 170 -175q75 -84 114.5 -109t118.5 -42v-272h-1142zM277 1499l102 204l186 -96l-100 -208zM410 1234l102 204l186 -96 l-100 -208z" />
<glyph unicode="&#x682;" horiz-adv-x="1144" d="M48 708q45 372 364 372q37 0 141 -11.5t185 -17.5q152 -11 298 -11l-60 -242q-59 0 -101 -7q-56 -12 -101 -21q-3 -19 -5.5 -43t-2.5 -37q0 -71 47 -98t174 -27h157v-272h-156q-176 0 -240 51t-64 192q0 63 8 121q3 20 16 95q-228 -53 -368 -183q-144 -134 -144 -305 q0 -200 171.5 -308t494.5 -108q95 0 272 18l18 -32l-380 -244l-96 -2q-293 0 -451.5 148.5t-158.5 423.5q0 209 95.5 387.5t244.5 258.5h-22q-93 0 -153.5 -17.5t-182.5 -80.5zM327 1544l102 204l186 -96l-100 -208zM460 1279l102 204l186 -96l-100 -208z" />
<glyph unicode="&#x685;" horiz-adv-x="1072" d="M-70 293v272h711q-121 125 -224 180q-91 49 -178 49q-26 0 -47.5 -2.5t-62.5 -11.5q55 126 122.5 186t153.5 60q66 0 127 -32t137 -103q60 -56 170 -175q75 -84 114.5 -109t118.5 -42v-272h-1142zM242 1236l104 194l148 -74l84 162l182 -102l-110 -204l-142 80l-80 -158z M278 1545l102 204l186 -96l-100 -208z" />
<glyph unicode="&#x685;" horiz-adv-x="1072" d="M-70 293v272h711q-121 125 -224 180q-91 49 -178 49q-26 0 -47.5 -2.5t-62.5 -11.5q55 126 122.5 186t153.5 60q66 0 127 -32t137 -103q60 -56 170 -175q75 -84 114.5 -109t118.5 -42v-272h-1142zM242 1236l104 194l148 -74l84 162l182 -102l-110 -204l-142 80l-80 -158z M278 1545l102 204l186 -96l-100 -208z" />
<glyph unicode="&#x685;" horiz-adv-x="1144" d="M48 708q45 372 364 372q37 0 141 -11.5t185 -17.5q152 -11 298 -11l-60 -242q-59 0 -101 -7q-56 -12 -101 -21q-3 -19 -5.5 -43t-2.5 -37q0 -71 47 -98t174 -27h157v-272h-156q-176 0 -240 51t-64 192q0 63 8 121q3 20 16 95q-228 -53 -368 -183q-144 -134 -144 -305 q0 -200 171.5 -308t494.5 -108q95 0 272 18l18 -32l-380 -244l-96 -2q-293 0 -451.5 148.5t-158.5 423.5q0 209 95.5 387.5t244.5 258.5h-22q-93 0 -153.5 -17.5t-182.5 -80.5zM362 1281l104 194l148 -74l84 162l182 -102l-110 -204l-142 80l-80 -158zM398 1590l102 204 l186 -96l-100 -208z" />
<glyph unicode="&#x689;" horiz-adv-x="702" d="M105 432q0 44 4.5 95t13.5 103l38 2q8 -35 35.5 -51t66.5 -16h344q-23 147 -80 235q-47 73 -131 126l72 312q130 -97 184 -250q50 -141 50 -374v-321h-453q-66 0 -101 28q-43 34 -43 111zM290 178q0 77 40 136.5t99 59.5q54 0 91 -45t37 -105q0 -62 -46 -111t-113 -49 q-54 0 -81 30t-27 84zM330 224q0 -35 33 -49q26 -11 75 -11q25 0 42 7t17 26q0 28 -39 62t-66 34q-26 0 -44 -22.5t-18 -46.5z" />
<glyph unicode="&#x68a;" horiz-adv-x="702" d="M105 432q0 44 4.5 95t13.5 103l38 2q8 -35 35.5 -51t66.5 -16h344q-23 147 -80 235q-47 73 -131 126l72 312q130 -97 184 -250q50 -141 50 -374v-321h-453q-66 0 -101 28q-43 34 -43 111zM241 -7l121 226l233 -124l-120 -224z" />
<glyph unicode="&#x68b;" horiz-adv-x="702" d="M79 1172v130h64q12 0 64 39q22 16 51 40q0 101 -18 183l-26 104l-28 17q15 70 46 140l22 -9q-2 -6 -2 -12q0 -17 47 -40q11 -5 47 -19q-5 -39 -15 -70q-5 -14 -19 -50l-17 6q25 -115 25 -157v-6q0 -21 -5 -46q39 29 119 80q40 22 61 22q128 0 128 -124v-228h-544z M105 432q0 44 4.5 95t13.5 103l38 2q8 -35 35.5 -51t66.5 -16h344q-23 97 -80 165q-47 63 -131 96l72 312q130 -77 184 -220q50 -121 50 -304v-321h-453q-66 0 -101 28q-43 34 -43 111zM241 -7l121 226l233 -124l-120 -224zM275 1302h125q157 0 157 48q0 28 -36 39 q-21 7 -61 7q-60 0 -185 -94z" />
<glyph unicode="&#x68f;" horiz-adv-x="702" d="M47 1537l110 204l142 -80l80 158l186 -102l-104 -194l-148 74l-84 -162zM105 432q0 44 4.5 95t13.5 103l38 2q8 -35 35.5 -51t66.5 -16h344q-23 97 -80 165q-47 63 -131 96l72 312q130 -77 184 -220q50 -121 50 -304v-321h-453q-66 0 -101 28q-43 34 -43 111zM241 1300 l100 208l188 -100l-102 -204z" />
<glyph unicode="&#x690;" horiz-adv-x="702" d="M34 1537l110 204l142 -80l80 158l186 -102l-104 -194l-148 74l-84 -162zM105 432q0 44 4.5 95t13.5 103l38 2q8 -35 35.5 -51t66.5 -16h344q-23 97 -80 165q-47 63 -131 96l72 312q130 -77 184 -220q50 -121 50 -304v-321h-453q-66 0 -101 28q-43 34 -43 111zM167 1272 l110 204l142 -80l80 158l186 -102l-104 -194l-148 74l-84 -162z" />
<glyph unicode="&#x692;" horiz-adv-x="886" d="M10 74l42 62q90 -60 145 -81t119 -21q69 0 138 39t188 145q166 148 166 228q0 40 -32 105q-36 74 -88 123l56 270q68 -70 105 -161t37 -207v-306q0 -61 -70 -161.5t-164 -174.5q-104 -82 -178 -82q-88 0 -189 50q-88 43 -275 172zM504 1292h117l67 -120l67 120h117 l-136 -230h-96z" />
<glyph unicode="&#x693;" horiz-adv-x="886" d="M10 74l42 62q90 -60 145 -81t119 -21q69 0 138 39t188 145q166 148 166 228q0 40 -32 105q-36 74 -88 123l56 270q68 -70 105 -161t37 -207v-306q0 -61 -70 -161.5t-164 -174.5q-104 -82 -178 -82q-88 0 -189 50q-88 43 -275 172zM670 -88q0 77 40 136.5t99 59.5 q54 0 91 -45t37 -105q0 -62 -46 -111t-113 -49q-54 0 -81 30t-27 84zM710 -42q0 -35 33 -49q26 -11 75 -11q25 0 42 7t17 26q0 28 -39 62t-66 34q-26 0 -44 -22.5t-18 -46.5z" />
<glyph unicode="&#x694;" horiz-adv-x="886" d="M10 74l42 62q90 -60 145 -81t119 -21q69 0 138 39t188 145q166 148 166 228q0 40 -32 105q-36 74 -88 123l56 270q68 -70 105 -161t37 -207v-306q0 -61 -70 -161.5t-164 -174.5q-104 -82 -178 -82q-88 0 -189 50q-88 43 -275 172zM681 -247l121 226l233 -124l-120 -224z " />
<glyph unicode="&#x695;" horiz-adv-x="886" d="M10 74l42 62q90 -60 145 -81t119 -21q69 0 138 39t188 145q166 148 166 228q0 40 -32 105q-36 74 -88 123l56 270q68 -70 105 -161t37 -207v-306q0 -61 -70 -161.5t-164 -174.5q-104 -82 -178 -82q-88 0 -189 50q-88 43 -275 172zM644 -171h117l67 -120l67 120h117 l-136 -230h-96z" />
<glyph unicode="&#x696;" horiz-adv-x="886" d="M10 74l42 62q90 -60 145 -81t119 -21q69 0 138 39t188 145q166 148 166 228q0 40 -32 105q-36 74 -88 123l56 270q68 -70 105 -161t37 -207v-306q0 -61 -70 -161.5t-164 -174.5q-104 -82 -178 -82q-88 0 -189 50q-88 43 -275 172zM301 373l121 226l233 -124l-120 -224z M681 -247l121 226l233 -124l-120 -224z" />
<glyph unicode="&#x697;" horiz-adv-x="886" d="M10 74l42 62q90 -60 145 -81t119 -21q69 0 138 39t188 145q166 148 166 228q0 40 -32 105q-36 74 -88 123l56 270q68 -70 105 -161t37 -207v-306q0 -61 -70 -161.5t-164 -174.5q-104 -82 -178 -82q-88 0 -189 50q-88 43 -275 172zM397 1152l110 204l142 -80l80 158 l186 -102l-104 -194l-148 74l-84 -162z" />
<glyph unicode="&#x699;" horiz-adv-x="886" d="M10 74l42 62q90 -60 145 -81t119 -21q69 0 138 39t188 145q166 148 166 228q0 40 -32 105q-36 74 -88 123l56 270q68 -70 105 -161t37 -207v-306q0 -61 -70 -161.5t-164 -174.5q-104 -82 -178 -82q-88 0 -189 50q-88 43 -275 172zM264 1417l110 204l142 -80l80 158 l186 -102l-104 -194l-148 74l-84 -162zM397 1152l110 204l142 -80l80 158l186 -102l-104 -194l-148 74l-84 -162z" />
<glyph unicode="&#x69a;" horiz-adv-x="1246" d="M-70 293v272h143q105 0 175 59q91 77 91 234l66 -10q-2 -32 -4 -73t-2 -91q0 -51 35 -85t80 -34h123q122 0 174 34q63 41 63 153q0 24 15 43q9 11 37 33l38 30q2 -19 3 -51.5t1 -42.5q0 -55 -16 -146q37 -18 83 -31t97 -20q0 34 -25 88t-25 73q0 26 7 40q2 5 22 31 l85 115q27 -63 38.5 -114.5t11.5 -128.5v-378q-112 0 -186 16t-146 51q-58 -41 -103.5 -54t-136.5 -13h-163q-67 0 -106 35t-70 116q-55 -84 -123 -120q-58 -31 -139 -31h-143zM501 1073l121 226l233 -124l-120 -224zM701 -7l121 226l233 -124l-120 -224z" />
<glyph unicode="&#x69a;" horiz-adv-x="1246" d="M-70 293v272h143q105 0 175 59q91 77 91 234l66 -10q-2 -32 -4 -73t-2 -91q0 -51 35 -85t80 -34h123q122 0 174 34q63 41 63 153q0 24 15 43q9 11 37 33l38 30q2 -19 3 -51.5t1 -42.5q0 -55 -16 -146q37 -18 83 -31t97 -20q0 34 -25 88t-25 73q0 26 7 40q2 5 22 31 l85 115q27 -63 38.5 -114.5t11.5 -128.5v-378q-112 0 -186 16t-146 51q-58 -41 -103.5 -54t-136.5 -13h-163q-67 0 -106 35t-70 116q-55 -84 -123 -120q-58 -31 -139 -31h-143zM501 1073l121 226l233 -124l-120 -224zM701 -7l121 226l233 -124l-120 -224z" />
<glyph unicode="&#x69a;" horiz-adv-x="1842" d="M64 210q0 139 42 254q46 127 180 330l60 -42q-99 -169 -129.5 -245t-30.5 -157q0 -105 112.5 -171.5t295.5 -66.5q180 0 303 69t123 169q0 62 -21.5 123t-92.5 195l88 270q71 -120 94 -198q20 -68 20 -175h92q151 0 210.5 35.5t59.5 127.5q0 40 7.5 58.5t35.5 38.5l47 33 q2 -19 3 -51.5t1 -42.5q0 -55 -16 -146q46 -15 92.5 -27.5t87.5 -18.5q0 36 -25 88t-25 68q0 12 3.5 23t16.5 29l94 134q27 -63 38.5 -114.5t11.5 -128.5v-377q-110 0 -157 10t-175 56q-58 -41 -103.5 -54t-136.5 -13h-163q0 -232 -148 -334q-129 -89 -389 -89 q-243 0 -374.5 88.5t-131.5 251.5zM1151 1073l121 226l233 -124l-120 -224zM1301 -7l121 226l233 -124l-120 -224z" />
<glyph unicode="&#x69b;" horiz-adv-x="1246" d="M-70 293v272h143q105 0 175 59q91 77 91 234l66 -10q-2 -32 -4 -73t-2 -91q0 -51 35 -85t80 -34h123q122 0 174 34q63 41 63 153q0 24 15 43q9 11 37 33l38 30q2 -19 3 -51.5t1 -42.5q0 -55 -16 -146q37 -18 83 -31t97 -20q0 34 -25 88t-25 73q0 26 7 40q2 5 22 31 l85 115q27 -63 38.5 -114.5t11.5 -128.5v-378q-112 0 -186 16t-146 51q-58 -41 -103.5 -54t-136.5 -13h-163q-67 0 -106 35t-70 116q-55 -84 -123 -120q-58 -31 -139 -31h-143zM617 -63l110 204l142 -80l80 158l186 -102l-104 -194l-148 74l-84 -162zM811 -300l100 208 l188 -100l-102 -204z" />
<glyph unicode="&#x69b;" horiz-adv-x="1246" d="M-70 293v272h143q105 0 175 59q91 77 91 234l66 -10q-2 -32 -4 -73t-2 -91q0 -51 35 -85t80 -34h123q122 0 174 34q63 41 63 153q0 24 15 43q9 11 37 33l38 30q2 -19 3 -51.5t1 -42.5q0 -55 -16 -146q37 -18 83 -31t97 -20q0 34 -25 88t-25 73q0 26 7 40q2 5 22 31 l85 115q27 -63 38.5 -114.5t11.5 -128.5v-378q-112 0 -186 16t-146 51q-58 -41 -103.5 -54t-136.5 -13h-163q-67 0 -106 35t-70 116q-55 -84 -123 -120q-58 -31 -139 -31h-143zM617 -63l110 204l142 -80l80 158l186 -102l-104 -194l-148 74l-84 -162zM811 -300l100 208 l188 -100l-102 -204z" />
<glyph unicode="&#x69b;" horiz-adv-x="1842" d="M64 210q0 139 42 254q46 127 180 330l60 -42q-99 -169 -129.5 -245t-30.5 -157q0 -105 112.5 -171.5t295.5 -66.5q180 0 303 69t123 169q0 62 -21.5 123t-92.5 195l88 270q71 -120 94 -198q20 -68 20 -175h92q151 0 210.5 35.5t59.5 127.5q0 40 7.5 58.5t35.5 38.5l47 33 q2 -19 3 -51.5t1 -42.5q0 -55 -16 -146q46 -15 92.5 -27.5t87.5 -18.5q0 36 -25 88t-25 68q0 12 3.5 23t16.5 29l94 134q27 -63 38.5 -114.5t11.5 -128.5v-377q-110 0 -157 10t-175 56q-58 -41 -103.5 -54t-136.5 -13h-163q0 -232 -148 -334q-129 -89 -389 -89 q-243 0 -374.5 88.5t-131.5 251.5zM1217 -63l110 204l142 -80l80 158l186 -102l-104 -194l-148 74l-84 -162zM1411 -300l100 208l188 -100l-102 -204z" />
<glyph unicode="&#x69c;" horiz-adv-x="1246" d="M-70 293v272h143q105 0 175 59q91 77 91 234l66 -10q-2 -32 -4 -73t-2 -91q0 -51 35 -85t80 -34h123q122 0 174 34q63 41 63 153q0 24 15 43q9 11 37 33l38 30q2 -19 3 -51.5t1 -42.5q0 -55 -16 -146q37 -18 83 -31t97 -20q0 34 -25 88t-25 73q0 26 7 40q2 5 22 31 l85 115q27 -63 38.5 -114.5t11.5 -128.5v-378q-112 0 -186 16t-146 51q-58 -41 -103.5 -54t-136.5 -13h-163q-67 0 -106 35t-70 116q-55 -84 -123 -120q-58 -31 -139 -31h-143zM612 1072l104 194l148 -74l84 162l182 -102l-110 -204l-142 80l-87 -158zM617 -63l110 204 l142 -80l80 158l186 -102l-104 -194l-148 74l-84 -162zM648 1381l102 204l186 -96l-100 -208zM811 -300l100 208l188 -100l-102 -204z" />
<glyph unicode="&#x69c;" horiz-adv-x="1246" d="M-70 293v272h143q105 0 175 59q91 77 91 234l66 -10q-2 -32 -4 -73t-2 -91q0 -51 35 -85t80 -34h123q122 0 174 34q63 41 63 153q0 24 15 43q9 11 37 33l38 30q2 -19 3 -51.5t1 -42.5q0 -55 -16 -146q37 -18 83 -31t97 -20q0 34 -25 88t-25 73q0 26 7 40q2 5 22 31 l85 115q27 -63 38.5 -114.5t11.5 -128.5v-378q-112 0 -186 16t-146 51q-58 -41 -103.5 -54t-136.5 -13h-163q-67 0 -106 35t-70 116q-55 -84 -123 -120q-58 -31 -139 -31h-143zM612 1072l104 194l148 -74l84 162l182 -102l-110 -204l-142 80l-87 -158zM617 -63l110 204 l142 -80l80 158l186 -102l-104 -194l-148 74l-84 -162zM648 1381l102 204l186 -96l-100 -208zM811 -300l100 208l188 -100l-102 -204z" />
<glyph unicode="&#x69c;" horiz-adv-x="1842" d="M64 210q0 139 42 254q46 127 180 330l60 -42q-99 -169 -129.5 -245t-30.5 -157q0 -105 112.5 -171.5t295.5 -66.5q180 0 303 69t123 169q0 62 -21.5 123t-92.5 195l88 270q71 -120 94 -198q20 -68 20 -175h92q151 0 210.5 35.5t59.5 127.5q0 40 7.5 58.5t35.5 38.5l47 33 q2 -19 3 -51.5t1 -42.5q0 -55 -16 -146q46 -15 92.5 -27.5t87.5 -18.5q0 36 -25 88t-25 68q0 12 3.5 23t16.5 29l94 134q27 -63 38.5 -114.5t11.5 -128.5v-377q-110 0 -157 10t-175 56q-58 -41 -103.5 -54t-136.5 -13h-163q0 -232 -148 -334q-129 -89 -389 -89 q-243 0 -374.5 88.5t-131.5 251.5zM1217 -63l110 204l142 -80l80 158l186 -102l-104 -194l-148 74l-84 -162zM1242 1072l104 194l148 -74l84 162l182 -102l-110 -204l-142 80l-80 -158zM1278 1381l102 204l186 -96l-100 -208zM1411 -300l100 208l188 -100l-102 -204z" />
<glyph unicode="&#x69d;" horiz-adv-x="1580" d="M-70 293v272l143 1q116 0 176 58q70 68 90 234l68 -10q-3 -36 -4 -58q-4 -66 -4 -106q0 -57 30 -88t79 -31t90.5 20t130.5 83l358 256q63 45 95 64q73 44 141 44q112 0 179 -79q78 -92 78 -277v-383h-1059q-71 0 -113.5 35.5t-72.5 115.5q-64 -89 -122 -121 q-53 -29 -140 -29zM772 -63l110 204l142 -80l80 158l186 -102l-104 -194l-148 74l-84 -162zM849 565h262q329 0 329 102q0 45 -71 73q-59 23 -132 23q-66 0 -148.5 -42.5t-239.5 -155.5z" />
<glyph unicode="&#x69d;" horiz-adv-x="1580" d="M-70 293v272l143 1q116 0 176 58q70 68 90 234l68 -10q-3 -36 -4 -58q-4 -66 -4 -106q0 -57 30 -88t79 -31t90.5 20t130.5 83l358 256q63 45 95 64q73 44 141 44q112 0 179 -79q78 -92 78 -277v-383h-1059q-71 0 -113.5 35.5t-72.5 115.5q-64 -89 -122 -121 q-53 -29 -140 -29zM772 -63l110 204l142 -80l80 158l186 -102l-104 -194l-148 74l-84 -162zM849 565h262q329 0 329 102q0 45 -71 73q-59 23 -132 23q-66 0 -148.5 -42.5t-239.5 -155.5z" />
<glyph unicode="&#x69d;" horiz-adv-x="2176" d="M64 210q0 139 42 254q46 127 180 330l60 -42q-99 -169 -129.5 -245t-30.5 -157q0 -105 112.5 -171.5t295.5 -66.5q180 0 303 69t123 169q0 62 -21.5 123t-92.5 195l88 270q55 -106 62 -122q29 -61 40.5 -114t11.5 -137q65 0 118 33q6 4 99 70l358 256q84 59 126 80 q58 28 117 28q112 0 176 -79q74 -91 74 -277v-383h-1069q0 -233 -148 -335q-128 -88 -389 -88q-243 0 -374.5 88.5t-131.5 251.5zM1422 -63l110 204l142 -80l80 158l186 -102l-104 -194l-148 74l-84 -162zM1445 565h262q337 0 337 102q0 38 -62 67t-149 29 q-66 0 -148.5 -42.5t-239.5 -155.5z" />
<glyph unicode="&#x69e;" horiz-adv-x="1580" d="M-70 293v272l143 1q116 0 176 58q70 68 90 234l68 -10q-3 -36 -4 -58q-4 -66 -4 -106q0 -57 30 -88t79 -31t90.5 20t130.5 83l358 256q63 45 95 64q73 44 141 44q112 0 179 -79q78 -92 78 -277v-383h-1059q-71 0 -113.5 35.5t-72.5 115.5q-64 -89 -122 -121 q-53 -29 -140 -29zM626 1167l104 194l148 -74l84 162l182 -102l-110 -204l-142 80l-80 -158zM662 1476l102 204l186 -96l-100 -208zM849 565h262q329 0 329 102q0 45 -71 73q-59 23 -132 23q-66 0 -148.5 -42.5t-239.5 -155.5z" />
<glyph unicode="&#x69e;" horiz-adv-x="1580" d="M-70 293v272l143 1q116 0 176 58q70 68 90 234l68 -10q-3 -36 -4 -58q-4 -66 -4 -106q0 -57 30 -88t79 -31t90.5 20t130.5 83l358 256q63 45 95 64q73 44 141 44q112 0 179 -79q78 -92 78 -277v-383h-1059q-71 0 -113.5 35.5t-72.5 115.5q-64 -89 -122 -121 q-53 -29 -140 -29zM626 1167l104 194l148 -74l84 162l182 -102l-110 -204l-142 80l-80 -158zM662 1476l102 204l186 -96l-100 -208zM849 565h262q329 0 329 102q0 45 -71 73q-59 23 -132 23q-66 0 -148.5 -42.5t-239.5 -155.5z" />
<glyph unicode="&#x69e;" horiz-adv-x="2176" d="M64 210q0 139 42 254q46 127 180 330l60 -42q-99 -169 -129.5 -245t-30.5 -157q0 -105 112.5 -171.5t295.5 -66.5q180 0 303 69t123 169q0 62 -21.5 123t-92.5 195l88 270q55 -106 62 -122q29 -61 40.5 -114t11.5 -137q65 0 118 33q6 4 99 70l358 256q84 59 126 80 q58 28 117 28q112 0 176 -79q74 -91 74 -277v-383h-1069q0 -233 -148 -335q-128 -88 -389 -88q-243 0 -374.5 88.5t-131.5 251.5zM1222 1167l104 194l148 -74l84 162l182 -102l-110 -204l-142 80l-80 -158zM1258 1476l102 204l186 -96l-100 -208zM1445 565h262 q337 0 337 102q0 38 -62 67t-149 29q-66 0 -148.5 -42.5t-239.5 -155.5z" />
<glyph unicode="&#x69f;" horiz-adv-x="1072" d="M-70 293v272h133q24 0 135 83q37 27 107 84q0 123 -9 208t-29 177q-5 22 -54 217l-58 36q23 105 38 150.5t58 143.5l46 -18q0 -6 -4 -26q0 -35 99 -83q33 -16 99 -41q-10 -78 -32 -146q-11 -34 -40 -106l-36 12q31 -142 41.5 -209.5t10.5 -120.5v-11q0 -29 -1.5 -45.5 t-8.5 -51.5q52 38 105 76q81 57 145 92q84 46 128 46q118 0 189 -61q80 -69 80 -199v-479h-1142zM341 565h262q330 0 330 102q0 35 -74 65.5t-130 30.5q-66 0 -148.5 -42.5t-239.5 -155.5zM554 1245l104 194l148 -74l84 162l182 -102l-110 -204l-142 80l-80 -158zM590 1554 l102 204l186 -96l-100 -208z" />
<glyph unicode="&#x6a0;" horiz-adv-x="1108" d="M-70 293v272h108q29 0 43 1q30 4 59 6q-50 75 -67 121.5t-17 104.5q0 149 123.5 260.5t288.5 111.5q111 0 212 -73q93 -68 136 -165l-42 -36q-79 30 -125.5 39t-114.5 9q-124 0 -215 -20q-115 -25 -115 -72q0 -69 278 -228l508 146l-112 -284q-269 -83 -445 -128 q-153 -39 -258 -54q-77 -11 -155 -11h-90zM142 1312l104 194l148 -74l84 162l182 -102l-110 -204l-142 80l-80 -158zM178 1621l102 204l186 -96l-100 -208z" />
<glyph unicode="&#x6a0;" horiz-adv-x="738" d="M-70 293v272h105q83 0 116.5 8.5t90.5 38.5q-30 59 -52 85q-27 31 -56 31q-11 0 -20.5 -7.5t-21.5 -28.5l-44 6q0 181 62.5 258.5t197.5 77.5q139 0 218.5 -54.5t79.5 -149.5q0 -51 -21 -97.5t-79 -126.5q14 -19 38 -30t46 -11h148v-272h-148q-79 0 -139 32t-97 103 q-65 -80 -169 -113q-69 -22 -150 -22h-105zM52 1232l104 194l148 -74l84 162l182 -102l-110 -204l-142 80l-80 -158zM88 1541l102 204l186 -96l-100 -208z" />
<glyph unicode="&#x6a0;" horiz-adv-x="960" d="M70 100q0 182 70 329t220 279q-12 74 -54 74q-16 0 -25 -9q-12 -15 -23 -27l-48 10q0 139 62 230q70 102 196 102q112 0 185 -62t73 -160q0 -59 -30 -112q-33 -58 -90 -86q50 -58 122 -85q49 -18 92 -18h140v-272h-140q-143 0 -229 56q-96 62 -173 221 q-112 -74 -173 -169.5t-61 -194.5q0 -177 156.5 -262.5t493.5 -85.5q52 0 110 1t106 3l6 -44l-368 -224q-325 0 -471.5 122.5t-146.5 383.5zM192 1286l104 194l148 -74l84 162l182 -102l-110 -204l-142 80l-80 -158zM228 1595l102 204l186 -96l-100 -208z" />
<glyph unicode="&#x6a2;" horiz-adv-x="624" d="M-70 293v272h600q0 87 -5 124q-8 57 -33 99q-32 -62 -86 -95t-115 -33q-80 0 -135 53t-55 133q0 118 72 280q79 178 160 178q105 0 198 -183t93 -387v-441h-694zM161 -7l121 226l233 -124l-120 -224zM237 960q0 -23 18.5 -38.5t47.5 -15.5q23 0 46.5 13.5t57.5 46.5 q-27 47 -47.5 65.5t-44.5 18.5q-30 0 -54 -27t-24 -63z" />
<glyph unicode="&#x6a2;" horiz-adv-x="664" d="M-70 293v272h180q46 0 87 -4q110 -12 251 -27q-149 33 -208.5 87.5t-59.5 158.5q0 155 71.5 279.5t160.5 124.5q101 0 176.5 -174.5t75.5 -421.5v-295h-734zM161 -7l121 226l233 -124l-120 -224zM310 846q0 -43 64.5 -83.5t153.5 -54.5q-36 86 -80 134t-88 48 q-20 0 -35 -13t-15 -31z" />
<glyph unicode="&#x6a2;" horiz-adv-x="1552" d="M47 552q0 114 22 199t102 275l66 -30q-72 -171 -72 -250q0 -103 81 -148q90 -50 311 -50q153 9 298 15.5t278 6.5q-41 20 -56.5 44.5t-15.5 71.5q0 143 87 285q94 153 207 153q106 0 154 -148q43 -134 43 -411v-272h-134q-175 0 -397 -8q-134 -5 -348 -15t-230 -10 q-213 0 -308 75q-88 70 -88 217zM1121 -7l121 226l233 -124l-120 -224zM1230 800q0 -31 43 -58t123 -50q-35 98 -58 129t-60 31q-19 0 -33.5 -14.5t-14.5 -37.5z" />
<glyph unicode="&#x6a3;" horiz-adv-x="624" d="M-70 293v272h600q0 87 -5 124q-8 57 -33 99q-32 -62 -86 -95t-115 -33q-80 0 -135 53t-55 133q0 118 72 280q79 178 160 178q105 0 198 -183t93 -387v-441h-694zM125 1514l121 226l233 -124l-120 -224zM161 -7l121 226l233 -124l-120 -224zM237 960q0 -23 18.5 -38.5 t47.5 -15.5q23 0 46.5 13.5t57.5 46.5q-27 47 -47.5 65.5t-44.5 18.5q-30 0 -54 -27t-24 -63z" />
<glyph unicode="&#x6a3;" horiz-adv-x="664" d="M-70 293v272h180q46 0 87 -4q110 -12 251 -27q-149 33 -208.5 87.5t-59.5 158.5q0 155 71.5 279.5t160.5 124.5q101 0 176.5 -174.5t75.5 -421.5v-295h-734zM161 -7l121 226l233 -124l-120 -224zM212 1380l121 226l233 -124l-120 -224zM310 846q0 -43 64.5 -83.5 t153.5 -54.5q-36 86 -80 134t-88 48q-20 0 -35 -13t-15 -31z" />
<glyph unicode="&#x6a3;" horiz-adv-x="1552" d="M47 552q0 114 22 199t102 275l66 -30q-72 -171 -72 -250q0 -103 81 -148q90 -50 311 -50q153 9 298 15.5t278 6.5q-41 20 -56.5 44.5t-15.5 71.5q0 143 87 285q94 153 207 153q106 0 154 -148q43 -134 43 -411v-272h-134q-175 0 -397 -8q-134 -5 -348 -15t-230 -10 q-213 0 -308 75q-88 70 -88 217zM701 -7l121 226l233 -124l-120 -224zM1120 1370l121 226l233 -124l-120 -224zM1230 800q0 -31 43 -58t123 -50q-35 98 -58 129t-60 31q-19 0 -33.5 -14.5t-14.5 -37.5z" />
<glyph unicode="&#x6a5;" horiz-adv-x="624" d="M-70 293v272h600q0 87 -5 124q-8 57 -33 99q-32 -62 -86 -95t-115 -33q-80 0 -135 53t-55 133q0 118 72 280q79 178 160 178q105 0 198 -183t93 -387v-441h-694zM57 -63l110 204l142 -80l80 158l186 -102l-104 -194l-148 74l-84 -162zM237 960q0 -23 18.5 -38.5 t47.5 -15.5q23 0 46.5 13.5t57.5 46.5q-27 47 -47.5 65.5t-44.5 18.5q-30 0 -54 -27t-24 -63zM251 -300l100 208l188 -100l-102 -204z" />
<glyph unicode="&#x6a5;" horiz-adv-x="664" d="M-70 293v272h180q46 0 87 -4q110 -12 251 -27q-149 33 -208.5 87.5t-59.5 158.5q0 155 71.5 279.5t160.5 124.5q101 0 176.5 -174.5t75.5 -421.5v-295h-734zM73 -63l110 204l142 -80l80 158l186 -102l-104 -194l-148 74l-84 -162zM267 -300l100 208l188 -100l-102 -204z M310 846q0 -43 64.5 -83.5t153.5 -54.5q-36 86 -80 134t-88 48q-20 0 -35 -13t-15 -31z" />
<glyph unicode="&#x6a5;" horiz-adv-x="1552" d="M47 552q0 114 22 199t102 275l66 -30q-72 -171 -72 -250q0 -103 81 -148q90 -50 311 -50q153 9 298 15.5t278 6.5q-41 20 -56.5 44.5t-15.5 71.5q0 143 87 285q94 153 207 153q106 0 154 -148q43 -134 43 -411v-272h-134q-175 0 -397 -8q-134 -5 -348 -15t-230 -10 q-213 0 -308 75q-88 70 -88 217zM1034 -63l110 204l142 -80l80 158l186 -102l-104 -194l-148 74l-84 -162zM1228 -300l100 208l188 -100l-102 -204zM1230 800q0 -31 43 -58t123 -50q-35 98 -58 129t-60 31q-19 0 -33.5 -14.5t-14.5 -37.5z" />
<glyph unicode="&#x6a7;" horiz-adv-x="1254" d="M39 86q0 147 46 267q51 132 190 325l60 -42q-91 -132 -129.5 -223t-38.5 -177q0 -122 126 -190t354 -68q206 0 364 80t158 182q0 13 -0.5 27t-5.5 33q-105 -10 -156 -10q-110 0 -172 55t-62 155q0 147 74 293q80 157 178 157q108 0 171 -155q58 -142 58 -353v-176 q0 -197 -22 -260.5t-105 -129.5q-181 -142 -512 -142q-278 0 -427 91t-149 261zM741 1173l121 226l233 -124l-120 -224zM897 624q0 -66 84 -66q30 0 44 1.5t48 6.5q-27 62 -55 88t-67 26q-25 0 -39.5 -15.5t-14.5 -40.5z" />
<glyph unicode="&#x6a8;" horiz-adv-x="1254" d="M39 86q0 147 46 267q51 132 190 325l60 -42q-91 -132 -129.5 -223t-38.5 -177q0 -122 126 -190t354 -68q206 0 364 80t158 182q0 13 -0.5 27t-5.5 33q-105 -10 -156 -10q-110 0 -172 55t-62 155q0 147 74 293q80 157 178 157q108 0 171 -155q58 -142 58 -353v-176 q0 -197 -22 -260.5t-105 -129.5q-181 -142 -512 -142q-278 0 -427 91t-149 261zM662 1066l104 194l148 -74l84 162l182 -102l-110 -204l-142 80l-80 -158zM698 1375l102 204l186 -96l-100 -208zM897 624q0 -66 84 -66q30 0 44 1.5t48 6.5q-27 62 -55 88t-67 26 q-25 0 -39.5 -15.5t-14.5 -40.5z" />
<glyph unicode="&#x6aa;" horiz-adv-x="738" d="M-70 293v272h609q-33 45 -230 130q-118 50 -165 82q-111 73 -111 158q0 101 14 142q30 86 209 176q71 36 307 127v-238l-240 -82q-84 -34 -84 -51q0 -11 102 -74q148 -91 158 -98q159 -108 239 -265v-279h-808z" />
<glyph unicode="&#x6aa;" horiz-adv-x="1110" d="M-70 293v272h170q161 0 216 5q101 9 101 42q0 26 -21.5 41t-120.5 57q-242 104 -242 225q0 101 14 142q30 86 209 176q71 36 307 127v-238l-240 -82q-84 -34 -84 -51q0 -25 264 -161q101 -52 163 -98q34 -25 160 -133q61 -52 140 -52h144v-272h-136q-87 0 -231 108 q-25 19 -200 171q0 -107 -110 -190q-118 -89 -377 -89h-126z" />
<glyph unicode="&#x6aa;" horiz-adv-x="1800" d="M41 572q0 135 78 285l60 -42q-14 -36 -14 -83q0 -116 123 -151q59 -16 219 -16h400q207 0 207 34q0 31 -90 56q-10 3 -143 31q-238 50 -293 69q-185 67 -185 180q0 101 14 142q30 86 209 176q71 36 307 127v-238l-240 -82q-84 -34 -84 -51q0 -21 475 -118 q180 -37 365 -194q155 -132 207 -132h144v-272h-136q-65 0 -157 65q-101 88 -278 239q0 -135 -106 -215q-118 -89 -377 -89h-309q-181 0 -273 50q-123 66 -123 229z" />
<glyph unicode="&#x6ab;" horiz-adv-x="738" d="M-70 293v272h649q-39 47 -76 82q-30 28 -81 68q-57 44 -113 88l-32 -36q-89 88 -106 107q-50 57 -50 131q0 101 14 142q20 58 85 103q58 40 124 73q52 26 138 61q40 16 169 66v-238q-5 0 -84 -26q-98 -32 -156 -56q-84 -34 -84 -51q0 -9 71 -78q97 -94 163 -172 q109 -129 177 -257v-279h-808zM450 1062q0 77 40 136.5t99 59.5q54 0 91 -45t37 -105q0 -62 -46 -111t-113 -49q-54 0 -81 30t-27 84zM490 1108q0 -35 33 -49q26 -11 75 -11q25 0 42 7t17 26q0 28 -39 62t-66 34q-26 0 -44 -22.5t-18 -46.5z" />
<glyph unicode="&#x6ab;" horiz-adv-x="1110" d="M-70 293v272h170q108 0 163 5q86 8 132 31q54 27 54 80q0 27 -34 67t-75 62l-35 -35q-77 73 -96 94q-56 63 -56 136q0 101 14 142q20 58 85 103q55 38 148 80q75 34 182 75q96 36 193 73v-238l-107 -33q-123 -39 -201 -69q-108 -42 -108 -59q-1 -15 -1 -21q0 -23 21 -47 q28 -32 117 -102q65 -52 182 -163q99 -95 148 -129q74 -52 140 -52h144v-272h-136q-75 0 -167 65q-75 53 -154 140q-42 46 -110 134q0 -167 -110 -250q-118 -89 -377 -89h-126zM520 1072q0 77 40 136.5t99 59.5q54 0 91 -45t37 -105q0 -62 -46 -111t-113 -49q-54 0 -81 30 t-27 84zM560 1118q0 -35 33 -49q26 -11 75 -11q25 0 42 7t17 26q0 28 -39 62t-66 34q-26 0 -44 -22.5t-18 -46.5z" />
<glyph unicode="&#x6ab;" horiz-adv-x="1800" d="M41 572q0 93 28.5 182.5t97.5 213.5l60 -42q-39 -77 -50.5 -114.5t-11.5 -79.5q0 -96 71 -131.5t271 -35.5h283q108 0 163 5q86 8 132 31q54 27 54 80q0 27 -34 67t-75 62l-35 -35q-77 73 -96 94q-56 63 -56 136q0 101 14 142q20 58 85 103q55 38 148 80q75 34 182 75 q96 36 193 73v-238l-107 -33q-123 -39 -201 -69q-108 -42 -108 -59q-1 -15 -1 -21q0 -23 21 -47q28 -32 117 -102q65 -52 182 -163q99 -95 148 -129q74 -52 140 -52h144v-272h-136q-75 0 -167 65q-75 53 -154 140q-42 46 -110 134q0 -167 -110 -250q-118 -89 -377 -89h-309 q-216 0 -311 74q-85 66 -85 205zM1210 1072q0 77 40 136.5t99 59.5q54 0 91 -45t37 -105q0 -62 -46 -111t-113 -49q-54 0 -81 30t-27 84zM1250 1118q0 -35 33 -49q26 -11 75 -11q25 0 42 7t17 26q0 28 -39 62t-66 34q-26 0 -44 -22.5t-18 -46.5z" />
<glyph unicode="&#x6ac;" horiz-adv-x="738" d="M-70 293v272h649q-39 47 -76 82q-30 28 -81 68q-57 44 -113 88l-32 -36q-89 88 -106 107q-50 57 -50 131q0 101 14 142q20 58 85 103q58 40 124 73q52 26 138 61q40 16 169 66v-238q-5 0 -84 -26q-98 -32 -156 -56q-84 -34 -84 -51q0 -9 71 -78q97 -94 163 -172 q109 -129 177 -257v-279h-808zM141 1573l121 226l233 -124l-120 -224z" />
<glyph unicode="&#x6ac;" horiz-adv-x="738" d="M-70 293v272h649q-39 47 -76 82q-30 28 -81 68q-57 44 -113 88l-32 -36q-89 88 -106 107q-50 57 -50 131q0 101 14 142q20 58 85 103q58 40 124 73q52 26 138 61q40 16 169 66v-238q-5 0 -84 -26q-98 -32 -156 -56q-84 -34 -84 -51q0 -9 71 -78q97 -94 163 -172 q109 -129 177 -257v-279h-808zM141 1573l121 226l233 -124l-120 -224z" />
<glyph unicode="&#x6ac;" horiz-adv-x="1108" d="M41 572q0 93 28.5 182.5t97.5 213.5l60 -42q-39 -77 -50.5 -114.5t-11.5 -79.5q0 -96 71 -131.5t271 -35.5h481l-121 679l-64 42q0 59 18 119q23 76 78 181l46 -24q0 -6 -4 -32q0 -33 42 -64q37 -28 118 -62q-9 -64 -26.5 -125t-39.5 -109l-36 14l109 -619v-272h-671 q-216 0 -311 74q-85 66 -85 205zM327 770l12 64h18q99 0 182.5 27.5t83.5 64.5q0 14 -10 19.5t-40 8.5q-96 0 -96 84q0 60 23.5 133.5t66.5 148.5q28 46 57 68t87 40q-2 -39 -3 -85t-1 -81q-54 -15 -90 -42q-32 -24 -32 -42q0 -21 68 -30q62 0 87 -25t25 -85 q0 -133 -78.5 -207.5t-219.5 -74.5q-39 0 -62.5 2t-77.5 12zM361 1599l121 226l233 -124l-120 -224z" />
<glyph unicode="&#x6ad;" horiz-adv-x="1550" arabic-form="isolated" d="M41 572q0 93 28.5 182.5t97.5 213.5l60 -42q-39 -77 -50.5 -114.5t-11.5 -79.5q0 -96 71 -131.5t271 -35.5h884q-39 47 -76 82q-30 28 -81 68q-57 44 -113 88l-32 -36q-89 88 -106 107q-50 57 -50 131q0 101 14 142q20 58 85 103q58 40 124 73q52 26 138 61q40 16 169 66 v-238q-5 0 -84 -26q-98 -32 -156 -56q-84 -34 -84 -51q0 -9 71 -78q97 -94 163 -172q109 -129 177 -257v-279h-1113q-216 0 -311 74q-85 66 -85 205zM933 1427l54 96l133 -36l-57 -96zM975 1564l54 96l133 -36l-57 -96zM1150 1515l54 96l133 -36l-57 -96z" />
<glyph unicode="&#x6ae;" horiz-adv-x="738" d="M-70 293v272h649q-39 47 -76 82q-30 28 -81 68q-57 44 -113 88l-32 -36q-89 88 -106 107q-50 57 -50 131q0 101 14 142q20 58 85 103q58 40 124 73q52 26 138 61q40 16 169 66v-238q-5 0 -84 -26q-98 -32 -156 -56q-84 -34 -84 -51q0 -9 71 -78q97 -94 163 -172 q109 -129 177 -257v-279h-808zM110 -63l110 204l142 -80l80 158l186 -102l-104 -194l-148 74l-84 -162zM304 -300l100 208l188 -100l-102 -204z" />
<glyph unicode="&#x6ae;" horiz-adv-x="738" d="M-70 293v272h649q-39 47 -76 82q-30 28 -81 68q-57 44 -113 88l-32 -36q-89 88 -106 107q-50 57 -50 131q0 101 14 142q20 58 85 103q58 40 124 73q52 26 138 61q40 16 169 66v-238q-5 0 -84 -26q-98 -32 -156 -56q-84 -34 -84 -51q0 -9 71 -78q97 -94 163 -172 q109 -129 177 -257v-279h-808zM110 -63l110 204l142 -80l80 158l186 -102l-104 -194l-148 74l-84 -162zM304 -300l100 208l188 -100l-102 -204z" />
<glyph unicode="&#x6ae;" horiz-adv-x="1108" d="M41 572q0 93 28.5 182.5t97.5 213.5l60 -42q-39 -77 -50.5 -114.5t-11.5 -79.5q0 -96 71 -131.5t271 -35.5h481l-121 679l-64 42q0 59 18 119q23 76 78 181l46 -24q0 -6 -4 -32q0 -33 42 -64q37 -28 118 -62q-9 -64 -26.5 -125t-39.5 -109l-36 14l109 -619v-272h-671 q-216 0 -311 74q-85 66 -85 205zM327 770l12 64h18q99 0 182.5 27.5t83.5 64.5q0 14 -10 19.5t-40 8.5q-96 0 -96 84q0 60 23.5 133.5t66.5 148.5q28 46 57 68t87 40q-2 -39 -3 -85t-1 -81q-54 -15 -90 -42q-32 -24 -32 -42q0 -21 68 -30q62 0 87 -25t25 -85 q0 -133 -78.5 -207.5t-219.5 -74.5q-39 0 -62.5 2t-77.5 12zM367 -63l110 204l142 -80l80 158l186 -102l-104 -194l-148 74l-84 -162zM561 -300l100 208l188 -100l-102 -204z" />
<glyph unicode="&#x6b0;" horiz-adv-x="738" d="M-70 293v272h649q-39 47 -76 82q-30 28 -81 68q-57 44 -113 88l-32 -36q-89 88 -106 107q-50 57 -50 131q0 101 14 142q20 58 85 103q58 40 124 73q52 26 138 61q40 16 169 66v-238q-5 0 -84 -26q-98 -32 -156 -56q-84 -34 -84 -51q0 -9 71 -78q97 -94 163 -172 q109 -129 177 -257v-279h-808zM50 1266v154q34 34 119 92q99 67 210 127q137 74 272 128v-223q-215 -79 -372 -153q-144 -68 -229 -125zM450 1062q0 77 40 136.5t99 59.5q54 0 91 -45t37 -105q0 -62 -46 -111t-113 -49q-54 0 -81 30t-27 84zM490 1108q0 -35 33 -49 q26 -11 75 -11q25 0 42 7t17 26q0 28 -39 62t-66 34q-26 0 -44 -22.5t-18 -46.5z" />
<glyph unicode="&#x6b0;" horiz-adv-x="1110" d="M-70 293v272h170q108 0 163 5q86 8 132 31q54 27 54 80q0 27 -34 67t-75 62l-35 -35q-77 73 -96 94q-56 63 -56 136q0 101 14 142q20 58 85 103q55 38 148 80q75 34 182 75q96 36 193 73v-238l-107 -33q-123 -39 -201 -69q-108 -42 -108 -59q-1 -15 -1 -21q0 -23 21 -47 q28 -32 117 -102q65 -52 182 -163q99 -95 148 -129q74 -52 140 -52h144v-272h-136q-75 0 -167 65q-75 53 -154 140q-42 46 -110 134q0 -167 -110 -250q-118 -89 -377 -89h-126zM174 1294v154q34 34 119 92q99 67 210 127q137 74 272 128v-223q-215 -79 -372 -153 q-144 -68 -229 -125zM520 1072q0 77 40 136.5t99 59.5q54 0 91 -45t37 -105q0 -62 -46 -111t-113 -49q-54 0 -81 30t-27 84zM560 1118q0 -35 33 -49q26 -11 75 -11q25 0 42 7t17 26q0 28 -39 62t-66 34q-26 0 -44 -22.5t-18 -46.5z" />
<glyph unicode="&#x6b0;" horiz-adv-x="1800" d="M41 572q0 93 28.5 182.5t97.5 213.5l60 -42q-39 -77 -50.5 -114.5t-11.5 -79.5q0 -96 71 -131.5t271 -35.5h283q108 0 163 5q86 8 132 31q54 27 54 80q0 27 -34 67t-75 62l-35 -35q-77 73 -96 94q-56 63 -56 136q0 101 14 142q20 58 85 103q55 38 148 80q75 34 182 75 q96 36 193 73v-238l-107 -33q-123 -39 -201 -69q-108 -42 -108 -59q-1 -15 -1 -21q0 -23 21 -47q28 -32 117 -102q65 -52 182 -163q99 -95 148 -129q74 -52 140 -52h144v-272h-136q-75 0 -167 65q-75 53 -154 140q-42 46 -110 134q0 -167 -110 -250q-118 -89 -377 -89h-309 q-216 0 -311 74q-85 66 -85 205zM864 1294v154q34 34 119 92q99 67 210 127q137 74 272 128v-223q-215 -79 -372 -153q-144 -68 -229 -125zM1210 1072q0 77 40 136.5t99 59.5q54 0 91 -45t37 -105q0 -62 -46 -111t-113 -49q-54 0 -81 30t-27 84zM1250 1118q0 -35 33 -49 q26 -11 75 -11q25 0 42 7t17 26q0 28 -39 62t-66 34q-26 0 -44 -22.5t-18 -46.5z" />
<glyph unicode="&#x6b2;" horiz-adv-x="738" d="M-70 293v272h649q-39 47 -76 82q-30 28 -81 68q-57 44 -113 88l-32 -36q-89 88 -106 107q-50 57 -50 131q0 101 14 142q20 58 85 103q58 40 124 73q52 26 138 61q40 16 169 66v-238q-5 0 -84 -26q-98 -32 -156 -56q-84 -34 -84 -51q0 -9 71 -78q97 -94 163 -172 q109 -129 177 -257v-279h-808zM50 1266v154q34 34 119 92q99 67 210 127q137 74 272 128v-223q-215 -79 -372 -153q-144 -68 -229 -125zM110 -63l110 204l142 -80l80 158l186 -102l-104 -194l-148 74l-84 -162z" />
<glyph unicode="&#x6b2;" horiz-adv-x="1110" d="M-70 293v272h170q108 0 163 5q86 8 132 31q54 27 54 80q0 27 -34 67t-75 62l-35 -35q-77 73 -96 94q-56 63 -56 136q0 101 14 142q20 58 85 103q55 38 148 80q75 34 182 75q96 36 193 73v-238l-107 -33q-123 -39 -201 -69q-108 -42 -108 -59q-1 -15 -1 -21q0 -23 21 -47 q28 -32 117 -102q65 -52 182 -163q99 -95 148 -129q74 -52 140 -52h144v-272h-136q-75 0 -167 65q-75 53 -154 140q-42 46 -110 134q0 -167 -110 -250q-118 -89 -377 -89h-126zM42 -63l110 204l142 -80l80 158l186 -102l-104 -194l-148 74l-84 -162zM174 1294v154 q34 34 119 92q99 67 210 127q137 74 272 128v-223q-215 -79 -372 -153q-144 -68 -229 -125z" />
<glyph unicode="&#x6b2;" horiz-adv-x="1800" d="M41 572q0 93 28.5 182.5t97.5 213.5l60 -42q-39 -77 -50.5 -114.5t-11.5 -79.5q0 -96 71 -131.5t271 -35.5h283q108 0 163 5q86 8 132 31q54 27 54 80q0 27 -34 67t-75 62l-35 -35q-77 73 -96 94q-56 63 -56 136q0 101 14 142q20 58 85 103q55 38 148 80q75 34 182 75 q96 36 193 73v-238l-107 -33q-123 -39 -201 -69q-108 -42 -108 -59q-1 -15 -1 -21q0 -23 21 -47q28 -32 117 -102q65 -52 182 -163q99 -95 148 -129q74 -52 140 -52h144v-272h-136q-75 0 -167 65q-75 53 -154 140q-42 46 -110 134q0 -167 -110 -250q-118 -89 -377 -89h-309 q-216 0 -311 74q-85 66 -85 205zM362 -63l110 204l142 -80l80 158l186 -102l-104 -194l-148 74l-84 -162zM864 1294v154q34 34 119 92q99 67 210 127q137 74 272 128v-223q-215 -79 -372 -153q-144 -68 -229 -125z" />
<glyph unicode="&#x6b4;" horiz-adv-x="738" d="M-70 293v272h649q-39 47 -76 82q-30 28 -81 68q-57 44 -113 88l-32 -36q-89 88 -106 107q-50 57 -50 131q0 101 14 142q20 58 85 103q58 40 124 73q52 26 138 61q40 16 169 66v-238q-5 0 -84 -26q-98 -32 -156 -56q-84 -34 -84 -51q0 -9 71 -78q97 -94 163 -172 q109 -129 177 -257v-279h-808zM29 1592l54 96l133 -36l-57 -96zM50 1266v154q34 34 119 92q99 67 210 127q137 74 272 128v-223q-215 -79 -372 -153q-144 -68 -229 -125zM71 1729l54 96l133 -36l-57 -96zM246 1680l54 96l133 -36l-57 -96z" />
<glyph unicode="&#x6b4;" horiz-adv-x="1110" d="M-70 293v272h170q108 0 163 5q86 8 132 31q54 27 54 80q0 27 -34 67t-75 62l-35 -35q-77 73 -96 94q-56 63 -56 136q0 101 14 142q20 58 85 103q55 38 148 80q75 34 182 75q96 36 193 73v-238l-107 -33q-123 -39 -201 -69q-108 -42 -108 -59q-1 -15 -1 -21q0 -23 21 -47 q28 -32 117 -102q65 -52 182 -163q99 -95 148 -129q74 -52 140 -52h144v-272h-136q-75 0 -167 65q-75 53 -154 140q-42 46 -110 134q0 -167 -110 -250q-118 -89 -377 -89h-126zM89 1592l54 96l133 -36l-57 -96zM131 1729l54 96l133 -36l-57 -96zM174 1294v154q34 34 119 92 q99 67 210 127q137 74 272 128v-223q-215 -79 -372 -153q-144 -68 -229 -125zM306 1680l54 96l133 -36l-57 -96z" />
<glyph unicode="&#x6b4;" horiz-adv-x="1800" d="M41 572q0 93 28.5 182.5t97.5 213.5l60 -42q-39 -77 -50.5 -114.5t-11.5 -79.5q0 -96 71 -131.5t271 -35.5h283q108 0 163 5q86 8 132 31q54 27 54 80q0 27 -34 67t-75 62l-35 -35q-77 73 -96 94q-56 63 -56 136q0 101 14 142q20 58 85 103q55 38 148 80q75 34 182 75 q96 36 193 73v-238l-107 -33q-123 -39 -201 -69q-108 -42 -108 -59q-1 -15 -1 -21q0 -23 21 -47q28 -32 117 -102q65 -52 182 -163q99 -95 148 -129q74 -52 140 -52h144v-272h-136q-75 0 -167 65q-75 53 -154 140q-42 46 -110 134q0 -167 -110 -250q-118 -89 -377 -89h-309 q-216 0 -311 74q-85 66 -85 205zM799 1592l54 96l133 -36l-57 -96zM841 1729l54 96l133 -36l-57 -96zM864 1294v154q34 34 119 92q99 67 210 127q137 74 272 128v-223q-215 -79 -372 -153q-144 -68 -229 -125zM1016 1680l54 96l133 -36l-57 -96z" />
<glyph unicode="&#x6b5;" horiz-adv-x="480" d="M-70 293v272h430l-121 679l-64 42q0 59 18 119q23 76 78 181l46 -24q0 -6 -4 -32q0 -33 42 -64q37 -28 118 -62q-9 -64 -26.5 -125t-39.5 -109l-36 14l109 -619v-272h-550zM24 1825h117l67 -120l67 120h117l-136 -230h-96z" />
<glyph unicode="&#x6b5;" horiz-adv-x="480" d="M-70 293v272h430l-121 679l-64 42q0 59 18 119q23 76 78 181l46 -24q0 -6 -4 -32q0 -33 42 -64q37 -28 118 -62q-9 -64 -26.5 -125t-39.5 -109l-36 14l109 -619v-272h-550zM24 1825h117l67 -120l67 120h117l-136 -230h-96z" />
<glyph unicode="&#x6b5;" horiz-adv-x="924" d="M35 254q0 145 36 253q41 122 160 299l62 -42q-78 -117 -111 -203t-33 -171q0 -91 67.5 -140.5t190.5 -49.5q176 0 286 68t110 178v30v17q0 39 -6.5 86t-33.5 194q-43 237 -86 475l-50 36q0 98 92 300l46 -22q-4 -14 -4 -32q0 -40 41 -65q61 -34 115 -65q-11 -86 -22 -123 t-46 -111l-30 12q0 -15 28.5 -170.5t48.5 -268.5q28 -162 28 -197v-224q0 -154 -160 -273t-365 -119q-171 0 -267.5 86.5t-96.5 241.5zM464 1825h117l67 -120l67 120h117l-136 -230h-96z" />
<glyph unicode="&#x6b6;" horiz-adv-x="480" d="M-79 1599l121 226l233 -124l-120 -224zM-70 293v272h430l-121 679l-64 42q0 59 18 119q23 76 78 181l46 -24q0 -6 -4 -32q0 -33 42 -64q37 -28 118 -62q-9 -64 -26.5 -125t-39.5 -109l-36 14l109 -619v-272h-550z" />
<glyph unicode="&#x6b6;" horiz-adv-x="480" d="M-79 1599l121 226l233 -124l-120 -224zM-70 293v272h430l-121 679l-64 42q0 59 18 119q23 76 78 181l46 -24q0 -6 -4 -32q0 -33 42 -64q37 -28 118 -62q-9 -64 -26.5 -125t-39.5 -109l-36 14l109 -619v-272h-550z" />
<glyph unicode="&#x6b6;" horiz-adv-x="924" d="M35 254q0 145 36 253q41 122 160 299l62 -42q-78 -117 -111 -203t-33 -171q0 -91 67.5 -140.5t190.5 -49.5q176 0 286 68t110 178v30v17q0 39 -6.5 86t-33.5 194q-43 237 -86 475l-50 36q0 98 92 300l46 -22q-4 -14 -4 -32q0 -40 41 -65q61 -34 115 -65q-11 -86 -22 -123 t-46 -111l-30 12q0 -15 28.5 -170.5t48.5 -268.5q28 -162 28 -197v-224q0 -154 -160 -273t-365 -119q-171 0 -267.5 86.5t-96.5 241.5zM361 1599l121 226l233 -124l-120 -224z" />
<glyph unicode="&#x6b7;" horiz-adv-x="480" d="M-70 293v272h430l-121 679l-64 42q0 59 18 119q23 76 78 181l46 -24q0 -6 -4 -32q0 -33 42 -64q37 -28 118 -62q-9 -64 -26.5 -125t-39.5 -109l-36 14l109 -619v-272h-550zM-1 1592l54 96l133 -36l-57 -96zM41 1729l54 96l133 -36l-57 -96zM216 1680l54 96l133 -36 l-57 -96z" />
<glyph unicode="&#x6b7;" horiz-adv-x="480" d="M-70 293v272h430l-121 679l-64 42q0 59 18 119q23 76 78 181l46 -24q0 -6 -4 -32q0 -33 42 -64q37 -28 118 -62q-9 -64 -26.5 -125t-39.5 -109l-36 14l109 -619v-272h-550zM-1 1592l54 96l133 -36l-57 -96zM41 1729l54 96l133 -36l-57 -96zM216 1680l54 96l133 -36 l-57 -96z" />
<glyph unicode="&#x6b7;" horiz-adv-x="924" d="M35 254q0 145 36 253q41 122 160 299l62 -42q-78 -117 -111 -203t-33 -171q0 -91 67.5 -140.5t190.5 -49.5q176 0 286 68t110 178v30v17q0 39 -6.5 86t-33.5 194q-43 237 -86 475l-50 36q0 98 92 300l46 -22q-4 -14 -4 -32q0 -40 41 -65q61 -34 115 -65q-11 -86 -22 -123 t-46 -111l-30 12q0 -15 28.5 -170.5t48.5 -268.5q28 -162 28 -197v-224q0 -154 -160 -273t-365 -119q-171 0 -267.5 86.5t-96.5 241.5zM479 1592l54 96l133 -36l-57 -96zM521 1729l54 96l133 -36l-57 -96zM696 1680l54 96l133 -36l-57 -96z" />
<glyph unicode="&#x6b8;" horiz-adv-x="480" d="M-70 293v272h430l-121 679l-64 42q0 59 18 119q23 76 78 181l46 -24q0 -6 -4 -32q0 -33 42 -64q37 -28 118 -62q-9 -64 -26.5 -125t-39.5 -109l-36 14l109 -619v-272h-550zM-23 -63l110 204l142 -80l80 158l186 -102l-104 -194l-148 74l-84 -162zM171 -300l100 208 l188 -100l-102 -204z" />
<glyph unicode="&#x6b8;" horiz-adv-x="480" d="M-70 293v272h430l-121 679l-64 42q0 59 18 119q23 76 78 181l46 -24q0 -6 -4 -32q0 -33 42 -64q37 -28 118 -62q-9 -64 -26.5 -125t-39.5 -109l-36 14l109 -619v-272h-550zM-23 -63l110 204l142 -80l80 158l186 -102l-104 -194l-148 74l-84 -162zM171 -300l100 208 l188 -100l-102 -204z" />
<glyph unicode="&#x6b8;" horiz-adv-x="924" d="M35 254q0 145 36 253q41 122 160 299l62 -42q-78 -117 -111 -203t-33 -171q0 -91 67.5 -140.5t190.5 -49.5q176 0 286 68t110 178v30v17q0 39 -6.5 86t-33.5 194q-43 237 -86 475l-50 36q0 98 92 300l46 -22q-4 -14 -4 -32q0 -40 41 -65q61 -34 115 -65q-11 -86 -22 -123 t-46 -111l-30 12q0 -15 28.5 -170.5t48.5 -268.5q28 -162 28 -197v-224q0 -154 -160 -273t-365 -119q-171 0 -267.5 86.5t-96.5 241.5zM326 -266l34 70l102 -29l-34 -70zM451 -315l34 70l102 -29l-34 -70zM485 -215l34 70l102 -29l-34 -70z" />
<glyph unicode="&#x6b9;" horiz-adv-x="556" d="M-70 293v272h526q-11 68 -40 115q-15 26 -70 90l80 238q75 -85 102.5 -178t27.5 -276v-261h-626zM101 -7l121 226l233 -124l-120 -224zM208 1280l121 226l233 -124l-120 -224z" />
<glyph unicode="&#x6b9;" horiz-adv-x="556" d="M-70 293v272h526q-11 68 -40 115q-15 26 -70 90l80 238q75 -85 102.5 -178t27.5 -276v-261h-626zM101 -7l121 226l233 -124l-120 -224zM208 1280l121 226l233 -124l-120 -224z" />
<glyph unicode="&#x6b9;" horiz-adv-x="1108" d="M62 210q0 139 42 254q46 127 180 330l60 -42q-99 -169 -129.5 -245t-30.5 -157q0 -105 112.5 -171.5t295.5 -66.5q180 0 303 69t123 169q0 62 -21.5 123t-92.5 195l88 270q70 -127 86 -175q30 -87 30 -221v-200q0 -138 -27 -221.5t-88.5 -134.5t-180 -83.5t-244.5 -32.5 q-243 0 -374.5 88.5t-131.5 251.5zM417 -312l121 226l233 -124l-120 -224zM425 1027l121 226l233 -124l-120 -224z" />
<glyph unicode="&#x6bc;" horiz-adv-x="556" d="M-70 293v272h526q-11 68 -40 115q-15 26 -70 90l80 238q75 -85 102.5 -178t27.5 -276v-261h-626zM144 178q0 77 40 136.5t99 59.5q54 0 91 -45t37 -105q0 -62 -46 -111t-113 -49q-54 0 -81 30t-27 84zM184 224q0 -35 33 -49q26 -11 75 -11q25 0 42 7t17 26q0 28 -39 62 t-66 34q-26 0 -44 -22.5t-18 -46.5zM208 1280l121 226l233 -124l-120 -224z" />
<glyph unicode="&#x6bc;" horiz-adv-x="556" d="M-70 293v272h526q-11 68 -40 115q-15 26 -70 90l80 238q75 -85 102.5 -178t27.5 -276v-261h-626zM144 178q0 77 40 136.5t99 59.5q54 0 91 -45t37 -105q0 -62 -46 -111t-113 -49q-54 0 -81 30t-27 84zM184 224q0 -35 33 -49q26 -11 75 -11q25 0 42 7t17 26q0 28 -39 62 t-66 34q-26 0 -44 -22.5t-18 -46.5zM208 1280l121 226l233 -124l-120 -224z" />
<glyph unicode="&#x6bc;" horiz-adv-x="1108" d="M62 210q0 139 42 254q46 127 180 330l60 -42q-99 -169 -129.5 -245t-30.5 -157q0 -105 112.5 -171.5t295.5 -66.5q180 0 303 69t123 169q0 62 -21.5 123t-92.5 195l88 270q70 -127 86 -175q30 -87 30 -221v-200q0 -138 -27 -221.5t-88.5 -134.5t-180 -83.5t-244.5 -32.5 q-243 0 -374.5 88.5t-131.5 251.5zM410 -245q0 77 40 136.5t99 59.5q54 0 91 -45t37 -105q0 -62 -46 -111t-113 -49q-54 0 -81 30t-27 84zM425 1027l121 226l233 -124l-120 -224zM450 -199q0 -35 33 -49q26 -11 75 -11q25 0 42 7t17 26q0 28 -39 62t-66 34q-26 0 -44 -22.5 t-18 -46.5z" />
<glyph unicode="&#x6bd;" horiz-adv-x="1108" d="M62 210q0 139 42 254q46 127 180 330l60 -42q-99 -169 -129.5 -245t-30.5 -157q0 -105 112.5 -171.5t295.5 -66.5q180 0 303 69t123 169q0 62 -21.5 123t-92.5 195l88 270q70 -127 86 -175q30 -87 30 -221v-200q0 -138 -27 -221.5t-88.5 -134.5t-180 -83.5t-244.5 -32.5 q-243 0 -374.5 88.5t-131.5 251.5zM332 1007l104 194l148 -74l84 162l182 -102l-110 -204l-142 80l-80 -158zM368 1316l102 204l186 -96l-100 -208z" />
<glyph unicode="&#x6bf;" horiz-adv-x="1072" d="M-70 293v272h711q-121 125 -224 180q-91 49 -178 49q-26 0 -47.5 -2.5t-62.5 -11.5q55 126 122.5 186t153.5 60q66 0 127 -32t137 -103q60 -56 170 -175q75 -84 114.5 -109t118.5 -42v-272h-1142zM247 -63l110 204l142 -80l80 158l186 -102l-104 -194l-148 74l-84 -162z M321 1256l121 226l233 -124l-120 -224zM441 -300l100 208l188 -100l-102 -204z" />
<glyph unicode="&#x6bf;" horiz-adv-x="1072" d="M-70 293v272h711q-121 125 -224 180q-91 49 -178 49q-26 0 -47.5 -2.5t-62.5 -11.5q55 126 122.5 186t153.5 60q66 0 127 -32t137 -103q60 -56 170 -175q75 -84 114.5 -109t118.5 -42v-272h-1142zM247 -63l110 204l142 -80l80 158l186 -102l-104 -194l-148 74l-84 -162z M321 1256l121 226l233 -124l-120 -224zM441 -300l100 208l188 -100l-102 -204z" />
<glyph unicode="&#x6bf;" horiz-adv-x="1144" d="M48 708q45 372 364 372q37 0 141 -11.5t185 -17.5q152 -11 298 -11l-60 -242q-59 0 -101 -7q-56 -12 -101 -21q-3 -19 -5.5 -43t-2.5 -37q0 -71 47 -98t174 -27h157v-272h-156q-176 0 -240 51t-64 192q0 63 8 121q3 20 16 95q-228 -53 -368 -183q-144 -134 -144 -305 q0 -200 171.5 -308t494.5 -108q95 0 272 18l18 -32l-380 -244l-96 -2q-293 0 -451.5 148.5t-158.5 423.5q0 209 95.5 387.5t244.5 258.5h-22q-93 0 -153.5 -17.5t-182.5 -80.5zM246 228l93 173l121 -68l68 135l158 -87l-88 -165l-126 63l-72 -138zM358 1301l121 226 l233 -124l-120 -224zM411 27l85 176l159 -85l-86 -173z" />
<glyph unicode="&#x6c4;" horiz-adv-x="924" d="M6 116l42 58q108 -72 177 -96q57 -20 129 -20q97 0 192 54q112 64 232 206q-42 -6 -70 -6q-99 0 -157.5 64.5t-58.5 175.5q0 150 69 289q75 151 171 151q80 0 136 -109t56 -263v-258q0 -172 -146 -340t-288 -168q-83 0 -181.5 53t-302.5 209zM340 112q0 77 40 136.5 t99 59.5q54 0 91 -45t37 -105q0 -62 -46 -111t-113 -49q-54 0 -81 30t-27 84zM380 158q0 -35 33 -49q26 -11 75 -11q25 0 42 7t17 26q0 28 -39 62t-66 34q-26 0 -44 -22.5t-18 -46.5zM622 648q0 -36 39.5 -59.5t104.5 -23.5h38q-28 161 -114 161q-31 0 -49.5 -24.5 t-18.5 -53.5z" />
<glyph unicode="&#x6ca;" horiz-adv-x="924" d="M6 116l42 58q108 -72 177 -96q57 -20 129 -20q97 0 192 54q112 64 232 206q-42 -6 -70 -6q-99 0 -157.5 64.5t-58.5 175.5q0 150 69 289q75 151 171 151q80 0 136 -109t56 -263v-258q0 -172 -146 -340t-288 -168q-83 0 -181.5 53t-302.5 209zM382 1149l110 204l142 -80 l80 158l186 -102l-104 -194l-148 74l-84 -162zM622 648q0 -36 39.5 -59.5t104.5 -23.5h38q-28 161 -114 161q-31 0 -49.5 -24.5t-18.5 -53.5z" />
<glyph unicode="&#x6cd;" horiz-adv-x="1135" d="M-39 341v61l288 150l43 -16q-164 -279 -164 -442q0 -97 64 -149q59 -49 158 -49q126 0 273 39q132 35 226.5 84.5t94.5 81.5q0 14 -156 14h-97q-71 8 -71 45q0 127 65 205t152 134q102 66 186 66h112v-272h-85q-82 0 -82 -23q0 -8 49 -27.5t49 -56.5q0 -57 -16 -132 t-45.5 -138.5t-166.5 -135.5q-101 -54 -202 -86q-156 -50 -298 -50q-328 0 -328 294q0 274 167 513z" />
<glyph unicode="&#x6ce;" horiz-adv-x="556" d="M-70 293v272h526q-11 68 -40 115q-15 26 -70 90l80 238q75 -85 102.5 -178t27.5 -276v-261h-626zM22 -63l104 194l148 -74l84 162l182 -102l-110 -204l-142 80l-80 -158zM184 1365h117l67 -120l67 120h117l-136 -230h-96z" />
<glyph unicode="&#x6ce;" horiz-adv-x="556" d="M-70 293v272h526q-11 68 -40 115q-15 26 -70 90l80 238q75 -85 102.5 -178t27.5 -276v-261h-626zM22 -63l104 194l148 -74l84 162l182 -102l-110 -204l-142 80l-80 -158zM184 1365h117l67 -120l67 120h117l-136 -230h-96z" />
<glyph unicode="&#x6ce;" horiz-adv-x="1135" d="M10 -62q0 158 38 274q46 140 188 366l56 -42q-94 -160 -129 -255t-35 -187t59 -145t163 -53q127 0 273 39q132 35 226.5 84.5t94.5 81.5q0 10 -56 12t-100 2q-106 0 -137 8t-31 37q0 54 19.5 114t46.5 92q66 80 156 136q101 63 181 63h112v-272h-85q-37 0 -59.5 -6 t-22.5 -17q0 -6 49 -25t49 -59q0 -55 -16.5 -132.5t-45.5 -139.5q-22 -48 -123 -110q-108 -66 -245 -110q-157 -50 -298 -50q-162 0 -245 75t-83 219zM344 869h117l67 -120l67 120h117l-136 -230h-96z" />
<glyph unicode="&#x6cf;" horiz-adv-x="924" d="M6 116l42 58q108 -72 177 -96q57 -20 129 -20q97 0 192 54q112 64 232 206q-42 -6 -70 -6q-99 0 -157.5 64.5t-58.5 175.5q0 150 69 289q75 151 171 151q80 0 136 -109t56 -263v-258q0 -172 -146 -340t-288 -168q-83 0 -181.5 53t-302.5 209zM441 1257l121 226l233 -124 l-120 -224zM622 648q0 -36 39.5 -59.5t104.5 -23.5h38q-28 161 -114 161q-31 0 -49.5 -24.5t-18.5 -53.5z" />
<glyph unicode="&#x6d1;" horiz-adv-x="1135" d="M10 28q0 159 70 305q44 91 156 245l56 -42q-164 -233 -164 -362q0 -72 64 -116q61 -42 158 -42q594 0 594 85q0 14 -156 14h-97q-71 8 -71 45q0 127 65 205t152 134q102 66 186 66h112v-272h-85q-82 0 -82 -23q0 -2 49 -24.5t49 -59.5q0 -57 -16 -132q-17 -81 -46 -140 q-73 -150 -666 -150q-160 0 -238 54q-90 62 -90 210zM390 -356l34 70l102 -29l-34 -70zM515 -405l34 70l102 -29l-34 -70zM549 -305l34 70l102 -29l-34 -70z" />
<glyph unicode="&#x6fa;" horiz-adv-x="1246" d="M-70 293v272h143q105 0 175 59q91 77 91 234l66 -10q-2 -32 -4 -73t-2 -91q0 -51 35 -85t80 -34h123q122 0 174 34q63 41 63 153q0 24 15 43q9 11 37 33l38 30q2 -19 3 -51.5t1 -42.5q0 -55 -16 -146q37 -18 83 -31t97 -20q0 34 -25 88t-25 73q0 26 7 40q2 5 22 31 l85 115q27 -63 38.5 -114.5t11.5 -128.5v-378q-112 0 -186 16t-146 51q-58 -41 -103.5 -54t-136.5 -13h-163q-67 0 -106 35t-70 116q-55 -84 -123 -120q-58 -31 -139 -31h-143zM612 1072l104 194l148 -74l84 162l182 -102l-110 -204l-142 80l-87 -158zM648 1381l102 204 l186 -96l-100 -208zM701 -7l121 226l233 -124l-120 -224z" />
<glyph unicode="&#x6fa;" horiz-adv-x="1246" d="M-70 293v272h143q105 0 175 59q91 77 91 234l66 -10q-2 -32 -4 -73t-2 -91q0 -51 35 -85t80 -34h123q122 0 174 34q63 41 63 153q0 24 15 43q9 11 37 33l38 30q2 -19 3 -51.5t1 -42.5q0 -55 -16 -146q37 -18 83 -31t97 -20q0 34 -25 88t-25 73q0 26 7 40q2 5 22 31 l85 115q27 -63 38.5 -114.5t11.5 -128.5v-378q-112 0 -186 16t-146 51q-58 -41 -103.5 -54t-136.5 -13h-163q-67 0 -106 35t-70 116q-55 -84 -123 -120q-58 -31 -139 -31h-143zM612 1072l104 194l148 -74l84 162l182 -102l-110 -204l-142 80l-87 -158zM648 1381l102 204 l186 -96l-100 -208zM701 -7l121 226l233 -124l-120 -224z" />
<glyph unicode="&#x6fa;" horiz-adv-x="1842" d="M64 210q0 139 42 254q46 127 180 330l60 -42q-99 -169 -129.5 -245t-30.5 -157q0 -105 112.5 -171.5t295.5 -66.5q180 0 303 69t123 169q0 62 -21.5 123t-92.5 195l88 270q71 -120 94 -198q20 -68 20 -175h92q151 0 210.5 35.5t59.5 127.5q0 40 7.5 58.5t35.5 38.5l47 33 q2 -19 3 -51.5t1 -42.5q0 -55 -16 -146q46 -15 92.5 -27.5t87.5 -18.5q0 36 -25 88t-25 68q0 12 3.5 23t16.5 29l94 134q27 -63 38.5 -114.5t11.5 -128.5v-377q-110 0 -157 10t-175 56q-58 -41 -103.5 -54t-136.5 -13h-163q0 -232 -148 -334q-129 -89 -389 -89 q-243 0 -374.5 88.5t-131.5 251.5zM1242 1072l104 194l148 -74l84 162l182 -102l-110 -204l-142 80l-80 -158zM1278 1381l102 204l186 -96l-100 -208zM1301 -7l121 226l233 -124l-120 -224z" />
<glyph unicode="&#x6fb;" horiz-adv-x="1580" d="M-70 293v272l143 1q116 0 176 58q70 68 90 234l68 -10q-3 -36 -4 -58q-4 -66 -4 -106q0 -57 30 -88t79 -31t90.5 20t130.5 83l358 256q63 45 95 64q73 44 141 44q112 0 179 -79q78 -92 78 -277v-383h-1059q-71 0 -113.5 35.5t-72.5 115.5q-64 -89 -122 -121 q-53 -29 -140 -29zM728 1265l121 226l233 -124l-120 -224zM849 565h262q329 0 329 102q0 45 -71 73q-59 23 -132 23q-66 0 -148.5 -42.5t-239.5 -155.5zM868 -7l121 226l233 -124l-120 -224z" />
<glyph unicode="&#x6fb;" horiz-adv-x="1580" d="M-70 293v272l143 1q116 0 176 58q70 68 90 234l68 -10q-3 -36 -4 -58q-4 -66 -4 -106q0 -57 30 -88t79 -31t90.5 20t130.5 83l358 256q63 45 95 64q73 44 141 44q112 0 179 -79q78 -92 78 -277v-383h-1059q-71 0 -113.5 35.5t-72.5 115.5q-64 -89 -122 -121 q-53 -29 -140 -29zM728 1265l121 226l233 -124l-120 -224zM849 565h262q329 0 329 102q0 45 -71 73q-59 23 -132 23q-66 0 -148.5 -42.5t-239.5 -155.5zM868 -7l121 226l233 -124l-120 -224z" />
<glyph unicode="&#x6fb;" horiz-adv-x="2176" d="M64 210q0 139 42 254q46 127 180 330l60 -42q-99 -169 -129.5 -245t-30.5 -157q0 -105 112.5 -171.5t295.5 -66.5q180 0 303 69t123 169q0 62 -21.5 123t-92.5 195l88 270q55 -106 62 -122q29 -61 40.5 -114t11.5 -137q65 0 118 33q6 4 99 70l358 256q84 59 126 80 q58 28 117 28q112 0 176 -79q74 -91 74 -277v-383h-1069q0 -233 -148 -335q-128 -88 -389 -88q-243 0 -374.5 88.5t-131.5 251.5zM1304 1265l121 226l233 -124l-120 -224zM1445 565h262q337 0 337 102q0 38 -62 67t-149 29q-66 0 -148.5 -42.5t-239.5 -155.5zM1465 -7 l121 226l233 -124l-120 -224z" />
<glyph unicode="&#x6fc;" horiz-adv-x="1108" d="M-70 293v272h108q29 0 43 1q30 4 59 6q-50 75 -67 121.5t-17 104.5q0 149 123.5 260.5t288.5 111.5q111 0 212 -73q93 -68 136 -165l-42 -36q-79 30 -125.5 39t-114.5 9q-124 0 -215 -20q-115 -25 -115 -72q0 -69 278 -228l508 146l-112 -284q-269 -83 -445 -128 q-153 -39 -258 -54q-77 -11 -155 -11h-90zM229 1412l127 226l227 -124l-120 -224zM401 -7l121 226l233 -124l-120 -224z" />
<glyph unicode="&#x6fc;" horiz-adv-x="738" d="M-70 293v272h105q83 0 116.5 8.5t90.5 38.5q-30 59 -52 85q-27 31 -56 31q-11 0 -20.5 -7.5t-21.5 -28.5l-44 6q0 181 62.5 258.5t197.5 77.5q139 0 218.5 -54.5t79.5 -149.5q0 -51 -21 -97.5t-79 -126.5q14 -19 38 -30t46 -11h148v-272h-148q-79 0 -139 32t-97 103 q-65 -80 -169 -113q-69 -22 -150 -22h-105zM127 1322l122 226l232 -124l-120 -224zM201 -7l121 226l233 -124l-120 -224z" />
<glyph unicode="&#x6fc;" horiz-adv-x="960" d="M70 100q0 182 70 329t220 279q-12 74 -54 74q-16 0 -25 -9q-12 -15 -23 -27l-48 10q0 139 62 230q70 102 196 102q112 0 185 -62t73 -160q0 -59 -30 -112q-33 -58 -90 -86q50 -58 122 -85q49 -18 92 -18h140v-272h-140q-143 0 -229 56q-96 62 -173 221 q-112 -74 -173 -169.5t-61 -194.5q0 -177 156.5 -262.5t493.5 -85.5q52 0 110 1t106 3l6 -44l-368 -224q-325 0 -471.5 122.5t-146.5 383.5zM293 1331l122 226l232 -124l-120 -224zM391 63l121 226l233 -124l-120 -224z" />
<glyph unicode="&#x671;" horiz-adv-x="480" arabic-form="final" d="M-65 1599q0 66 76 66h24q118 159 234 159q82 0 82 -100q0 -53 -48 -97q-52 -48 -124 -48h-167q-31 0 -31 -45q0 -5 2 -18q1 -12 0 -18q-48 49 -48 101zM26 1257l108 250q58 -80 81 -158q27 -91 27 -232v-197q0 -209 28 -290q22 -65 70 -65h140v-272h-140q-117 0 -169 96 q-58 106 -58 357v285q0 97 -27 151q-13 26 -60 75zM89 1665h82q90 0 90 60q0 38 -32 38q-55 0 -140 -98z" />
<glyph unicode="&#x67b;" horiz-adv-x="1330" arabic-form="final" d="M57 624q0 41 4 73.5t16 76.5q17 65 38 109t74 119l56 -40q-43 -79 -58.5 -125t-15.5 -91q0 -57 36.5 -102.5t95.5 -59.5q35 -9 91.5 -14t118.5 -5h723q-28 76 -46 108q-21 38 -68 97l90 232q75 -107 98 -196q20 -78 20 -230v-283h-839q-121 0 -160.5 4t-85.5 21 q-82 28 -135 114t-53 192zM567 15l102 204l186 -96l-100 -208zM700 -250l102 204l186 -96l-100 -208z" />
<glyph unicode="&#x67b;" horiz-adv-x="556" arabic-form="initial" d="M-70 293v272h526q-11 68 -40 115q-15 26 -70 90l80 238q75 -85 102.5 -178t27.5 -276v-261h-626zM67 15l102 204l186 -96l-100 -208zM200 -250l102 204l186 -96l-100 -208z" />
<glyph unicode="&#x67b;" horiz-adv-x="556" arabic-form="medial" d="M-70 293v272h526q-11 68 -40 115q-15 26 -70 90l80 238q75 -85 102.5 -178t27.5 -276v-261h-626zM67 15l102 204l186 -96l-100 -208zM200 -250l102 204l186 -96l-100 -208z" />
<glyph unicode="&#x67e;" horiz-adv-x="1330" arabic-form="final" d="M57 624q0 41 4 73.5t16 76.5q17 65 38 109t74 119l56 -40q-43 -79 -58.5 -125t-15.5 -91q0 -57 36.5 -102.5t95.5 -59.5q35 -9 91.5 -14t118.5 -5h723q-28 76 -46 108q-21 38 -68 97l90 232q75 -107 98 -196q20 -78 20 -230v-283h-839q-121 0 -160.5 4t-85.5 21 q-82 28 -135 114t-53 192zM466 -63l110 204l142 -80l80 158l186 -102l-104 -194l-148 74l-84 -162zM660 -300l100 208l188 -100l-102 -204z" />
<glyph unicode="&#x67e;" horiz-adv-x="556" arabic-form="initial" d="M-70 293v272h526q-11 68 -40 115q-15 26 -70 90l80 238q75 -85 102.5 -178t27.5 -276v-261h-626zM22 -63l110 204l142 -80l80 158l186 -102l-104 -194l-148 74l-84 -162zM216 -300l100 208l188 -100l-102 -204z" />
<glyph unicode="&#x67e;" horiz-adv-x="556" arabic-form="medial" d="M-70 293v272h526q-11 68 -40 115q-15 26 -70 90l80 238q75 -85 102.5 -178t27.5 -276v-261h-626zM22 -63l110 204l142 -80l80 158l186 -102l-104 -194l-148 74l-84 -162zM216 -300l100 208l188 -100l-102 -204z" />
<glyph unicode="&#x680;" horiz-adv-x="1330" arabic-form="final" d="M57 624q0 41 4 73.5t16 76.5q17 65 38 109t74 119l56 -40q-43 -79 -58.5 -125t-15.5 -91q0 -57 36.5 -102.5t95.5 -59.5q35 -9 91.5 -14t118.5 -5h723q-28 76 -46 108q-21 38 -68 97l90 232q75 -107 98 -196q20 -78 20 -230v-283h-839q-121 0 -160.5 4t-85.5 21 q-82 28 -135 114t-53 192zM414 -63l110 204l142 -80l80 158l186 -102l-104 -194l-148 74l-84 -162zM547 -328l110 204l142 -80l80 158l186 -102l-104 -194l-148 74l-84 -162z" />
<glyph unicode="&#x680;" horiz-adv-x="556" arabic-form="initial" d="M-70 293v272h526q-11 68 -40 115q-15 26 -70 90l80 238q75 -85 102.5 -178t27.5 -276v-261h-626zM-46 -63l110 204l142 -80l80 158l186 -102l-104 -194l-148 74l-84 -162zM87 -328l110 204l142 -80l80 158l186 -102l-104 -194l-148 74l-84 -162z" />
<glyph unicode="&#x680;" horiz-adv-x="556" arabic-form="medial" d="M-70 293v272h526q-11 68 -40 115q-15 26 -70 90l80 238q75 -85 102.5 -178t27.5 -276v-261h-626zM-46 -63l110 204l142 -80l80 158l186 -102l-104 -194l-148 74l-84 -162zM87 -328l110 204l142 -80l80 158l186 -102l-104 -194l-148 74l-84 -162z" />
<glyph unicode="&#x67a;" horiz-adv-x="1330" arabic-form="final" d="M57 624q0 41 4 73.5t16 76.5q17 65 38 109t74 119l56 -40q-43 -79 -58.5 -125t-15.5 -91q0 -57 36.5 -102.5t95.5 -59.5q35 -9 91.5 -14t118.5 -5h723q-28 76 -46 108q-21 38 -68 97l90 232q75 -107 98 -196q20 -78 20 -230v-283h-839q-121 0 -160.5 4t-85.5 21 q-82 28 -135 114t-53 192zM467 1365l102 204l186 -96l-100 -208zM600 1100l102 204l186 -96l-100 -208z" />
<glyph unicode="&#x67a;" horiz-adv-x="556" arabic-form="initial" d="M-70 293v272h526q-11 68 -40 115q-15 26 -70 90l80 238q75 -85 102.5 -178t27.5 -276v-261h-626zM27 1491l102 204l186 -96l-100 -208zM160 1226l102 204l186 -96l-100 -208z" />
<glyph unicode="&#x67a;" horiz-adv-x="556" arabic-form="medial" d="M-70 293v272h526q-11 68 -40 115q-15 26 -70 90l80 238q75 -85 102.5 -178t27.5 -276v-261h-626zM27 1491l102 204l186 -96l-100 -208zM160 1226l102 204l186 -96l-100 -208z" />
<glyph unicode="&#x67f;" horiz-adv-x="1330" arabic-form="final" d="M57 624q0 41 4 73.5t16 76.5q17 65 38 109t74 119l56 -40q-43 -79 -58.5 -125t-15.5 -91q0 -57 36.5 -102.5t95.5 -59.5q35 -9 91.5 -14t118.5 -5h723q-28 76 -46 108q-21 38 -68 97l90 232q75 -107 98 -196q20 -78 20 -230v-283h-839q-121 0 -160.5 4t-85.5 21 q-82 28 -135 114t-53 192zM354 1321l110 204l142 -80l80 158l186 -102l-104 -194l-148 74l-84 -162zM487 1056l110 204l142 -80l80 158l186 -102l-104 -194l-148 74l-84 -162z" />
<glyph unicode="&#x67f;" horiz-adv-x="556" arabic-form="initial" d="M-70 293v272h526q-11 68 -40 115q-15 26 -70 90l80 238q75 -85 102.5 -178t27.5 -276v-261h-626zM-46 1447l110 204l142 -80l80 158l186 -102l-104 -194l-148 74l-84 -162zM87 1182l110 204l142 -80l80 158l186 -102l-104 -194l-148 74l-84 -162z" />
<glyph unicode="&#x67f;" horiz-adv-x="556" arabic-form="medial" d="M-70 293v272h526q-11 68 -40 115q-15 26 -70 90l80 238q75 -85 102.5 -178t27.5 -276v-261h-626zM-46 1447l110 204l142 -80l80 158l186 -102l-104 -194l-148 74l-84 -162zM87 1182l110 204l142 -80l80 158l186 -102l-104 -194l-148 74l-84 -162z" />
<glyph unicode="&#x679;" horiz-adv-x="1330" arabic-form="final" d="M57 624q0 41 4 73.5t16 76.5q17 65 38 109t74 119l56 -40q-43 -79 -58.5 -125t-15.5 -91q0 -57 36.5 -102.5t95.5 -59.5q35 -9 91.5 -14t118.5 -5h723q-28 76 -46 108q-21 38 -68 97l90 232q75 -107 98 -196q20 -78 20 -230v-283h-839q-121 0 -160.5 4t-85.5 21 q-82 28 -135 114t-53 192zM421 1062v130h64q12 0 64 39q22 16 51 40q0 101 -18 183l-26 104l-28 17q15 70 46 140l22 -9q-2 -6 -2 -12q0 -17 47 -40q11 -5 47 -19q-5 -39 -15 -70q-5 -14 -19 -50l-17 6q25 -115 25 -157v-6q0 -21 -5 -46q39 29 119 80q40 22 61 22 q128 0 128 -124v-228h-544zM617 1192h125q157 0 157 48q0 28 -36 39q-21 7 -61 7q-60 0 -185 -94z" />
<glyph unicode="&#x679;" horiz-adv-x="556" arabic-form="initial" d="M-70 293v272h526q-11 68 -40 115q-15 26 -70 90l80 238q75 -85 102.5 -178t27.5 -276v-261h-626zM12 1062v130h64q12 0 64 39q22 16 51 40q0 101 -18 183l-26 104l-28 17q15 70 46 140l22 -9q-2 -6 -2 -12q0 -17 47 -40q11 -5 47 -19q-5 -39 -15 -70q-5 -14 -19 -50 l-17 6q25 -115 25 -157v-6q0 -21 -5 -46q39 29 119 80q40 22 61 22q128 0 128 -124v-228h-544zM208 1192h125q157 0 157 48q0 28 -36 39q-21 7 -61 7q-60 0 -185 -94z" />
<glyph unicode="&#x679;" horiz-adv-x="556" arabic-form="medial" d="M-70 293v272h526q-11 68 -40 115q-15 26 -70 90l80 238q75 -85 102.5 -178t27.5 -276v-261h-626zM12 1062v130h64q12 0 64 39q22 16 51 40q0 101 -18 183l-26 104l-28 17q15 70 46 140l22 -9q-2 -6 -2 -12q0 -17 47 -40q11 -5 47 -19q-5 -39 -15 -70q-5 -14 -19 -50 l-17 6q25 -115 25 -157v-6q0 -21 -5 -46q39 29 119 80q40 22 61 22q128 0 128 -124v-228h-544zM208 1192h125q157 0 157 48q0 28 -36 39q-21 7 -61 7q-60 0 -185 -94z" />
<glyph unicode="&#x6a4;" horiz-adv-x="1552" arabic-form="final" d="M47 552q0 114 22 199t102 275l66 -30q-72 -171 -72 -250q0 -103 81 -148q90 -50 311 -50q153 9 298 15.5t278 6.5q-41 20 -56.5 44.5t-15.5 71.5q0 143 87 285q94 153 207 153q106 0 154 -148q43 -134 43 -411v-272h-134q-175 0 -397 -8q-134 -5 -348 -15t-230 -10 q-213 0 -308 75q-88 70 -88 217zM982 1272l104 194l148 -74l84 162l182 -102l-110 -204l-142 80l-80 -158zM1018 1581l102 204l186 -96l-100 -208zM1230 800q0 -31 43 -58t123 -50q-35 98 -58 129t-60 31q-19 0 -33.5 -14.5t-14.5 -37.5z" />
<glyph unicode="&#x6a4;" horiz-adv-x="624" arabic-form="initial" d="M-70 293v272h600q0 87 -5 124q-8 57 -33 99q-32 -62 -86 -95t-115 -33q-80 0 -135 53t-55 133q0 118 72 280q79 178 160 178q105 0 198 -183t93 -387v-441h-694zM59 1427l54 96l133 -36l-57 -96zM101 1564l54 96l133 -36l-57 -96zM237 960q0 -23 18.5 -38.5t47.5 -15.5 q23 0 46.5 13.5t57.5 46.5q-27 47 -47.5 65.5t-44.5 18.5q-30 0 -54 -27t-24 -63zM276 1515l54 96l133 -36l-57 -96z" />
<glyph unicode="&#x6a4;" horiz-adv-x="664" arabic-form="medial" d="M-70 293v272h180q46 0 87 -4q110 -12 251 -27q-149 33 -208.5 87.5t-59.5 158.5q0 155 71.5 279.5t160.5 124.5q101 0 176.5 -174.5t75.5 -421.5v-295h-734zM22 1312l104 194l148 -74l84 162l182 -102l-110 -204l-142 80l-80 -158zM58 1621l102 204l186 -96l-100 -208z M310 846q0 -43 64.5 -83.5t153.5 -54.5q-36 86 -80 134t-88 48q-20 0 -35 -13t-15 -31z" />
<glyph unicode="&#x6a6;" horiz-adv-x="1552" arabic-form="final" d="M47 552q0 114 22 199t102 275l66 -30q-72 -171 -72 -250q0 -103 81 -148q90 -50 311 -50q153 9 298 15.5t278 6.5q-41 20 -56.5 44.5t-15.5 71.5q0 143 87 285q94 153 207 153q106 0 154 -148q43 -134 43 -411v-272h-134q-175 0 -397 -8q-134 -5 -348 -15t-230 -10 q-213 0 -308 75q-88 70 -88 217zM854 1527l110 204l142 -80l80 158l186 -102l-104 -194l-148 74l-84 -162zM987 1262l110 204l142 -80l80 158l186 -102l-104 -194l-148 74l-84 -162zM1230 800q0 -31 43 -58t123 -50q-35 98 -58 129t-60 31q-19 0 -33.5 -14.5t-14.5 -37.5z " />
<glyph unicode="&#x6a6;" horiz-adv-x="624" arabic-form="initial" d="M-70 293v272h600q0 87 -5 124q-8 57 -33 99q-32 -62 -86 -95t-115 -33q-80 0 -135 53t-55 133q0 118 72 280q79 178 160 178q105 0 198 -183t93 -387v-441h-694zM-3 1574l56 105l142 -44l-54 -105zM97 1384l56 105l142 -44l-54 -105zM206 1665l56 105l142 -44l-54 -105z M237 960q0 -23 18.5 -38.5t47.5 -15.5q23 0 46.5 13.5t57.5 46.5q-27 47 -47.5 65.5t-44.5 18.5q-30 0 -54 -27t-24 -63zM306 1475l56 105l142 -44l-54 -105z" />
<glyph unicode="&#x6a6;" horiz-adv-x="664" arabic-form="medial" d="M-70 293v272h180q46 0 87 -4q110 -12 251 -27q-149 33 -208.5 87.5t-59.5 158.5q0 155 71.5 279.5t160.5 124.5q101 0 176.5 -174.5t75.5 -421.5v-295h-734zM-20 1543l110 204l142 -80l80 158l186 -102l-104 -194l-148 74l-84 -162zM113 1278l110 204l142 -80l80 158 l186 -102l-104 -194l-148 74l-84 -162zM310 846q0 -43 64.5 -83.5t153.5 -54.5q-36 86 -80 134t-88 48q-20 0 -35 -13t-15 -31z" />
<glyph unicode="&#x684;" horiz-adv-x="1144" arabic-form="final" d="M48 708q45 372 364 372q37 0 141 -11.5t185 -17.5q152 -11 298 -11l-60 -242q-59 0 -101 -7q-56 -12 -101 -21q-3 -19 -5.5 -43t-2.5 -37q0 -71 47 -98t174 -27h157v-272h-156q-176 0 -240 51t-64 192q0 63 8 121q3 20 16 95q-228 -53 -368 -183q-144 -134 -144 -305 q0 -200 171.5 -308t494.5 -108q95 0 272 18l18 -32l-380 -244l-96 -2q-293 0 -451.5 148.5t-158.5 423.5q0 209 95.5 387.5t244.5 258.5h-22q-93 0 -153.5 -17.5t-182.5 -80.5zM317 325l102 204l186 -96l-100 -208zM450 60l102 204l186 -96l-100 -208z" />
<glyph unicode="&#x684;" horiz-adv-x="1072" arabic-form="initial" d="M-70 293v272h711q-121 125 -224 180q-91 49 -178 49q-26 0 -47.5 -2.5t-62.5 -11.5q55 126 122.5 186t153.5 60q66 0 127 -32t137 -103q60 -56 170 -175q75 -84 114.5 -109t118.5 -42v-272h-1142zM327 15l102 204l186 -96l-100 -208zM460 -250l102 204l186 -96l-100 -208 z" />
<glyph unicode="&#x684;" horiz-adv-x="1072" arabic-form="medial" d="M-70 293v272h711q-121 125 -224 180q-91 49 -178 49q-26 0 -47.5 -2.5t-62.5 -11.5q55 126 122.5 186t153.5 60q66 0 127 -32t137 -103q60 -56 170 -175q75 -84 114.5 -109t118.5 -42v-272h-1142zM327 15l102 204l186 -96l-100 -208zM460 -250l102 204l186 -96l-100 -208 z" />
<glyph unicode="&#x683;" horiz-adv-x="1144" arabic-form="final" d="M48 708q45 372 364 372q37 0 141 -11.5t185 -17.5q152 -11 298 -11l-60 -242q-59 0 -101 -7q-56 -12 -101 -21q-3 -19 -5.5 -43t-2.5 -37q0 -71 47 -98t174 -27h157v-272h-156q-176 0 -240 51t-64 192q0 63 8 121q3 20 16 95q-228 -53 -368 -183q-144 -134 -144 -305 q0 -200 171.5 -308t494.5 -108q95 0 272 18l18 -32l-380 -244l-96 -2q-293 0 -451.5 148.5t-158.5 423.5q0 209 95.5 387.5t244.5 258.5h-22q-93 0 -153.5 -17.5t-182.5 -80.5zM262 97l110 204l142 -80l80 158l186 -102l-104 -194l-148 74l-84 -162z" />
<glyph unicode="&#x683;" horiz-adv-x="1072" arabic-form="initial" d="M-70 293v272h711q-121 125 -224 180q-91 49 -178 49q-26 0 -47.5 -2.5t-62.5 -11.5q55 126 122.5 186t153.5 60q66 0 127 -32t137 -103q60 -56 170 -175q75 -84 114.5 -109t118.5 -42v-272h-1142zM282 -63l110 204l142 -80l80 158l186 -102l-104 -194l-148 74l-84 -162z " />
<glyph unicode="&#x683;" horiz-adv-x="1072" arabic-form="medial" d="M-70 293v272h711q-121 125 -224 180q-91 49 -178 49q-26 0 -47.5 -2.5t-62.5 -11.5q55 126 122.5 186t153.5 60q66 0 127 -32t137 -103q60 -56 170 -175q75 -84 114.5 -109t118.5 -42v-272h-1142zM282 -63l110 204l142 -80l80 158l186 -102l-104 -194l-148 74l-84 -162z " />
<glyph unicode="&#x686;" horiz-adv-x="1144" arabic-form="final" d="M48 708q45 372 364 372q37 0 141 -11.5t185 -17.5q152 -11 298 -11l-60 -242q-59 0 -101 -7q-56 -12 -101 -21q-3 -19 -5.5 -43t-2.5 -37q0 -71 47 -98t174 -27h157v-272h-156q-176 0 -240 51t-64 192q0 63 8 121q3 20 16 95q-228 -53 -368 -183q-144 -134 -144 -305 q0 -200 171.5 -308t494.5 -108q95 0 272 18l18 -32l-380 -244l-96 -2q-293 0 -451.5 148.5t-158.5 423.5q0 209 95.5 387.5t244.5 258.5h-22q-93 0 -153.5 -17.5t-182.5 -80.5zM246 228l93 173l121 -68l68 135l158 -87l-88 -165l-126 63l-72 -138zM411 27l85 176l159 -85 l-86 -173z" />
<glyph unicode="&#x686;" horiz-adv-x="1072" arabic-form="initial" d="M-70 293v272h711q-121 125 -224 180q-91 49 -178 49q-26 0 -47.5 -2.5t-62.5 -11.5q55 126 122.5 186t153.5 60q66 0 127 -32t137 -103q60 -56 170 -175q75 -84 114.5 -109t118.5 -42v-272h-1142zM247 -63l110 204l142 -80l80 158l186 -102l-104 -194l-148 74l-84 -162z M441 -300l100 208l188 -100l-102 -204z" />
<glyph unicode="&#x686;" horiz-adv-x="1072" arabic-form="medial" d="M-70 293v272h711q-121 125 -224 180q-91 49 -178 49q-26 0 -47.5 -2.5t-62.5 -11.5q55 126 122.5 186t153.5 60q66 0 127 -32t137 -103q60 -56 170 -175q75 -84 114.5 -109t118.5 -42v-272h-1142zM247 -63l110 204l142 -80l80 158l186 -102l-104 -194l-148 74l-84 -162z M441 -300l100 208l188 -100l-102 -204z" />
<glyph unicode="&#x687;" horiz-adv-x="1144" arabic-form="final" d="M48 708q45 372 364 372q37 0 141 -11.5t185 -17.5q152 -11 298 -11l-60 -242q-59 0 -101 -7q-56 -12 -101 -21q-3 -19 -5.5 -43t-2.5 -37q0 -71 47 -98t174 -27h157v-272h-156q-176 0 -240 51t-64 192q0 63 8 121q3 20 16 95q-228 -53 -368 -183q-144 -134 -144 -305 q0 -200 171.5 -308t494.5 -108q95 0 272 18l18 -32l-380 -244l-96 -2q-293 0 -451.5 148.5t-158.5 423.5q0 209 95.5 387.5t244.5 258.5h-22q-93 0 -153.5 -17.5t-182.5 -80.5zM247 234l56 105l142 -44l-54 -105zM347 44l56 105l142 -44l-54 -105zM456 325l56 105l142 -44 l-54 -105zM556 135l56 105l142 -44l-54 -105z" />
<glyph unicode="&#x687;" horiz-adv-x="1072" arabic-form="initial" d="M-70 293v272h711q-121 125 -224 180q-91 49 -178 49q-26 0 -47.5 -2.5t-62.5 -11.5q55 126 122.5 186t153.5 60q66 0 127 -32t137 -103q60 -56 170 -175q75 -84 114.5 -109t118.5 -42v-272h-1142zM234 -63l110 204l142 -80l80 158l186 -102l-104 -194l-148 74l-84 -162z M367 -328l110 204l142 -80l80 158l186 -102l-104 -194l-148 74l-84 -162z" />
<glyph unicode="&#x687;" horiz-adv-x="1072" arabic-form="medial" d="M-70 293v272h711q-121 125 -224 180q-91 49 -178 49q-26 0 -47.5 -2.5t-62.5 -11.5q55 126 122.5 186t153.5 60q66 0 127 -32t137 -103q60 -56 170 -175q75 -84 114.5 -109t118.5 -42v-272h-1142zM234 -63l110 204l142 -80l80 158l186 -102l-104 -194l-148 74l-84 -162z M367 -328l110 204l142 -80l80 158l186 -102l-104 -194l-148 74l-84 -162z" />
<glyph unicode="&#x68d;" horiz-adv-x="702" arabic-form="final" d="M105 432q0 44 4.5 95t13.5 103l38 2q8 -35 35.5 -51t66.5 -16h344q-23 147 -80 235q-47 73 -131 126l72 312q130 -97 184 -250q50 -141 50 -374v-321h-453q-66 0 -101 28q-43 34 -43 111zM162 -63l110 204l142 -80l80 158l186 -102l-104 -194l-148 74l-84 -162z" />
<glyph unicode="&#x68c;" horiz-adv-x="702" arabic-form="final" d="M102 1457l110 204l142 -80l80 158l186 -102l-104 -194l-148 74l-84 -162zM105 432q0 44 4.5 95t13.5 103l38 2q8 -35 35.5 -51t66.5 -16h344q-23 147 -80 235q-47 73 -131 126l72 312q130 -97 184 -250q50 -141 50 -374v-321h-453q-66 0 -101 28q-43 34 -43 111z" />
<glyph unicode="&#x68e;" horiz-adv-x="702" arabic-form="final" d="M105 432q0 44 4.5 95t13.5 103l38 2q8 -35 35.5 -51t66.5 -16h344q-23 97 -80 165q-47 63 -131 96l72 312q130 -77 184 -220q50 -121 50 -304v-321h-453q-66 0 -101 28q-43 34 -43 111zM122 1306l104 194l148 -74l84 162l182 -102l-110 -204l-142 80l-80 -158zM158 1615 l102 204l186 -96l-100 -208z" />
<glyph unicode="&#x688;" horiz-adv-x="702" arabic-form="final" d="M79 1172v130h64q12 0 64 39q22 16 51 40q0 101 -18 183l-26 104l-28 17q15 70 46 140l22 -9q-2 -6 -2 -12q0 -17 47 -40q11 -5 47 -19q-5 -39 -15 -70q-5 -14 -19 -50l-17 6q25 -115 25 -157v-6q0 -21 -5 -46q39 29 119 80q40 22 61 22q128 0 128 -124v-228h-544z M105 432q0 44 4.5 95t13.5 103l38 2q8 -35 35.5 -51t66.5 -16h344q-23 97 -80 165q-47 63 -131 96l72 312q130 -77 184 -220q50 -121 50 -304v-321h-453q-66 0 -101 28q-43 34 -43 111zM275 1302h125q157 0 157 48q0 28 -36 39q-21 7 -61 7q-60 0 -185 -94z" />
<glyph unicode="&#x698;" horiz-adv-x="886" arabic-form="final" d="M10 74l42 62q90 -60 145 -81t119 -21q69 0 138 39t188 145q166 148 166 228q0 40 -32 105q-36 74 -88 123l56 270q68 -70 105 -161t37 -207v-306q0 -61 -70 -161.5t-164 -174.5q-104 -82 -178 -82q-88 0 -189 50q-88 43 -275 172zM397 1152l104 194l148 -74l84 162 l182 -102l-110 -204l-142 80l-80 -158zM433 1461l102 204l186 -96l-100 -208z" />
<glyph unicode="&#x691;" horiz-adv-x="886" arabic-form="final" d="M10 74l42 62q90 -60 145 -81t119 -21q69 0 138 39t188 145q166 148 166 228q0 40 -32 105q-36 74 -88 123l56 270q68 -70 105 -161t37 -207v-306q0 -61 -70 -161.5t-164 -174.5q-104 -82 -178 -82q-88 0 -189 50q-88 43 -275 172zM308 1062v130h64q12 0 64 39 q22 16 51 40q0 101 -18 183l-26 104l-28 17q15 70 46 140l22 -9q-2 -6 -2 -12q0 -17 47 -40q11 -5 47 -19q-5 -39 -15 -70q-5 -14 -19 -50l-17 6q25 -115 25 -157v-6q0 -21 -5 -46q39 29 119 80q40 22 61 22q128 0 128 -124v-228h-544zM504 1192h125q157 0 157 48 q0 28 -36 39q-21 7 -61 7q-60 0 -185 -94z" />
<glyph unicode="&#x6a9;" horiz-adv-x="1550" arabic-form="isolated" d="M41 572q0 93 28.5 182.5t97.5 213.5l60 -42q-39 -77 -50.5 -114.5t-11.5 -79.5q0 -96 71 -131.5t271 -35.5h884q-39 47 -76 82q-30 28 -81 68q-57 44 -113 88l-32 -36q-89 88 -106 107q-50 57 -50 131q0 101 14 142q20 58 85 103q58 40 124 73q52 26 138 61q40 16 169 66 v-238q-5 0 -84 -26q-98 -32 -156 -56q-84 -34 -84 -51q0 -9 71 -78q97 -94 163 -172q109 -129 177 -257v-279h-1113q-216 0 -311 74q-85 66 -85 205z" />
<glyph unicode="&#x6a9;" horiz-adv-x="1800" arabic-form="final" d="M41 572q0 93 28.5 182.5t97.5 213.5l60 -42q-39 -77 -50.5 -114.5t-11.5 -79.5q0 -96 71 -131.5t271 -35.5h283q108 0 163 5q86 8 132 31q54 27 54 80q0 27 -34 67t-75 62l-35 -35q-77 73 -96 94q-56 63 -56 136q0 101 14 142q20 58 85 103q55 38 148 80q75 34 182 75 q96 36 193 73v-238l-107 -33q-123 -39 -201 -69q-108 -42 -108 -59q-1 -15 -1 -21q0 -23 21 -47q28 -32 117 -102q65 -52 182 -163q99 -95 148 -129q74 -52 140 -52h144v-272h-136q-75 0 -167 65q-75 53 -154 140q-42 46 -110 134q0 -167 -110 -250q-118 -89 -377 -89h-309 q-216 0 -311 74q-85 66 -85 205z" />
<glyph unicode="&#x6a9;" horiz-adv-x="738" arabic-form="initial" d="M-70 293v272h649q-39 47 -76 82q-30 28 -81 68q-57 44 -113 88l-32 -36q-89 88 -106 107q-50 57 -50 131q0 101 14 142q20 58 85 103q58 40 124 73q52 26 138 61q40 16 169 66v-238q-5 0 -84 -26q-98 -32 -156 -56q-84 -34 -84 -51q0 -9 71 -78q97 -94 163 -172 q109 -129 177 -257v-279h-808z" />
<glyph unicode="&#x6a9;" horiz-adv-x="1110" arabic-form="medial" d="M-70 293v272h170q108 0 163 5q86 8 132 31q54 27 54 80q0 27 -34 67t-75 62l-35 -35q-77 73 -96 94q-56 63 -56 136q0 101 14 142q20 58 85 103q55 38 148 80q75 34 182 75q96 36 193 73v-238l-107 -33q-123 -39 -201 -69q-108 -42 -108 -59q-1 -15 -1 -21q0 -23 21 -47 q28 -32 117 -102q65 -52 182 -163q99 -95 148 -129q74 -52 140 -52h144v-272h-136q-75 0 -167 65q-75 53 -154 140q-42 46 -110 134q0 -167 -110 -250q-118 -89 -377 -89h-126z" />
<glyph unicode="&#x6af;" horiz-adv-x="1800" arabic-form="final" d="M41 572q0 93 28.5 182.5t97.5 213.5l60 -42q-39 -77 -50.5 -114.5t-11.5 -79.5q0 -96 71 -131.5t271 -35.5h283q108 0 163 5q86 8 132 31q54 27 54 80q0 27 -34 67t-75 62l-35 -35q-77 73 -96 94q-56 63 -56 136q0 101 14 142q20 58 85 103q55 38 148 80q75 34 182 75 q96 36 193 73v-238l-107 -33q-123 -39 -201 -69q-108 -42 -108 -59q-1 -15 -1 -21q0 -23 21 -47q28 -32 117 -102q65 -52 182 -163q99 -95 148 -129q74 -52 140 -52h144v-272h-136q-75 0 -167 65q-75 53 -154 140q-42 46 -110 134q0 -167 -110 -250q-118 -89 -377 -89h-309 q-216 0 -311 74q-85 66 -85 205zM864 1294v154q34 34 119 92q99 67 210 127q137 74 272 128v-223q-215 -79 -372 -153q-144 -68 -229 -125z" />
<glyph unicode="&#x6af;" horiz-adv-x="738" arabic-form="initial" d="M-70 293v272h649q-39 47 -76 82q-30 28 -81 68q-57 44 -113 88l-32 -36q-89 88 -106 107q-50 57 -50 131q0 101 14 142q20 58 85 103q58 40 124 73q52 26 138 61q40 16 169 66v-238q-5 0 -84 -26q-98 -32 -156 -56q-84 -34 -84 -51q0 -9 71 -78q97 -94 163 -172 q109 -129 177 -257v-279h-808zM50 1266v154q34 34 119 92q99 67 210 127q137 74 272 128v-223q-215 -79 -372 -153q-144 -68 -229 -125z" />
<glyph unicode="&#x6af;" horiz-adv-x="1110" arabic-form="medial" d="M-70 293v272h170q108 0 163 5q86 8 132 31q54 27 54 80q0 27 -34 67t-75 62l-35 -35q-77 73 -96 94q-56 63 -56 136q0 101 14 142q20 58 85 103q55 38 148 80q75 34 182 75q96 36 193 73v-238l-107 -33q-123 -39 -201 -69q-108 -42 -108 -59q-1 -15 -1 -21q0 -23 21 -47 q28 -32 117 -102q65 -52 182 -163q99 -95 148 -129q74 -52 140 -52h144v-272h-136q-75 0 -167 65q-75 53 -154 140q-42 46 -110 134q0 -167 -110 -250q-118 -89 -377 -89h-126zM174 1294v154q34 34 119 92q99 67 210 127q137 74 272 128v-223q-215 -79 -372 -153 q-144 -68 -229 -125z" />
<glyph unicode="&#x6b3;" horiz-adv-x="1800" arabic-form="final" d="M41 572q0 93 28.5 182.5t97.5 213.5l60 -42q-39 -77 -50.5 -114.5t-11.5 -79.5q0 -96 71 -131.5t271 -35.5h283q108 0 163 5q86 8 132 31q54 27 54 80q0 27 -34 67t-75 62l-35 -35q-77 73 -96 94q-56 63 -56 136q0 101 14 142q20 58 85 103q55 38 148 80q75 34 182 75 q96 36 193 73v-238l-107 -33q-123 -39 -201 -69q-108 -42 -108 -59q-1 -15 -1 -21q0 -23 21 -47q28 -32 117 -102q65 -52 182 -163q99 -95 148 -129q74 -52 140 -52h144v-272h-136q-75 0 -167 65q-75 53 -154 140q-42 46 -110 134q0 -167 -110 -250q-118 -89 -377 -89h-309 q-216 0 -311 74q-85 66 -85 205zM467 15l102 204l186 -96l-100 -208zM600 -250l102 204l186 -96l-100 -208zM864 1294v154q34 34 119 92q99 67 210 127q137 74 272 128v-223q-215 -79 -372 -153q-144 -68 -229 -125z" />
<glyph unicode="&#x6b3;" horiz-adv-x="738" arabic-form="initial" d="M-70 293v272h649q-39 47 -76 82q-30 28 -81 68q-57 44 -113 88l-32 -36q-89 88 -106 107q-50 57 -50 131q0 101 14 142q20 58 85 103q58 40 124 73q52 26 138 61q40 16 169 66v-238q-5 0 -84 -26q-98 -32 -156 -56q-84 -34 -84 -51q0 -9 71 -78q97 -94 163 -172 q109 -129 177 -257v-279h-808zM50 1266v154q34 34 119 92q99 67 210 127q137 74 272 128v-223q-215 -79 -372 -153q-144 -68 -229 -125zM159 15l102 204l186 -96l-100 -208zM292 -250l102 204l186 -96l-100 -208z" />
<glyph unicode="&#x6b3;" horiz-adv-x="1110" arabic-form="medial" d="M-70 293v272h170q108 0 163 5q86 8 132 31q54 27 54 80q0 27 -34 67t-75 62l-35 -35q-77 73 -96 94q-56 63 -56 136q0 101 14 142q20 58 85 103q55 38 148 80q75 34 182 75q96 36 193 73v-238l-107 -33q-123 -39 -201 -69q-108 -42 -108 -59q-1 -15 -1 -21q0 -23 21 -47 q28 -32 117 -102q65 -52 182 -163q99 -95 148 -129q74 -52 140 -52h144v-272h-136q-75 0 -167 65q-75 53 -154 140q-42 46 -110 134q0 -167 -110 -250q-118 -89 -377 -89h-126zM67 15l102 204l186 -96l-100 -208zM174 1294v154q34 34 119 92q99 67 210 127q137 74 272 128 v-223q-215 -79 -372 -153q-144 -68 -229 -125zM200 -250l102 204l186 -96l-100 -208z" />
<glyph unicode="&#x6b1;" horiz-adv-x="1800" arabic-form="final" d="M41 572q0 93 28.5 182.5t97.5 213.5l60 -42q-39 -77 -50.5 -114.5t-11.5 -79.5q0 -96 71 -131.5t271 -35.5h283q108 0 163 5q86 8 132 31q54 27 54 80q0 27 -34 67t-75 62l-35 -35q-77 73 -96 94q-56 63 -56 136q0 101 14 142q20 58 85 103q55 38 148 80q75 34 182 75 q96 36 193 73v-238l-107 -33q-123 -39 -201 -69q-108 -42 -108 -59q-1 -15 -1 -21q0 -23 21 -47q28 -32 117 -102q65 -52 182 -163q99 -95 148 -129q74 -52 140 -52h144v-272h-136q-75 0 -167 65q-75 53 -154 140q-42 46 -110 134q0 -167 -110 -250q-118 -89 -377 -89h-309 q-216 0 -311 74q-85 66 -85 205zM827 1629l56 105l142 -44l-54 -105zM864 1294v154q34 34 119 92q99 67 210 127q137 74 272 128v-223q-215 -79 -372 -153q-144 -68 -229 -125zM1036 1720l56 105l142 -44l-54 -105z" />
<glyph unicode="&#x6b1;" horiz-adv-x="738" arabic-form="initial" d="M-70 293v272h649q-39 47 -76 82q-30 28 -81 68q-57 44 -113 88l-32 -36q-89 88 -106 107q-50 57 -50 131q0 101 14 142q20 58 85 103q58 40 124 73q52 26 138 61q40 16 169 66v-238q-5 0 -84 -26q-98 -32 -156 -56q-84 -34 -84 -51q0 -9 71 -78q97 -94 163 -172 q109 -129 177 -257v-279h-808zM47 1629l56 105l142 -44l-54 -105zM50 1266v154q34 34 119 92q99 67 210 127q137 74 272 128v-223q-215 -79 -372 -153q-144 -68 -229 -125zM256 1720l56 105l142 -44l-54 -105z" />
<glyph unicode="&#x6b1;" horiz-adv-x="1110" arabic-form="medial" d="M-70 293v272h170q108 0 163 5q86 8 132 31q54 27 54 80q0 27 -34 67t-75 62l-35 -35q-77 73 -96 94q-56 63 -56 136q0 101 14 142q20 58 85 103q55 38 148 80q75 34 182 75q96 36 193 73v-238l-107 -33q-123 -39 -201 -69q-108 -42 -108 -59q-1 -15 -1 -21q0 -23 21 -47 q28 -32 117 -102q65 -52 182 -163q99 -95 148 -129q74 -52 140 -52h144v-272h-136q-75 0 -167 65q-75 53 -154 140q-42 46 -110 134q0 -167 -110 -250q-118 -89 -377 -89h-126zM127 1629l56 105l142 -44l-54 -105zM174 1294v154q34 34 119 92q99 67 210 127q137 74 272 128 v-223q-215 -79 -372 -153q-144 -68 -229 -125zM336 1720l56 105l142 -44l-54 -105z" />
<glyph unicode="&#x6ba;" horiz-adv-x="1108" arabic-form="final" d="M62 210q0 139 42 254q46 127 180 330l60 -42q-99 -169 -129.5 -245t-30.5 -157q0 -105 112.5 -171.5t295.5 -66.5q180 0 303 69t123 169q0 62 -21.5 123t-92.5 195l88 270q70 -127 86 -175q30 -87 30 -221v-200q0 -138 -27 -221.5t-88.5 -134.5t-180 -83.5t-244.5 -32.5 q-243 0 -374.5 88.5t-131.5 251.5z" />
<glyph unicode="&#x6bb;" horiz-adv-x="1108" arabic-form="final" d="M62 210q0 139 42 254q46 127 180 330l60 -42q-99 -169 -129.5 -245t-30.5 -157q0 -105 112.5 -171.5t295.5 -66.5q180 0 303 69t123 169q0 62 -21.5 123t-92.5 195l88 270q70 -127 86 -175q30 -87 30 -221v-200q0 -138 -27 -221.5t-88.5 -134.5t-180 -83.5t-244.5 -32.5 q-243 0 -374.5 88.5t-131.5 251.5zM328 982v130h64q12 0 64 39q22 16 51 40q0 101 -18 183l-26 104l-28 17q15 70 46 140l22 -9q-2 -6 -2 -12q0 -17 47 -40q11 -5 47 -19q-5 -39 -15 -70q-5 -14 -19 -50l-17 6q25 -115 25 -157v-6q0 -21 -5 -46q39 29 119 80q40 22 61 22 q128 0 128 -124v-228h-544zM524 1112h125q157 0 157 48q0 28 -36 39q-21 7 -61 7q-60 0 -185 -94z" />
<glyph unicode="&#x6c0;" horiz-adv-x="850" arabic-form="final" d="M3 612q0 27 69.5 170.5t100.5 177.5q25 27 89 70q38 26 108 67l53 31q-3 14 -4.5 28.5t-1.5 27.5q0 38 17.5 95.5t62.5 142.5l96 -624q23 -147 60 -199q24 -34 66 -34h131v-272h-131q-36 0 -66 15q-58 29 -98 106q-54 106 -70 290q-68 -84 -106 -119q-55 -51 -92 -51 q-19 0 -48 6l-122 24q-78 16 -96 23t-18 25zM94 1235q20 36 35 49.5t54 24.5q-28 18 -40.5 33.5t-12.5 30.5q0 13 8 29.5t21 32.5q65 87 129 87q19 0 30.5 -12.5t11.5 -32.5q0 -16 -4.5 -27.5t-18.5 -34.5q-50 25 -68 25t-36 -9q-12 -6 -22 -16q0 -13 48 -40t69 -27 q13 0 72 15q-11 -29 -26 -44q-11 -11 -34 -18zM243 830q0 -14 35 -22t69 -8q22 0 46 12.5t68 45.5l-20 120q-32 -15 -50 -24q-55 -29 -88 -54q-24 -20 -40 -37q-20 -22 -20 -33z" />
<glyph unicode="&#x6c1;" horiz-adv-x="702" arabic-form="isolated" d="M88 456q0 82 23.5 161t84.5 199l-36 24q17 46 46 111.5t52 110.5l98 -58q64 -39 122 -84q82 -62 113 -116.5t31 -135.5q0 -60 -9.5 -121.5t-24.5 -100.5q-28 -76 -138 -134q-102 -54 -192 -54q-78 0 -124 54t-46 144zM204 602q0 -32 26.5 -55t63.5 -23q50 0 115 23.5 t65 40.5q0 19 -69.5 79t-136.5 103q-64 -101 -64 -168z" />
<glyph unicode="&#x6c1;" horiz-adv-x="556" arabic-form="initial" d="M-70 293v272h526q-11 66 -40 115q-17 29 -70 90l80 238q84 -96 111 -212q19 -80 19 -242v-261h-626zM153 -104q0 102 59 177q28 35 88 78l23 -38q-45 -42 -62 -63q-37 -48 -37 -85q0 -36 73.5 -52t73.5 -95q0 -40 -28 -66.5t-68 -26.5q-54 0 -88 48t-34 123z" />
<glyph unicode="&#x6c1;" horiz-adv-x="656" arabic-form="medial" d="M-70 293v272h90q120 0 192 65q63 56 107 178l72 -18q-70 -225 -70 -337q0 -109 20 -183q5 126 88 212q80 83 187 83h40v-272h-50q-192 0 -192 -149q0 -98 -41 -98q-81 0 -122 194q-21 101 -8 217q-80 -164 -223 -164h-90zM283 -249q0 102 59 177q28 35 88 78l23 -38 q-45 -42 -62 -63q-37 -48 -37 -85q0 -36 73.5 -52t73.5 -95q0 -40 -28 -66.5t-68 -26.5q-54 0 -88 48t-34 123z" />
<glyph unicode="&#x6be;" horiz-adv-x="960" arabic-form="isolated" d="M-70 293v272h90q30 0 64.5 9t53.5 22v36q0 121 34 211q38 101 112 147l-48 36q12 81 22.5 127t37.5 131q150 -105 275 -256q115 -139 180 -279.5t65 -242.5q0 -73 -29 -160q-35 -106 -83 -106q-42 0 -139 40q-112 46 -233 122q-67 -59 -161 -87q-74 -22 -151 -22h-90z M264 756q0 -40 92 -82q22 10 33 17q33 22 33 47q0 51 -14.5 79.5t-41.5 28.5q-45 0 -76 -33q-26 -28 -26 -57zM494 608q131 -72 186 -72q18 0 18 16q0 30 -43.5 91.5t-106.5 120.5q-6 -48 -14.5 -73t-39.5 -83z" />
<glyph unicode="&#x6d2;" horiz-adv-x="1663" arabic-form="final" d="M71 -363q-2 70 17 166q43 215 68 253q68 103 161 177q414 332 1110 332h236v-272h-242q-381 0 -603 -48q-278 -61 -498 -226q-117 -88 -117 -143q0 -29 94 -29h1366v-9l-253 -263h-1169q-116 0 -141 14q-28 16 -29 48z" />
<glyph unicode="&#x6d3;" horiz-adv-x="1663" arabic-form="final" d="M71 -363q-2 70 17 166q43 215 68 253q68 103 161 177q414 332 1110 332h236v-272h-242q-381 0 -603 -48q-278 -61 -498 -226q-117 -88 -117 -143q0 -29 94 -29h1366v-9l-253 -263h-1169q-116 0 -141 14q-28 16 -29 48zM944 735q20 36 35 49.5t54 24.5q-28 18 -40.5 33.5 t-12.5 30.5q0 13 8 29.5t21 32.5q65 87 129 87q19 0 30.5 -12.5t11.5 -32.5q0 -16 -4.5 -27.5t-18.5 -34.5q-50 25 -68 25t-36 -9q-12 -6 -22 -16q0 -13 48 -40t69 -27q13 0 72 15q-11 -29 -26 -44q-11 -11 -34 -18z" />
<glyph unicode="&#x6ad;" horiz-adv-x="1108" arabic-form="final" d="M41 572q0 93 28.5 182.5t97.5 213.5l60 -42q-39 -77 -50.5 -114.5t-11.5 -79.5q0 -96 71 -131.5t271 -35.5h481l-121 679l-64 42q0 59 18 119q23 76 78 181l46 -24q0 -6 -4 -32q0 -33 42 -64q37 -28 118 -62q-9 -64 -26.5 -125t-39.5 -109l-36 14l109 -619v-272h-671 q-216 0 -311 74q-85 66 -85 205zM327 770l12 64h18q99 0 182.5 27.5t83.5 64.5q0 14 -10 19.5t-40 8.5q-96 0 -96 84q0 60 23.5 133.5t66.5 148.5q28 46 57 68t87 40q-2 -39 -3 -85t-1 -81q-54 -15 -90 -42q-32 -24 -32 -42q0 -21 68 -30q62 0 87 -25t25 -85 q0 -133 -78.5 -207.5t-219.5 -74.5q-39 0 -62.5 2t-77.5 12zM359 1527l54 96l133 -36l-57 -96zM401 1664l54 96l133 -36l-57 -96zM576 1615l54 96l133 -36l-57 -96z" />
<glyph unicode="&#x6ad;" horiz-adv-x="738" arabic-form="initial" d="M-70 293v272h649q-39 47 -76 82q-30 28 -81 68q-57 44 -113 88l-32 -36q-89 88 -106 107q-50 57 -50 131q0 101 14 142q20 58 85 103q58 40 124 73q52 26 138 61q40 16 169 66v-238q-5 0 -84 -26q-98 -32 -156 -56q-84 -34 -84 -51q0 -9 71 -78q97 -94 163 -172 q109 -129 177 -257v-279h-808zM99 1427l54 96l133 -36l-57 -96zM141 1564l54 96l133 -36l-57 -96zM316 1515l54 96l133 -36l-57 -96z" />
<glyph unicode="&#x6ad;" horiz-adv-x="738" arabic-form="medial" d="M-70 293v272h649q-39 47 -76 82q-30 28 -81 68q-57 44 -113 88l-32 -36q-89 88 -106 107q-50 57 -50 131q0 101 14 142q20 58 85 103q58 40 124 73q52 26 138 61q40 16 169 66v-238q-5 0 -84 -26q-98 -32 -156 -56q-84 -34 -84 -51q0 -9 71 -78q97 -94 163 -172 q109 -129 177 -257v-279h-808zM99 1427l54 96l133 -36l-57 -96zM141 1564l54 96l133 -36l-57 -96zM316 1515l54 96l133 -36l-57 -96z" />
<glyph unicode="&#x6c7;" horiz-adv-x="924" arabic-form="final" d="M6 116l42 58q108 -72 177 -96q57 -20 129 -20q97 0 192 54q112 64 232 206q-42 -6 -70 -6q-99 0 -157.5 64.5t-58.5 175.5q0 150 69 289q75 151 171 151q80 0 136 -109t56 -263v-258q0 -172 -146 -340t-288 -168q-83 0 -181.5 53t-302.5 209zM472 1158q53 25 124 81 q64 51 97 90q-31 19 -47 40q-20 26 -20 57q0 66 38.5 116.5t83.5 50.5q26 0 47 -28t21 -68q0 -19 -5.5 -39.5t-25.5 -75.5q16 -14 33 -27q11 -11 11 -31q0 -17 -3 -35l-6 -36l-83 50q-50 -55 -68 -73q-74 -72 -124 -72h-73zM622 648q0 -36 39.5 -59.5t104.5 -23.5h38 q-28 161 -114 161q-31 0 -49.5 -24.5t-18.5 -53.5zM677 1489q0 -22 25 -46l44 -34q8 20 8 28q0 27 -19 50t-37 23q-10 0 -15.5 -7t-5.5 -14z" />
<glyph unicode="&#x6c6;" horiz-adv-x="924" arabic-form="final" d="M6 116l42 58q108 -72 177 -96q57 -20 129 -20q97 0 192 54q112 64 232 206q-42 -6 -70 -6q-99 0 -157.5 64.5t-58.5 175.5q0 150 69 289q75 151 171 151q80 0 136 -109t56 -263v-258q0 -172 -146 -340t-288 -168q-83 0 -181.5 53t-302.5 209zM494 1365h117l67 -120 l67 120h117l-136 -230h-96zM622 648q0 -36 39.5 -59.5t104.5 -23.5h38q-28 161 -114 161q-31 0 -49.5 -24.5t-18.5 -53.5z" />
<glyph unicode="&#x6c8;" horiz-adv-x="924" arabic-form="final" d="M6 116l42 58q108 -72 177 -96q57 -20 129 -20q97 0 192 54q112 64 232 206q-42 -6 -70 -6q-99 0 -157.5 64.5t-58.5 175.5q0 150 69 289q75 151 171 151q80 0 136 -109t56 -263v-258q0 -172 -146 -340t-288 -168q-83 0 -181.5 53t-302.5 209zM587 1537q0 30 56 136 l29 -169q27 -157 27 -270q0 -71 -49 -172l-28 12q11 59 11 99q0 65 -17 196q-8 59 -23 131q-6 28 -6 37zM622 648q0 -36 39.5 -59.5t104.5 -23.5h38q-28 161 -114 161q-31 0 -49.5 -24.5t-18.5 -53.5z" />
<glyph unicode="&#x6cb;" horiz-adv-x="924" arabic-form="final" d="M6 116l42 58q108 -72 177 -96q57 -20 129 -20q97 0 192 54q112 64 232 206q-42 -6 -70 -6q-99 0 -157.5 64.5t-58.5 175.5q0 150 69 289q75 151 171 151q80 0 136 -109t56 -263v-258q0 -172 -146 -340t-288 -168q-83 0 -181.5 53t-302.5 209zM382 1159l104 194l148 -74 l84 162l182 -102l-110 -204l-142 80l-80 -158zM418 1468l102 204l186 -96l-100 -208zM622 648q0 -36 39.5 -59.5t104.5 -23.5h38q-28 161 -114 161q-31 0 -49.5 -24.5t-18.5 -53.5z" />
<glyph unicode="&#x6c5;" horiz-adv-x="924" arabic-form="final" d="M6 116l42 58q108 -72 177 -96q57 -20 129 -20q140 0 281 114q-28 -6 -59 -6q-68 0 -145 33q-56 26 -85 26q-14 0 -58 -14l-14 14q46 77 106 77q36 0 99 -26q80 -33 145 -33q48 0 110 25q19 21 44 50q-42 -6 -70 -6q-103 0 -161 70q-55 65 -55 170q0 150 69 289 q75 151 171 151q98 0 152 -145q40 -109 40 -227v-258q0 -160 -136 -330q-142 -178 -298 -178q-103 0 -257 97q-62 39 -227 165zM622 648q0 -43 54 -66q40 -17 90 -17h38q-28 161 -114 161q-30 0 -49 -23.5t-19 -54.5z" />
<glyph unicode="&#x6c9;" horiz-adv-x="924" arabic-form="final" d="M6 116l42 58q108 -72 177 -96q57 -20 129 -20q97 0 192 54q112 64 232 206q-42 -6 -70 -6q-99 0 -157.5 64.5t-58.5 175.5q0 150 69 289q75 151 171 151q80 0 136 -109t56 -263v-258q0 -172 -146 -340t-288 -168q-83 0 -181.5 53t-302.5 209zM494 1135l136 230h96 l136 -230h-117l-67 120l-67 -120h-117zM622 648q0 -36 39.5 -59.5t104.5 -23.5h38q-28 161 -114 161q-31 0 -49.5 -24.5t-18.5 -53.5z" />
<glyph unicode="&#x6d0;" horiz-adv-x="1135" arabic-form="final" d="M10 28q0 159 70 305q44 91 156 245l56 -42q-164 -233 -164 -362q0 -72 64 -116q61 -42 158 -42q594 0 594 85q0 14 -156 14h-97q-71 8 -71 45q0 127 65 205t152 134q102 66 186 66h112v-272h-85q-82 0 -82 -23q0 -2 49 -24.5t49 -59.5q0 -57 -16 -132q-17 -81 -46 -140 q-73 -150 -666 -150q-160 0 -238 54q-90 62 -90 210zM447 -313l36 70l92 -24l-34 -70zM473 -410l36 70l92 -24l-34 -70z" />
<glyph unicode="&#x6d0;" horiz-adv-x="556" arabic-form="initial" d="M-70 293v272h526q-11 68 -40 115q-15 26 -70 90l80 238q75 -85 102.5 -178t27.5 -276v-261h-626zM67 15l102 204l186 -96l-100 -208zM200 -250l102 204l186 -96l-100 -208z" />
<glyph unicode="&#x6d0;" horiz-adv-x="556" arabic-form="medial" d="M-70 293v272h526q-11 68 -40 115q-15 26 -70 90l80 238q75 -85 102.5 -178t27.5 -276v-261h-626zM67 15l102 204l186 -96l-100 -208zM200 -250l102 204l186 -96l-100 -208z" />
<glyph unicode="&#x6cc;" horiz-adv-x="1320" arabic-form="isolated" d="M151 156q0 141 35 243q39 114 165 309l46 -30q-74 -125 -111 -222.5t-37 -170.5q0 -189 213 -189q80 0 152 14.5t146 40.5q48 17 110 44q99 44 105 47q45 24 45 43q0 10 -48.5 12.5t-68.5 2.5q-154 0 -206 44q-42 36 -42 133q0 46 29.5 116t77.5 139q73 105 146 159 t143 54q58 0 92 -45t34 -120q0 -55 -11 -91t-47 -95q-27 71 -45.5 92.5t-53.5 21.5q-54 0 -148.5 -61.5t-94.5 -103.5q0 -22 38 -31q27 -6 84 -6h29.5t29.5 1q109 0 145 -22q31 -19 31 -74q0 -108 -40 -207q-50 -125 -145 -178q-119 -67 -247.5 -108t-239.5 -41 q-311 0 -311 279z" />
<glyph unicode="&#x6cc;" horiz-adv-x="1135" arabic-form="final" d="M10 -62q0 158 38 274q46 140 188 366l56 -42q-94 -160 -129 -255t-35 -187t59 -145t163 -53q127 0 273 39q132 35 226.5 84.5t94.5 81.5q0 10 -56 12t-100 2q-106 0 -137 8t-31 37q0 54 19.5 114t46.5 92q66 80 156 136q101 63 181 63h112v-272h-85q-37 0 -59.5 -6 t-22.5 -17q0 -6 49 -25t49 -59q0 -55 -16.5 -132.5t-45.5 -139.5q-22 -48 -123 -110q-108 -66 -245 -110q-157 -50 -298 -50q-162 0 -245 75t-83 219z" />
<glyph unicode="&#x621;" horiz-adv-x="960" arabic-form="isolated" d="M126 608q0 56 77 195t132.5 190t130.5 51q71 0 124.5 -30t117.5 -108l-134 -222q-47 53 -88 77.5t-78 24.5q-31 0 -55.5 -17.5t-24.5 -40.5q0 -32 41.5 -66.5t140.5 -85.5q126 60 189 77.5t165 26.5l-80 -230q-155 -38 -254 -86q-92 -45 -169 -114q-50 -45 -147 -156 l-60 22q0 66 34 133q26 52 92 137q-94 94 -124 137t-30 85z" />
<glyph unicode="&#x622;" horiz-adv-x="488" arabic-form="isolated" d="M0 1624q46 77 106 77q36 0 99 -26q41 -17 77 -25t68 -8q30 0 52 5t68 24l18 -15q-44 -49 -85 -69t-101 -20q-34 0 -66.5 7t-78.5 26q-29 13 -48.5 18.5t-36.5 5.5q-14 0 -58 -14zM136 1221q0 31 31 105.5t87 180.5l60 -354q33 -202 46 -350q10 -114 10 -219 q0 -89 -21 -162.5t-81 -197.5l-60 24q24 128 24 208q0 61 -10 179t-25 233.5t-49 275.5q-12 56 -12 77z" />
<glyph unicode="&#x622;" horiz-adv-x="519" arabic-form="final" d="M-61 1624q46 77 106 77q36 0 99 -26q41 -17 77 -25t68 -8q30 0 52 5t68 24l18 -15q-44 -49 -85 -69t-101 -20q-34 0 -66.5 7t-78.5 26q-29 13 -48.5 18.5t-36.5 5.5q-14 0 -58 -14zM65 1257l108 250q58 -80 81 -158q27 -91 27 -232v-197q0 -209 28 -290q22 -65 70 -65 h140v-272h-140q-117 0 -169 96q-58 106 -58 357v285q0 97 -27 151q-13 26 -60 75z" />
<glyph unicode="&#x623;" horiz-adv-x="480" arabic-form="final" d="M-6 1506q20 36 35.5 48.5t52.5 26.5q-28 18 -40.5 33.5t-12.5 30.5q0 13 8 29.5t21 32.5q65 87 129 87q19 0 30.5 -12.5t11.5 -32.5q0 -16 -4.5 -27.5t-18.5 -34.5q-50 25 -68 25t-36 -9q-12 -6 -22 -16q0 -13 48 -40t69 -27q13 0 72 15q-10 -30 -25 -45q-11 -11 -34 -18 zM26 1257l107 249q59 -79 82 -157q27 -91 27 -232v-197q0 -209 28 -290q22 -65 70 -65h140v-272h-140q-117 0 -169 96q-58 106 -58 357v285q0 97 -27 151q-13 26 -60 75z" />
<glyph unicode="&#x624;" horiz-adv-x="924" arabic-form="final" d="M6 116l42 58q108 -72 177 -96q57 -20 129 -20q97 0 192 54q112 64 232 206q-42 -6 -70 -6q-99 0 -157.5 64.5t-58.5 175.5q0 150 69 289q75 151 171 151q80 0 136 -109t56 -263v-258q0 -172 -146 -340t-288 -168q-83 0 -181.5 53t-302.5 209zM272 1064q20 36 35 49.5 t52 27.5q-28 18 -40.5 33.5t-12.5 30.5q0 13 8 29.5t21 32.5q65 87 129 87q19 0 30.5 -12.5t11.5 -32.5q0 -16 -4.5 -27.5t-18.5 -34.5q-50 25 -68 25t-36 -9q-12 -6 -22 -16q0 -13 48 -40t69 -27q13 0 72 15q-9 -32 -24 -47q-11 -11 -34 -18zM622 648q0 -36 39.5 -59.5 t104.5 -23.5h38q-28 161 -114 161q-31 0 -49.5 -24.5t-18.5 -53.5z" />
<glyph unicode="&#x625;" horiz-adv-x="480" arabic-form="final" d="M26 1257l108 250q58 -80 81 -158q27 -91 27 -232v-197q0 -209 28 -290q22 -65 70 -65h140v-272h-140q-117 0 -169 96q-58 106 -58 357v285q0 97 -27 151q-13 26 -60 75zM154 -181q20 36 35 49.5t52 27.5q-28 18 -40.5 33.5t-12.5 30.5q0 13 8 29.5t21 32.5q65 87 129 87 q19 0 30.5 -12.5t11.5 -32.5q0 -16 -4.5 -27.5t-18.5 -34.5q-50 25 -68 25t-36 -9q-12 -6 -22 -16q0 -13 48 -40t69 -27q13 0 72 15q-9 -32 -24 -47q-11 -11 -34 -18z" />
<glyph unicode="&#x626;" horiz-adv-x="1182" arabic-form="final" d="M17 82q0 122 51 233q62 134 229 339l60 -42q-105 -127 -145.5 -207t-40.5 -157q0 -107 88.5 -158.5t273.5 -51.5q96 0 266 35t170 61q0 12 -65 22t-143 10q-114 0 -114 50q0 23 27 82q19 41 39 82q37 83 141.5 134t218.5 51h109v-272h-103q-45 0 -64.5 -2t-19.5 -13 q29 -17 54.5 -23.5t33.5 -17t8 -33.5q0 -71 -40.5 -169.5t-79.5 -122.5q-37 -31 -219.5 -71.5t-314.5 -40.5q-188 0 -304 78t-116 204zM186 784q20 36 35 49.5t52 27.5q-28 18 -40.5 33.5t-12.5 30.5q0 13 8 29.5t21 32.5q65 87 129 87q19 0 30.5 -12.5t11.5 -32.5 q0 -16 -4.5 -27.5t-18.5 -34.5q-50 25 -68 25t-36 -9q-12 -6 -22 -16q0 -13 48 -40t69 -27q13 0 72 15q-9 -32 -24 -47q-11 -11 -34 -18z" />
<glyph unicode="&#x626;" horiz-adv-x="556" arabic-form="initial" d="M-70 293v272h526q-11 68 -40 115q-15 26 -70 90l80 238q75 -85 102.5 -178t27.5 -276v-261h-626zM252 1064q20 36 35 49.5t52 27.5q-28 18 -40.5 33.5t-12.5 30.5q0 13 8 29.5t21 32.5q65 87 129 87q19 0 30.5 -12.5t11.5 -32.5q0 -16 -4.5 -27.5t-18.5 -34.5 q-50 25 -68 25t-36 -9q-12 -6 -22 -16q0 -13 48 -40t69 -27q13 0 72 15q-9 -32 -24 -47q-11 -11 -34 -18z" />
<glyph unicode="&#x626;" horiz-adv-x="556" arabic-form="medial" d="M-70 293v272h526q-11 68 -40 115q-15 26 -70 90l80 238q75 -85 102.5 -178t27.5 -276v-261h-626zM252 1064q20 36 35 49.5t52 27.5q-28 18 -40.5 33.5t-12.5 30.5q0 13 8 29.5t21 32.5q65 87 129 87q19 0 30.5 -12.5t11.5 -32.5q0 -16 -4.5 -27.5t-18.5 -34.5 q-50 25 -68 25t-36 -9q-12 -6 -22 -16q0 -13 48 -40t69 -27q13 0 72 15q-9 -32 -24 -47q-11 -11 -34 -18z" />
<glyph unicode="&#x627;" horiz-adv-x="480" arabic-form="final" d="M26 1257l108 250q58 -80 81 -158q27 -91 27 -232v-197q0 -209 28 -290q22 -65 70 -65h140v-272h-140q-117 0 -169 96q-58 106 -58 357v285q0 97 -27 151q-13 26 -60 75z" />
<glyph unicode="&#x628;" horiz-adv-x="1330" arabic-form="final" d="M57 624q0 41 4 73.5t16 76.5q17 65 38 109t74 119l56 -40q-43 -79 -58.5 -125t-15.5 -91q0 -57 36.5 -102.5t95.5 -59.5q35 -9 91.5 -14t118.5 -5h723q-28 76 -46 108q-21 38 -68 97l90 232q75 -107 98 -196q20 -78 20 -230v-283h-839q-121 0 -160.5 4t-85.5 21 q-82 28 -135 114t-53 192zM587 -16l120 228l232 -130l-120 -224z" />
<glyph unicode="&#x628;" horiz-adv-x="556" arabic-form="initial" d="M-70 293v272h526q-11 68 -40 115q-15 26 -70 90l80 238q75 -85 102.5 -178t27.5 -276v-261h-626zM102 -16l120 228l232 -130l-120 -224z" />
<glyph unicode="&#x628;" horiz-adv-x="556" arabic-form="medial" d="M-70 293v272h526q-11 68 -40 115q-15 26 -70 90l80 238q75 -85 102.5 -178t27.5 -276v-261h-626zM102 -16l120 228l232 -130l-120 -224z" />
<glyph unicode="&#x629;" horiz-adv-x="850" arabic-form="final" d="M3 612q0 27 69.5 170.5t100.5 177.5q25 27 89 70q38 26 108 67l53 31q-3 14 -4.5 28.5t-1.5 27.5q0 38 17.5 95.5t62.5 142.5l96 -624q23 -147 60 -199q24 -34 66 -34h131v-272h-131q-36 0 -66 15q-58 29 -98 106q-54 106 -70 290q-68 -84 -106 -119q-55 -51 -92 -51 q-19 0 -48 6l-122 24q-78 16 -96 23t-18 25zM101 1533l104 176l148 -74l87 153l179 -93l-110 -186l-142 80l-80 -158zM243 830q0 -14 35 -22t69 -8q22 0 46 12.5t68 45.5l-20 120q-32 -15 -50 -24q-55 -29 -88 -54q-24 -20 -40 -37q-20 -22 -20 -33z" />
<glyph unicode="&#x62a;" horiz-adv-x="1330" arabic-form="final" d="M57 624q0 41 4 73.5t16 76.5q17 65 38 109t74 119l56 -40q-43 -79 -58.5 -125t-15.5 -91q0 -57 36.5 -102.5t95.5 -59.5q35 -9 91.5 -14t118.5 -5h723q-28 76 -46 108q-21 38 -68 97l90 232q75 -107 98 -196q20 -78 20 -230v-283h-839q-121 0 -160.5 4t-85.5 21 q-82 28 -135 114t-53 192zM459 1062l104 194l148 -74l84 162l182 -102l-110 -204l-142 80l-80 -158z" />
<glyph unicode="&#x62a;" horiz-adv-x="556" arabic-form="initial" d="M-70 293v272h526q-11 68 -40 115q-15 26 -70 90l80 238q75 -85 102.5 -178t27.5 -276v-261h-626zM22 1182l104 194l148 -74l84 162l182 -102l-110 -204l-142 80l-80 -158z" />
<glyph unicode="&#x62a;" horiz-adv-x="556" arabic-form="medial" d="M-70 293v272h526q-11 68 -40 115q-15 26 -70 90l80 238q75 -85 102.5 -178t27.5 -276v-261h-626zM22 1182l104 194l148 -74l84 162l182 -102l-110 -204l-142 80l-80 -158z" />
<glyph unicode="&#x62b;" horiz-adv-x="1330" arabic-form="final" d="M60 630q0 94 28.5 174.5t101.5 197.5l56 -36q-42 -86 -57 -130.5t-15 -85.5q0 -97 79.5 -140.5t254.5 -43.5h726q-22 71 -40.5 106.5t-71.5 101.5l88 230q40 -55 56.5 -87t34 -89.5t23.5 -111.5t6 -158v-264h-846q-134 0 -200 16t-118 58q-50 44 -78 112t-28 150z M457 1056l104 194l148 -74l84 162l182 -102l-110 -204l-142 80l-80 -158zM493 1365l102 204l186 -96l-100 -208z" />
<glyph unicode="&#x62b;" horiz-adv-x="556" arabic-form="initial" d="M-70 293v272h526q-11 68 -40 115q-15 26 -70 90l80 238q75 -85 102.5 -178t27.5 -276v-261h-626zM22 1182l104 194l148 -74l84 162l182 -102l-110 -204l-142 80l-80 -158zM58 1491l102 204l186 -96l-100 -208z" />
<glyph unicode="&#x62b;" horiz-adv-x="556" arabic-form="medial" d="M-70 293v272h526q-11 68 -40 115q-15 26 -70 90l80 238q75 -85 102.5 -178t27.5 -276v-261h-626zM22 1182l104 194l148 -74l84 162l182 -102l-110 -204l-142 80l-80 -158zM58 1491l102 204l186 -96l-100 -208z" />
<glyph unicode="&#x62c;" horiz-adv-x="1144" arabic-form="final" d="M48 708q45 372 364 372q37 0 141 -11.5t185 -17.5q152 -11 298 -11l-60 -242q-59 0 -101 -7q-56 -12 -101 -21q-3 -19 -5.5 -43t-2.5 -37q0 -71 47 -98t174 -27h157v-272h-156q-176 0 -240 51t-64 192q0 63 8 121q3 20 16 95q-228 -53 -368 -183q-144 -134 -144 -305 q0 -200 171.5 -308t494.5 -108q95 0 272 18l18 -32l-380 -244l-96 -2q-293 0 -451.5 148.5t-158.5 423.5q0 209 95.5 387.5t244.5 258.5h-22q-93 0 -153.5 -17.5t-182.5 -80.5zM334 180l120 222l230 -126l-122 -224z" />
<glyph unicode="&#x62c;" horiz-adv-x="1072" arabic-form="initial" d="M-70 293v272h711q-121 125 -224 180q-91 49 -178 49q-26 0 -47.5 -2.5t-62.5 -11.5q55 126 122.5 186t153.5 60q66 0 127 -32t137 -103q60 -56 170 -175q75 -84 114.5 -109t118.5 -42v-272h-1142zM346 -28l123 226l233 -124l-126 -226z" />
<glyph unicode="&#x62c;" horiz-adv-x="1072" arabic-form="medial" d="M-70 293v272h711q-121 125 -224 180q-91 49 -178 49q-26 0 -47.5 -2.5t-62.5 -11.5q55 126 122.5 186t153.5 60q66 0 127 -32t137 -103q60 -56 170 -175q75 -84 114.5 -109t118.5 -42v-272h-1142zM346 -28l123 226l233 -124l-126 -226z" />
<glyph unicode="&#x62d;" horiz-adv-x="1144" arabic-form="final" d="M48 708q45 372 364 372q37 0 141 -11.5t185 -17.5q152 -11 298 -11l-60 -242q-59 0 -101 -7q-56 -12 -101 -21q-3 -19 -5.5 -43t-2.5 -37q0 -71 47 -98t174 -27h157v-272h-156q-176 0 -240 51t-64 192q0 63 8 121q3 20 16 95q-228 -53 -368 -183q-144 -134 -144 -305 q0 -200 171.5 -308t494.5 -108q95 0 272 18l18 -32l-380 -244l-96 -2q-293 0 -451.5 148.5t-158.5 423.5q0 209 95.5 387.5t244.5 258.5h-22q-93 0 -153.5 -17.5t-182.5 -80.5z" />
<glyph unicode="&#x62d;" horiz-adv-x="1072" arabic-form="initial" d="M-70 293v272h711q-121 125 -224 180q-91 49 -178 49q-26 0 -47.5 -2.5t-62.5 -11.5q55 126 122.5 186t153.5 60q66 0 127 -32t137 -103q60 -56 170 -175q75 -84 114.5 -109t118.5 -42v-272h-1142z" />
<glyph unicode="&#x62d;" horiz-adv-x="1072" arabic-form="medial" d="M-70 293v272h711q-121 125 -224 180q-91 49 -178 49q-26 0 -47.5 -2.5t-62.5 -11.5q55 126 122.5 186t153.5 60q66 0 127 -32t137 -103q60 -56 170 -175q75 -84 114.5 -109t118.5 -42v-272h-1142z" />
<glyph unicode="&#x62e;" horiz-adv-x="1144" arabic-form="final" d="M48 708q45 372 364 372q37 0 141 -11.5t185 -17.5q152 -11 298 -11l-60 -242q-59 0 -101 -7q-56 -12 -101 -21q-3 -19 -5.5 -43t-2.5 -37q0 -71 47 -98t174 -27h157v-272h-156q-176 0 -240 51t-64 192q0 63 8 121q3 20 16 95q-228 -53 -368 -183q-144 -134 -144 -305 q0 -200 171.5 -308t494.5 -108q95 0 272 18l18 -32l-380 -244l-96 -2q-293 0 -451.5 148.5t-158.5 423.5q0 209 95.5 387.5t244.5 258.5h-22q-93 0 -153.5 -17.5t-182.5 -80.5zM358 1301l124 226l230 -124l-120 -224z" />
<glyph unicode="&#x62e;" horiz-adv-x="1072" arabic-form="initial" d="M-70 293v272h711q-121 125 -224 180q-91 49 -178 49q-26 0 -47.5 -2.5t-62.5 -11.5q55 126 122.5 186t153.5 60q66 0 127 -32t137 -103q60 -56 170 -175q75 -84 114.5 -109t118.5 -42v-272h-1142zM316 1256l121 226l233 -124l-120 -224z" />
<glyph unicode="&#x62e;" horiz-adv-x="1072" arabic-form="medial" d="M-70 293v272h711q-121 125 -224 180q-91 49 -178 49q-26 0 -47.5 -2.5t-62.5 -11.5q55 126 122.5 186t153.5 60q66 0 127 -32t137 -103q60 -56 170 -175q75 -84 114.5 -109t118.5 -42v-272h-1142zM316 1256l121 226l233 -124l-120 -224z" />
<glyph unicode="&#x62f;" horiz-adv-x="702" arabic-form="final" d="M105 432q0 44 4.5 95t13.5 103l38 2q8 -35 35.5 -51t66.5 -16h344q-23 147 -80 235q-47 73 -131 126l72 312q130 -97 184 -250q50 -141 50 -374v-321h-453q-66 0 -101 28q-43 34 -43 111z" />
<glyph unicode="&#x630;" horiz-adv-x="702" arabic-form="final" d="M105 432q0 44 4.5 95t13.5 103l38 2q8 -35 35.5 -51t66.5 -16h344q-23 147 -80 235q-47 73 -131 126l72 312q130 -97 184 -250q50 -141 50 -374v-321h-453q-66 0 -101 28q-43 34 -43 111zM177 1505l125 226l229 -124l-120 -224z" />
<glyph unicode="&#x631;" horiz-adv-x="886" arabic-form="final" d="M10 74l42 62q90 -60 145 -81t119 -21q69 0 138 39t188 145q166 148 166 228q0 40 -32 105q-36 74 -88 123l56 270q68 -70 105 -161t37 -207v-306q0 -61 -70 -161.5t-164 -174.5q-104 -82 -178 -82q-88 0 -189 50q-88 43 -275 172z" />
<glyph unicode="&#x632;" horiz-adv-x="886" arabic-form="final" d="M10 74l42 62q90 -60 145 -81t119 -21q69 0 138 39t188 145q166 148 166 228q0 40 -32 105q-36 74 -88 123l56 270q68 -70 105 -161t37 -207v-306q0 -61 -70 -161.5t-164 -174.5q-104 -82 -178 -82q-88 0 -189 50q-88 43 -275 172zM481 1193l119 226l235 -124l-120 -224z " />
<glyph unicode="&#x633;" horiz-adv-x="1842" arabic-form="final" d="M64 210q0 139 42 254q46 127 180 330l60 -42q-99 -169 -129.5 -245t-30.5 -157q0 -105 112.5 -171.5t295.5 -66.5q180 0 303 69t123 169q0 62 -21.5 123t-92.5 195l88 270q71 -120 94 -198q20 -68 20 -175h92q151 0 210.5 35.5t59.5 127.5q0 40 7.5 58.5t35.5 38.5l47 33 q2 -19 3 -51.5t1 -42.5q0 -55 -16 -146q46 -15 92.5 -27.5t87.5 -18.5q0 36 -25 88t-25 68q0 12 3.5 23t16.5 29l94 134q27 -63 38.5 -114.5t11.5 -128.5v-377q-110 0 -157 10t-175 56q-58 -41 -103.5 -54t-136.5 -13h-163q0 -232 -148 -334q-129 -89 -389 -89 q-243 0 -374.5 88.5t-131.5 251.5z" />
<glyph unicode="&#x633;" horiz-adv-x="1246" arabic-form="initial" d="M-70 293v272h143q105 0 175 59q91 77 91 234l66 -10q-2 -32 -4 -73t-2 -91q0 -51 35 -85t80 -34h123q122 0 174 34q63 41 63 153q0 24 15 43q9 11 37 33l38 30q2 -19 3 -51.5t1 -42.5q0 -55 -16 -146q37 -18 83 -31t97 -20q0 34 -25 88t-25 73q0 26 7 40q2 5 22 31 l85 115q27 -63 38.5 -114.5t11.5 -128.5v-378q-112 0 -186 16t-146 51q-58 -41 -103.5 -54t-136.5 -13h-163q-67 0 -106 35t-70 116q-55 -84 -123 -120q-58 -31 -139 -31h-143z" />
<glyph unicode="&#x633;" horiz-adv-x="1246" arabic-form="medial" d="M-70 293v272h143q105 0 175 59q91 77 91 234l66 -10q-2 -32 -4 -73t-2 -91q0 -51 35 -85t80 -34h123q122 0 174 34q63 41 63 153q0 24 15 43q9 11 37 33l38 30q2 -19 3 -51.5t1 -42.5q0 -55 -16 -146q37 -18 83 -31t97 -20q0 34 -25 88t-25 73q0 26 7 40q2 5 22 31 l85 115q27 -63 38.5 -114.5t11.5 -128.5v-378q-112 0 -186 16t-146 51q-58 -41 -103.5 -54t-136.5 -13h-163q-67 0 -106 35t-70 116q-55 -84 -123 -120q-58 -31 -139 -31h-143z" />
<glyph unicode="&#x634;" horiz-adv-x="1842" arabic-form="final" d="M64 210q0 139 42 254q46 127 180 330l60 -42q-99 -169 -129.5 -245t-30.5 -157q0 -105 112.5 -171.5t295.5 -66.5q180 0 303 69t123 169q0 62 -21.5 123t-92.5 195l88 270q71 -120 94 -198q20 -68 20 -175h92q151 0 210.5 35.5t59.5 127.5q0 40 7.5 58.5t35.5 38.5l47 33 q2 -19 3 -51.5t1 -42.5q0 -55 -16 -146q46 -15 92.5 -27.5t87.5 -18.5q0 36 -25 88t-25 68q0 12 3.5 23t16.5 29l94 134q27 -63 38.5 -114.5t11.5 -128.5v-377q-110 0 -157 10t-175 56q-58 -41 -103.5 -54t-136.5 -13h-163q0 -232 -148 -334q-129 -89 -389 -89 q-243 0 -374.5 88.5t-131.5 251.5zM1242 1072l104 194l148 -74l84 162l182 -102l-110 -204l-142 80l-80 -158zM1278 1381l102 204l186 -96l-100 -208z" />
<glyph unicode="&#x634;" horiz-adv-x="1246" arabic-form="initial" d="M-70 293v272h143q105 0 175 59q91 77 91 234l66 -10q-2 -32 -4 -73t-2 -91q0 -51 35 -85t80 -34h123q122 0 174 34q63 41 63 153q0 24 15 43q9 11 37 33l38 30q2 -19 3 -51.5t1 -42.5q0 -55 -16 -146q37 -18 83 -31t97 -20q0 34 -25 88t-25 73q0 26 7 40q2 5 22 31 l85 115q27 -63 38.5 -114.5t11.5 -128.5v-378q-112 0 -186 16t-146 51q-58 -41 -103.5 -54t-136.5 -13h-163q-67 0 -106 35t-70 116q-55 -84 -123 -120q-58 -31 -139 -31h-143zM612 1072l104 194l148 -74l84 162l182 -102l-110 -204l-142 80l-87 -158zM648 1381l102 204 l186 -96l-100 -208z" />
<glyph unicode="&#x634;" horiz-adv-x="1246" arabic-form="medial" d="M-70 293v272h143q105 0 175 59q91 77 91 234l66 -10q-2 -32 -4 -73t-2 -91q0 -51 35 -85t80 -34h123q122 0 174 34q63 41 63 153q0 24 15 43q9 11 37 33l38 30q2 -19 3 -51.5t1 -42.5q0 -55 -16 -146q37 -18 83 -31t97 -20q0 34 -25 88t-25 73q0 26 7 40q2 5 22 31 l85 115q27 -63 38.5 -114.5t11.5 -128.5v-378q-112 0 -186 16t-146 51q-58 -41 -103.5 -54t-136.5 -13h-163q-67 0 -106 35t-70 116q-55 -84 -123 -120q-58 -31 -139 -31h-143zM612 1072l104 194l148 -74l84 162l182 -102l-110 -204l-142 80l-87 -158zM648 1381l102 204 l186 -96l-100 -208z" />
<glyph unicode="&#x635;" horiz-adv-x="2176" arabic-form="final" d="M64 210q0 139 42 254q46 127 180 330l60 -42q-99 -169 -129.5 -245t-30.5 -157q0 -105 112.5 -171.5t295.5 -66.5q180 0 303 69t123 169q0 62 -21.5 123t-92.5 195l88 270q55 -106 62 -122q29 -61 40.5 -114t11.5 -137q65 0 118 33q6 4 99 70l358 256q84 59 126 80 q58 28 117 28q112 0 176 -79q74 -91 74 -277v-383h-1069q0 -233 -148 -335q-128 -88 -389 -88q-243 0 -374.5 88.5t-131.5 251.5zM1445 565h262q337 0 337 102q0 38 -62 67t-149 29q-66 0 -148.5 -42.5t-239.5 -155.5z" />
<glyph unicode="&#x635;" horiz-adv-x="1580" arabic-form="initial" d="M-70 293v272l143 1q116 0 176 58q70 68 90 234l68 -10q-3 -36 -4 -58q-4 -66 -4 -106q0 -57 30 -88t79 -31t90.5 20t130.5 83l358 256q63 45 95 64q73 44 141 44q112 0 179 -79q78 -92 78 -277v-383h-1059q-71 0 -113.5 35.5t-72.5 115.5q-64 -89 -122 -121 q-53 -29 -140 -29zM849 565h262q329 0 329 102q0 45 -71 73q-59 23 -132 23q-66 0 -148.5 -42.5t-239.5 -155.5z" />
<glyph unicode="&#x635;" horiz-adv-x="1580" arabic-form="medial" d="M-70 293v272l143 1q116 0 176 58q70 68 90 234l68 -10q-3 -36 -4 -58q-4 -66 -4 -106q0 -57 30 -88t79 -31t90.5 20t130.5 83l358 256q63 45 95 64q73 44 141 44q112 0 179 -79q78 -92 78 -277v-383h-1059q-71 0 -113.5 35.5t-72.5 115.5q-64 -89 -122 -121 q-53 -29 -140 -29zM849 565h262q329 0 329 102q0 45 -71 73q-59 23 -132 23q-66 0 -148.5 -42.5t-239.5 -155.5z" />
<glyph unicode="&#x636;" horiz-adv-x="2176" arabic-form="final" d="M64 210q0 139 42 254q46 127 180 330l60 -42q-99 -169 -129.5 -245t-30.5 -157q0 -105 112.5 -171.5t295.5 -66.5q180 0 303 69t123 169q0 62 -21.5 123t-92.5 195l88 270q55 -106 62 -122q29 -61 40.5 -114t11.5 -137q65 0 118 33q6 4 99 70l358 256q84 59 126 80 q58 28 117 28q112 0 176 -79q74 -91 74 -277v-383h-1069q0 -233 -148 -335q-128 -88 -389 -88q-243 0 -374.5 88.5t-131.5 251.5zM1304 1265l121 226l233 -124l-120 -224zM1445 565h262q337 0 337 102q0 38 -62 67t-149 29q-66 0 -148.5 -42.5t-239.5 -155.5z" />
<glyph unicode="&#x636;" horiz-adv-x="1580" arabic-form="initial" d="M-70 293v272l143 1q116 0 176 58q70 68 90 234l68 -10q-3 -36 -4 -58q-4 -66 -4 -106q0 -57 30 -88t79 -31t90.5 20t130.5 83l358 256q63 45 95 64q73 44 141 44q112 0 179 -79q78 -92 78 -277v-383h-1059q-71 0 -113.5 35.5t-72.5 115.5q-64 -89 -122 -121 q-53 -29 -140 -29zM728 1265l121 226l233 -124l-120 -224zM849 565h262q329 0 329 102q0 45 -71 73q-59 23 -132 23q-66 0 -148.5 -42.5t-239.5 -155.5z" />
<glyph unicode="&#x636;" horiz-adv-x="1580" arabic-form="medial" d="M-70 293v272l143 1q116 0 176 58q70 68 90 234l68 -10q-3 -36 -4 -58q-4 -66 -4 -106q0 -57 30 -88t79 -31t90.5 20t130.5 83l358 256q63 45 95 64q73 44 141 44q112 0 179 -79q78 -92 78 -277v-383h-1059q-71 0 -113.5 35.5t-72.5 115.5q-64 -89 -122 -121 q-53 -29 -140 -29zM728 1265l121 226l233 -124l-120 -224zM849 565h262q329 0 329 102q0 45 -71 73q-59 23 -132 23q-66 0 -148.5 -42.5t-239.5 -155.5z" />
<glyph unicode="&#x637;" horiz-adv-x="1072" arabic-form="final" d="M-70 293v272h133q24 0 135 83q37 27 107 84q0 123 -9 208t-29 177q-5 22 -54 217l-58 36q23 105 38 150.5t58 143.5l46 -18q0 -6 -4 -26q0 -35 99 -83q33 -16 99 -41q-10 -78 -32 -146q-11 -34 -40 -106l-36 12q31 -142 41.5 -209.5t10.5 -120.5v-11q0 -29 -1.5 -45.5 t-8.5 -51.5q52 38 105 76q81 57 145 92q84 46 128 46q118 0 189 -61q80 -69 80 -199v-479h-1142zM341 565h262q330 0 330 102q0 35 -74 65.5t-130 30.5q-66 0 -148.5 -42.5t-239.5 -155.5z" />
<glyph unicode="&#x637;" horiz-adv-x="1072" arabic-form="initial" d="M-70 293v272h133q24 0 135 83q37 27 107 84q0 123 -9 208t-29 177q-5 22 -54 217l-58 36q23 105 38 150.5t58 143.5l46 -18q0 -6 -4 -26q0 -35 99 -83q33 -16 99 -41q-10 -78 -32 -146q-11 -34 -40 -106l-36 12q31 -142 41.5 -209.5t10.5 -120.5v-11q0 -29 -1.5 -45.5 t-8.5 -51.5q52 38 105 76q81 57 145 92q84 46 128 46q118 0 189 -61q80 -69 80 -199v-479h-1142zM341 565h262q330 0 330 102q0 35 -74 65.5t-130 30.5q-66 0 -148.5 -42.5t-239.5 -155.5z" />
<glyph unicode="&#x637;" horiz-adv-x="1072" arabic-form="medial" d="M-70 293v272h133q24 0 135 83q37 27 107 84q0 123 -9 208t-29 177q-5 22 -54 217l-58 36q23 105 38 150.5t58 143.5l46 -18q0 -6 -4 -26q0 -35 99 -83q33 -16 99 -41q-10 -78 -32 -146q-11 -34 -40 -106l-36 12q31 -142 41.5 -209.5t10.5 -120.5v-11q0 -29 -1.5 -45.5 t-8.5 -51.5q52 38 105 76q81 57 145 92q84 46 128 46q118 0 189 -61q80 -69 80 -199v-479h-1142zM341 565h262q330 0 330 102q0 35 -74 65.5t-130 30.5q-66 0 -148.5 -42.5t-239.5 -155.5z" />
<glyph unicode="&#x638;" horiz-adv-x="1072" arabic-form="final" d="M-70 293v272h133q24 0 135 83q37 27 107 84q0 123 -9 208t-29 177q-5 22 -54 217l-58 36q23 105 38 150.5t58 143.5l46 -18q0 -6 -4 -26q0 -35 99 -83q33 -16 99 -41q-10 -78 -32 -146q-11 -34 -40 -106l-36 12q31 -142 41.5 -209.5t10.5 -120.5v-11q0 -29 -1.5 -45.5 t-8.5 -51.5q52 38 105 76q81 57 145 92q84 46 128 46q118 0 189 -61q80 -69 80 -199v-479h-1142zM341 565h262q330 0 330 102q0 35 -74 65.5t-130 30.5q-66 0 -148.5 -42.5t-239.5 -155.5zM562 1265l121 226l233 -124l-120 -224z" />
<glyph unicode="&#x638;" horiz-adv-x="1072" arabic-form="initial" d="M-70 293v272h133q24 0 135 83q37 27 107 84q0 123 -9 208t-29 177q-5 22 -54 217l-58 36q23 105 38 150.5t58 143.5l46 -18q0 -6 -4 -26q0 -35 99 -83q33 -16 99 -41q-10 -78 -32 -146q-11 -34 -40 -106l-36 12q31 -142 41.5 -209.5t10.5 -120.5v-11q0 -29 -1.5 -45.5 t-8.5 -51.5q52 38 105 76q81 57 145 92q84 46 128 46q118 0 189 -61q80 -69 80 -199v-479h-1142zM341 565h262q330 0 330 102q0 35 -74 65.5t-130 30.5q-66 0 -148.5 -42.5t-239.5 -155.5zM562 1265l121 226l233 -124l-120 -224z" />
<glyph unicode="&#x638;" horiz-adv-x="1072" arabic-form="medial" d="M-70 293v272h133q24 0 135 83q37 27 107 84q0 123 -9 208t-29 177q-5 22 -54 217l-58 36q23 105 38 150.5t58 143.5l46 -18q0 -6 -4 -26q0 -35 99 -83q33 -16 99 -41q-10 -78 -32 -146q-11 -34 -40 -106l-36 12q31 -142 41.5 -209.5t10.5 -120.5v-11q0 -29 -1.5 -45.5 t-8.5 -51.5q52 38 105 76q81 57 145 92q84 46 128 46q118 0 189 -61q80 -69 80 -199v-479h-1142zM341 565h262q330 0 330 102q0 35 -74 65.5t-130 30.5q-66 0 -148.5 -42.5t-239.5 -155.5zM562 1265l121 226l233 -124l-120 -224z" />
<glyph unicode="&#x639;" horiz-adv-x="960" arabic-form="final" d="M70 100q0 182 70 329t220 279q-12 74 -54 74q-16 0 -25 -9q-12 -15 -23 -27l-48 10q0 139 62 230q70 102 196 102q112 0 185 -62t73 -160q0 -59 -30 -112q-33 -58 -90 -86q50 -58 122 -85q49 -18 92 -18h140v-272h-140q-143 0 -229 56q-96 62 -173 221 q-112 -74 -173 -169.5t-61 -194.5q0 -177 156.5 -262.5t493.5 -85.5q52 0 110 1t106 3l6 -44l-368 -224q-325 0 -471.5 122.5t-146.5 383.5z" />
<glyph unicode="&#x639;" horiz-adv-x="1108" arabic-form="initial" d="M-70 293v272h108q29 0 43 1q30 4 59 6q-50 75 -67 121.5t-17 104.5q0 149 123.5 260.5t288.5 111.5q111 0 212 -73q93 -68 136 -165l-42 -36q-79 30 -125.5 39t-114.5 9q-124 0 -215 -20q-115 -25 -115 -72q0 -69 278 -228l508 146l-112 -284q-269 -83 -445 -128 q-153 -39 -258 -54q-77 -11 -155 -11h-90z" />
<glyph unicode="&#x639;" horiz-adv-x="738" arabic-form="medial" d="M-70 293v272h105q83 0 116.5 8.5t90.5 38.5q-30 59 -52 85q-27 31 -56 31q-11 0 -20.5 -7.5t-21.5 -28.5l-44 6q0 181 62.5 258.5t197.5 77.5q139 0 218.5 -54.5t79.5 -149.5q0 -51 -21 -97.5t-79 -126.5q14 -19 38 -30t46 -11h148v-272h-148q-79 0 -139 32t-97 103 q-65 -80 -169 -113q-69 -22 -150 -22h-105z" />
<glyph unicode="&#x63a;" horiz-adv-x="960" arabic-form="final" d="M70 100q0 182 70 329t220 279q-12 74 -54 74q-16 0 -25 -9q-12 -15 -23 -27l-48 10q0 139 62 230q70 102 196 102q112 0 185 -62t73 -160q0 -59 -30 -112q-33 -58 -90 -86q50 -58 122 -85q49 -18 92 -18h140v-272h-140q-143 0 -229 56q-96 62 -173 221 q-112 -74 -173 -169.5t-61 -194.5q0 -177 156.5 -262.5t493.5 -85.5q52 0 110 1t106 3l6 -44l-368 -224q-325 0 -471.5 122.5t-146.5 383.5zM293 1331l122 226l232 -124l-120 -224z" />
<glyph unicode="&#x63a;" horiz-adv-x="1108" arabic-form="initial" d="M-70 293v272h108q29 0 43 1q30 4 59 6q-50 75 -67 121.5t-17 104.5q0 149 123.5 260.5t288.5 111.5q111 0 212 -73q93 -68 136 -165l-42 -36q-79 30 -125.5 39t-114.5 9q-124 0 -215 -20q-115 -25 -115 -72q0 -69 278 -228l508 146l-112 -284q-269 -83 -445 -128 q-153 -39 -258 -54q-77 -11 -155 -11h-90zM229 1412l127 226l227 -124l-120 -224z" />
<glyph unicode="&#x63a;" horiz-adv-x="738" arabic-form="medial" d="M-70 293v272h105q83 0 116.5 8.5t90.5 38.5q-30 59 -52 85q-27 31 -56 31q-11 0 -20.5 -7.5t-21.5 -28.5l-44 6q0 181 62.5 258.5t197.5 77.5q139 0 218.5 -54.5t79.5 -149.5q0 -51 -21 -97.5t-79 -126.5q14 -19 38 -30t46 -11h148v-272h-148q-79 0 -139 32t-97 103 q-65 -80 -169 -113q-69 -22 -150 -22h-105zM127 1322l122 226l232 -124l-120 -224z" />
<glyph unicode="&#x641;" horiz-adv-x="1552" arabic-form="final" d="M47 552q0 114 22 199t102 275l66 -30q-72 -171 -72 -250q0 -103 81 -148q90 -50 311 -50q153 9 298 15.5t278 6.5q-41 20 -56.5 44.5t-15.5 71.5q0 143 87 285q94 153 207 153q106 0 154 -148q43 -134 43 -411v-272h-134q-175 0 -397 -8q-134 -5 -348 -15t-230 -10 q-213 0 -308 75q-88 70 -88 217zM1120 1370l120 226l234 -124l-120 -224zM1230 800q0 -31 43 -58t123 -50q-35 98 -58 129t-60 31q-19 0 -33.5 -14.5t-14.5 -37.5z" />
<glyph unicode="&#x641;" horiz-adv-x="624" arabic-form="initial" d="M-70 293v272h600q0 87 -5 124q-8 57 -33 99q-32 -62 -86 -95t-115 -33q-80 0 -135 53t-55 133q0 118 72 280q79 178 160 178q105 0 198 -183t93 -387v-441h-694zM125 1514l128 226l226 -124l-120 -224zM237 960q0 -23 18.5 -38.5t47.5 -15.5q23 0 46.5 13.5t57.5 46.5 q-27 47 -47.5 65.5t-44.5 18.5q-30 0 -54 -27t-24 -63z" />
<glyph unicode="&#x641;" horiz-adv-x="664" arabic-form="medial" d="M-70 293v272h180q46 0 87 -4q110 -12 251 -27q-149 33 -208.5 87.5t-59.5 158.5q0 155 71.5 279.5t160.5 124.5q101 0 176.5 -174.5t75.5 -421.5v-295h-734zM212 1370l121 226l233 -124l-120 -224zM310 846q0 -43 64.5 -83.5t153.5 -54.5q-36 86 -80 134t-88 48 q-20 0 -35 -13t-15 -31z" />
<glyph unicode="&#x642;" horiz-adv-x="1254" arabic-form="final" d="M39 86q0 147 46 267q51 132 190 325l60 -42q-91 -132 -129.5 -223t-38.5 -177q0 -122 126 -190t354 -68q206 0 364 80t158 182q0 13 -0.5 27t-5.5 33q-105 -10 -156 -10q-110 0 -172 55t-62 155q0 147 74 293q80 157 178 157q108 0 171 -155q58 -142 58 -353v-176 q0 -197 -22 -260.5t-105 -129.5q-181 -142 -512 -142q-278 0 -427 91t-149 261zM694 1066l104 194l148 -74l84 162l182 -102l-110 -204l-142 80l-80 -158zM897 624q0 -66 84 -66q30 0 44 1.5t48 6.5q-27 62 -55 88t-67 26q-25 0 -39.5 -15.5t-14.5 -40.5z" />
<glyph unicode="&#x642;" horiz-adv-x="624" arabic-form="initial" d="M-70 293v272h600q0 87 -5 124q-8 57 -33 99q-32 -62 -86 -95t-115 -33q-80 0 -135 53t-55 133q0 118 72 280q79 178 160 178q105 0 198 -183t93 -387v-441h-694zM11 1446l104 194l148 -74l84 162l182 -102l-110 -204l-142 80l-80 -158zM237 960q0 -23 18.5 -38.5 t47.5 -15.5q23 0 46.5 13.5t57.5 46.5q-27 47 -47.5 65.5t-44.5 18.5q-30 0 -54 -27t-24 -63z" />
<glyph unicode="&#x642;" horiz-adv-x="664" arabic-form="medial" d="M-70 293v272h180q46 0 87 -4q110 -12 251 -27q-149 33 -208.5 87.5t-59.5 158.5q0 155 71.5 279.5t160.5 124.5q101 0 176.5 -174.5t75.5 -421.5v-295h-734zM21 1316l104 194l148 -74l84 162l182 -102l-110 -204l-142 80l-80 -158zM310 846q0 -43 64.5 -83.5t153.5 -54.5 q-36 86 -80 134t-88 48q-20 0 -35 -13t-15 -31z" />
<glyph unicode="&#x643;" horiz-adv-x="1108" arabic-form="final" d="M41 572q0 93 28.5 182.5t97.5 213.5l60 -42q-39 -77 -50.5 -114.5t-11.5 -79.5q0 -96 71 -131.5t271 -35.5h481l-121 679l-64 42q0 59 18 119q23 76 78 181l46 -24q0 -6 -4 -32q0 -33 42 -64q37 -28 118 -62q-9 -64 -26.5 -125t-39.5 -109l-36 14l109 -619v-272h-671 q-216 0 -311 74q-85 66 -85 205zM327 770l12 64h18q99 0 182.5 27.5t83.5 64.5q0 14 -10 19.5t-40 8.5q-96 0 -96 84q0 60 23.5 133.5t66.5 148.5q28 46 57 68t87 40q-2 -39 -3 -85t-1 -81q-54 -15 -90 -42q-32 -24 -32 -42q0 -21 68 -30q62 0 87 -25t25 -85 q0 -133 -78.5 -207.5t-219.5 -74.5q-39 0 -62.5 2t-77.5 12z" />
<glyph unicode="&#x643;" horiz-adv-x="738" arabic-form="initial" d="M-70 293v272h649q-39 47 -76 82q-30 28 -81 68q-57 44 -113 88l-32 -36q-89 88 -106 107q-50 57 -50 131q0 101 14 142q20 58 85 103q58 40 124 73q52 26 138 61q40 16 169 66v-238q-5 0 -84 -26q-98 -32 -156 -56q-84 -34 -84 -51q0 -9 71 -78q97 -94 163 -172 q109 -129 177 -257v-279h-808z" />
<glyph unicode="&#x643;" horiz-adv-x="738" arabic-form="medial" d="M-70 293v272h649q-39 47 -76 82q-30 28 -81 68q-57 44 -113 88l-32 -36q-89 88 -106 107q-50 57 -50 131q0 101 14 142q20 58 85 103q58 40 124 73q52 26 138 61q40 16 169 66v-238q-5 0 -84 -26q-98 -32 -156 -56q-84 -34 -84 -51q0 -9 71 -78q97 -94 163 -172 q109 -129 177 -257v-279h-808z" />
<glyph unicode="&#x644;" horiz-adv-x="924" arabic-form="final" d="M35 254q0 145 36 253q41 122 160 299l62 -42q-78 -117 -111 -203t-33 -171q0 -91 67.5 -140.5t190.5 -49.5q176 0 286 68t110 178v30v17q0 39 -6.5 86t-33.5 194q-43 237 -86 475l-50 36q0 98 92 300l46 -22q-4 -14 -4 -32q0 -40 41 -65q61 -34 115 -65q-11 -86 -22 -123 t-46 -111l-30 12q0 -15 28.5 -170.5t48.5 -268.5q28 -162 28 -197v-224q0 -154 -160 -273t-365 -119q-171 0 -267.5 86.5t-96.5 241.5z" />
<glyph unicode="&#x644;" horiz-adv-x="480" arabic-form="initial" d="M-70 293v272h430l-121 679l-64 42q0 59 18 119q23 76 78 181l46 -24q0 -6 -4 -32q0 -33 42 -64q37 -28 118 -62q-9 -64 -26.5 -125t-39.5 -109l-36 14l109 -619v-272h-550z" />
<glyph unicode="&#x644;" horiz-adv-x="480" arabic-form="medial" d="M-70 293v272h430l-121 679l-64 42q0 59 18 119q23 76 78 181l46 -24q0 -6 -4 -32q0 -33 42 -64q37 -28 118 -62q-9 -64 -26.5 -125t-39.5 -109l-36 14l109 -619v-272h-550z" />
<glyph unicode="&#x645;" horiz-adv-x="738" arabic-form="final" d="M33 192q0 47 26 117q21 57 48 101q32 50 111.5 79t242.5 47q-80 112 -140 112q-26 0 -49 -20t-75 -88l-48 24q44 153 108.5 235.5t141.5 82.5q67 0 149 -77t190 -240v-272l-130 1q-183 0 -324 -31t-141 -71q39 -120 69.5 -225t30.5 -199q0 -68 -13.5 -110t-50.5 -92 q-11 132 -49 277q-13 51 -65 215q-32 101 -32 134z" />
<glyph unicode="&#x645;" horiz-adv-x="850" arabic-form="initial" d="M-70 293v272h198q90 0 143 22q68 28 94 97q57 127 146 209q79 73 134 73q51 0 126 -154q79 -163 79 -300v-218q-105 0 -247 41q-125 36 -220 85q-58 -87 -143 -114q-41 -13 -112 -13h-198zM471 642q52 -20 79 -30q81 -30 91 -30q22 0 22 14q0 22 -43 76q-48 60 -83 60 q-39 0 -66 -90z" />
<glyph unicode="&#x645;" horiz-adv-x="850" arabic-form="medial" d="M-70 293v272h198q90 0 143 22q68 28 94 97q57 127 146 209q79 73 134 73q51 0 126 -154q79 -163 79 -300v-218q-105 0 -247 41q-125 36 -220 85q-58 -87 -143 -114q-41 -13 -112 -13h-198zM471 642q52 -20 79 -30q81 -30 91 -30q22 0 22 14q0 22 -43 76q-48 60 -83 60 q-39 0 -66 -90z" />
<glyph unicode="&#x646;" horiz-adv-x="1108" arabic-form="final" d="M62 210q0 139 42 254q46 127 180 330l60 -42q-99 -169 -129.5 -245t-30.5 -157q0 -105 112.5 -171.5t295.5 -66.5q180 0 303 69t123 169q0 62 -21.5 123t-92.5 195l88 270q70 -127 86 -175q30 -87 30 -221v-200q0 -138 -27 -221.5t-88.5 -134.5t-180 -83.5t-244.5 -32.5 q-243 0 -374.5 88.5t-131.5 251.5zM425 1027l121 226l233 -124l-120 -224z" />
<glyph unicode="&#x646;" horiz-adv-x="556" arabic-form="initial" d="M-70 293v272h526q-11 68 -40 115q-15 26 -70 90l80 238q75 -85 102.5 -178t27.5 -276v-261h-626zM208 1280l121 226l233 -124l-120 -224z" />
<glyph unicode="&#x646;" horiz-adv-x="556" arabic-form="medial" d="M-70 293v272h526q-11 68 -40 115q-15 26 -70 90l80 238q75 -85 102.5 -178t27.5 -276v-261h-626zM208 1280l121 226l233 -124l-120 -224z" />
<glyph unicode="&#x647;" horiz-adv-x="702" arabic-form="isolated" d="M88 456q0 82 23.5 161t84.5 199l-36 24q17 46 46 111.5t52 110.5l98 -58q64 -39 122 -84q82 -62 113 -116.5t31 -135.5q0 -60 -9.5 -121.5t-24.5 -100.5q-28 -76 -138 -134q-102 -54 -192 -54q-78 0 -124 54t-46 144zM204 602q0 -32 26.5 -55t63.5 -23q50 0 115 23.5 t65 40.5q0 19 -69.5 79t-136.5 103q-64 -101 -64 -168z" />
<glyph unicode="&#x647;" horiz-adv-x="850" arabic-form="final" d="M3 612q0 27 69.5 170.5t100.5 177.5q25 27 89 70q38 26 108 67l53 31q-3 14 -4.5 28.5t-1.5 27.5q0 38 17.5 95.5t62.5 142.5l96 -624q23 -147 60 -199q24 -34 66 -34h131v-272h-131q-36 0 -66 15q-58 29 -98 106q-54 106 -70 290q-68 -84 -106 -119q-55 -51 -92 -51 q-19 0 -48 6l-122 24q-78 16 -96 23t-18 25zM243 830q0 -14 35 -22t69 -8q22 0 46 12.5t68 45.5l-20 120q-32 -15 -50 -24q-55 -29 -88 -54q-24 -20 -40 -37q-20 -22 -20 -33z" />
<glyph unicode="&#x647;" horiz-adv-x="924" arabic-form="medial" d="M-70 293v272h90q54 0 110 10q63 14 88 19q111 301 196 435q75 117 138 117q51 0 88 -100q32 -86 32 -170q0 -116 -46 -198q-50 -90 -150 -132q73 12 133 15.5t111 3.5h204v-272h-204q-23 0 -47 -0.5t-71 -4.5q36 -21 72 -41q34 -26 34 -67q0 -39 -11 -83q-6 -25 -29 -89 q-42 -125 -78 -169.5t-92 -44.5q-139 0 -239.5 146.5t-100.5 352.5h-228zM272 276q16 -88 92 -153t164 -65q30 0 30 22q0 56 -64 106q-77 60 -222 90zM314 618q115 40 158.5 68.5t43.5 63.5q0 26 -19 64t-39 38q-26 0 -60.5 -56.5t-83.5 -177.5z" />
<glyph unicode="&#x648;" horiz-adv-x="924" arabic-form="final" d="M6 116l42 58q108 -72 177 -96q57 -20 129 -20q97 0 192 54q112 64 232 206q-42 -6 -70 -6q-99 0 -157.5 64.5t-58.5 175.5q0 150 69 289q75 151 171 151q80 0 136 -109t56 -263v-258q0 -172 -146 -340t-288 -168q-83 0 -181.5 53t-302.5 209zM622 648q0 -36 39.5 -59.5 t104.5 -23.5h38q-28 161 -114 161q-31 0 -49.5 -24.5t-18.5 -53.5z" />
<glyph unicode="&#x649;" horiz-adv-x="1135" arabic-form="final" d="M10 -62q0 158 38 274q46 140 188 366l56 -42q-94 -160 -129 -255t-35 -187t59 -145t163 -53q127 0 273 39q132 35 226.5 84.5t94.5 81.5q0 10 -56 12t-100 2q-106 0 -137 8t-31 37q0 54 19.5 114t46.5 92q66 80 156 136q101 63 181 63h112v-272h-85q-37 0 -59.5 -6 t-22.5 -17q0 -6 49 -25t49 -59q0 -55 -16.5 -132.5t-45.5 -139.5q-22 -48 -123 -110q-108 -66 -245 -110q-157 -50 -298 -50q-162 0 -245 75t-83 219z" />
<glyph unicode="&#x64a;" horiz-adv-x="1182" arabic-form="final" d="M17 82q0 122 51 233q62 134 229 339l60 -42q-105 -127 -145.5 -207t-40.5 -157q0 -107 88.5 -158.5t273.5 -51.5q96 0 266 35t170 61q0 12 -65 22t-143 10q-114 0 -114 50q0 23 27 82q19 41 39 82q37 83 141.5 134t218.5 51h109v-272h-103q-45 0 -64.5 -2t-19.5 -13 q29 -17 54.5 -23.5t33.5 -17t8 -33.5q0 -71 -40.5 -169.5t-79.5 -122.5q-37 -31 -219.5 -71.5t-314.5 -40.5q-188 0 -304 78t-116 204zM359 -364l94 120l110 -70l78 90l126 -80l-98 -112l-106 66l-78 -84z" />
<glyph unicode="&#x64a;" horiz-adv-x="556" arabic-form="initial" d="M-70 293v272h526q-11 68 -40 115q-15 26 -70 90l80 238q75 -85 102.5 -178t27.5 -276v-261h-626zM22 -63l104 194l148 -74l84 162l182 -102l-110 -204l-142 80l-80 -158z" />
<glyph unicode="&#x64a;" horiz-adv-x="556" arabic-form="medial" d="M-70 293v272h526q-11 68 -40 115q-15 26 -70 90l80 238q75 -85 102.5 -178t27.5 -276v-261h-626zM22 -63l104 194l148 -74l84 162l182 -102l-110 -204l-142 80l-80 -158z" />
<glyph unicode="&#xd;" horiz-adv-x="569" />
<glyph unicode=" "  horiz-adv-x="569" />
<glyph unicode="&#x09;" horiz-adv-x="569" />
<glyph unicode="&#xa0;" horiz-adv-x="569" />
<glyph unicode="!" horiz-adv-x="682" d="M184 1122v344h304v-344l-72 -744h-159zM196 0v281h281v-281h-281z" />
<glyph unicode="&#x22;" horiz-adv-x="971" d="M112 1218v248h306v-248l-46 -273h-207zM563 1218v248h306v-248l-46 -273h-207z" />
<glyph unicode="#" horiz-adv-x="1139" d="M18 365v220h180l60 295h-240v221h285l79 390h224l-79 -390h221l77 390h232l-80 -390h138v-221h-183l-60 -295h243v-220h-288l-79 -390h-223l77 390h-222l-79 -390h-226l79 390h-136zM424 585h222l58 295h-221z" />
<glyph unicode="$" horiz-adv-x="1139" d="M70 411l261 28q16 -80 60 -138t98 -84v419q-196 56 -287.5 169.5t-91.5 275.5q0 164 103.5 275.5t275.5 128.5v99h145v-99q159 -19 253 -108.5t120 -239.5l-253 -33q-23 118 -120 160v-391q240 -65 327 -168.5t87 -265.5q0 -181 -109.5 -305t-304.5 -152v-187h-145v182 q-173 21 -281 129t-138 305zM360 1093q0 -53 32 -98.5t97 -73.5v346q-59 -20 -94 -68t-35 -106zM634 203q75 14 122 69.5t47 130.5q0 67 -39.5 115.5t-129.5 74.5v-390z" />
<glyph unicode="%" horiz-adv-x="1821" d="M89 1104q0 197 86.5 292t234.5 95q153 0 239.5 -94.5t86.5 -292.5q0 -197 -86.5 -292t-234.5 -95q-153 0 -239.5 94.5t-86.5 292.5zM308 1106q0 -143 33 -192q25 -36 69 -36q45 0 70 36q32 49 32 192t-32 191q-25 37 -70 37q-44 0 -69 -36q-33 -49 -33 -192zM416 -56 l781 1547h202l-775 -1547h-208zM1078 329q0 197 86.5 292t236.5 95q151 0 237.5 -95t86.5 -292q0 -198 -86.5 -293t-234.5 -95q-153 0 -239.5 95t-86.5 293zM1297 330q0 -143 33 -191q25 -37 69 -37q45 0 69 36q33 49 33 192t-32 192q-25 36 -70 36t-69 -36 q-33 -49 -33 -192z" />
<glyph unicode="&#x26;" horiz-adv-x="1479" d="M90 402q0 141 84 253.5t251 195.5q-75 89 -113 169.5t-38 152.5q0 133 106.5 225.5t303.5 92.5q190 0 297 -97t107 -237q0 -89 -53 -169t-214 -181l204 -269q36 64 62 167l254 -58q-38 -135 -66 -197.5t-60 -104.5q47 -44 121.5 -96.5t109.5 -69.5l-170 -217 q-125 61 -240 168q-89 -80 -189 -118t-238 -38q-274 0 -412 154q-107 119 -107 274zM378 412q0 -91 59.5 -148.5t159.5 -57.5q66 0 127 26t133 86l-286 353q-97 -49 -145 -118t-48 -141zM548 1182q0 -52 64 -126l69 -80l76 58q84 65 84 129q0 54 -40.5 92t-109.5 38 q-67 0 -105 -33.5t-38 -77.5z" />
<glyph unicode="'" horiz-adv-x="487" d="M92 1218v248h306v-248l-46 -273h-207z" />
<glyph unicode="(" horiz-adv-x="682" d="M107 531q0 289 99 547q86 224 218 413h192q-137 -303 -188.5 -515.5t-51.5 -450.5q0 -164 30.5 -336t83.5 -327q35 -102 123 -293h-193q-153 231 -233 480t-80 482z" />
<glyph unicode=")" horiz-adv-x="682" d="M67 1491h191q151 -215 234.5 -456t83.5 -489q0 -209 -66 -448q-75 -268 -247 -529h-194q83 178 117 273t63 219t43 235.5t14 228.5q0 238 -51 450.5t-188 515.5z" />
<glyph unicode="*" horiz-adv-x="797" d="M28 1166l59 176q131 -53 234 -117q-24 163 -24 266h178q0 -73 -27 -268q20 8 86 39q90 41 166 70l53 -181q-111 -25 -257 -49l120 -135q36 -41 57 -67l-153 -101l-135 223q-61 -108 -140 -230l-151 117q72 81 150 155q31 30 39 38q-25 4 -143 33q-85 21 -112 31z" />
<glyph unicode="+" horiz-adv-x="1196" d="M85 592v263h384v381h256v-381h385v-263h-385v-381h-256v381h-384z" />
<glyph unicode="," horiz-adv-x="569" d="M117 -211q85 28 121 77t38 134h-136v281h281v-201q0 -122 -21 -192.5t-79.5 -126.5t-148.5 -88z" />
<glyph unicode="-" horiz-adv-x="682" d="M115 391v281h552v-281h-552z" />
<glyph unicode="." horiz-adv-x="569" d="M147 0v281h281v-281h-281z" />
<glyph unicode="/" horiz-adv-x="569" d="M-3 -25l363 1516h211l-367 -1516h-207z" />
<glyph unicode="0" horiz-adv-x="1139" d="M86 726q0 414 144 596q119 150 332 150t333 -152q143 -180 143 -597q0 -416 -144 -598q-119 -150 -332 -150q-214 0 -345 164.5t-131 586.5zM380 723q0 -258 26 -354.5t65.5 -128.5t90.5 -32t91 32.5t62 116.5q29 108 29 366t-26 354.5t-65.5 129t-90.5 32.5t-91 -32.5 t-62 -116.5q-29 -109 -29 -367z" />
<glyph unicode="1" horiz-adv-x="1139" d="M162 846v255q110 36 239 136.5t177 234.5h228v-1472h-281v1059q-154 -144 -363 -213z" />
<glyph unicode="2" horiz-adv-x="1139" d="M51 0q16 148 96 280.5t316 351.5q190 177 233 240q58 87 58 172q0 94 -50.5 144.5t-139.5 50.5q-88 0 -140 -53t-60 -176l-280 28q25 232 157 333t330 101q217 0 341 -117t124 -291q0 -99 -35.5 -188.5t-112.5 -187.5q-51 -65 -184 -187t-168.5 -162t-57.5 -78h558v-261 h-985z" />
<glyph unicode="3" horiz-adv-x="1139" d="M77 389l272 33q13 -104 70 -159t138 -55q87 0 146.5 66t59.5 178q0 106 -57 168t-139 62q-54 0 -129 -21l31 229q114 -3 174 49.5t60 139.5q0 74 -44 118t-117 44q-72 0 -123 -50t-62 -146l-259 44q27 133 81.5 212.5t152 125t218.5 45.5q207 0 332 -132 q103 -108 103 -244q0 -193 -211 -308q126 -27 201.5 -121t75.5 -227q0 -193 -141 -329t-351 -136q-199 0 -330 114.5t-152 299.5z" />
<glyph unicode="4" horiz-adv-x="1139" d="M38 295v246l636 931h236v-930h182v-247h-182v-295h-272v295h-600zM301 542h337v501z" />
<glyph unicode="5" horiz-adv-x="1139" d="M91 377l280 29q12 -95 71 -150.5t136 -55.5q88 0 149 71.5t61 215.5q0 135 -60.5 202.5t-157.5 67.5q-121 0 -217 -107l-228 33l144 763h743v-263h-530l-44 -249q94 47 192 47q187 0 317 -136t130 -353q0 -181 -105 -323q-143 -194 -397 -194q-203 0 -331 109t-153 293z " />
<glyph unicode="6" horiz-adv-x="1139" d="M87 713q0 403 149 581t387 178q167 0 276.5 -93.5t139.5 -271.5l-272 -30q-10 84 -52 124t-109 40q-89 0 -150.5 -80t-77.5 -333q105 124 261 124q176 0 301.5 -134t125.5 -346q0 -225 -132 -361t-339 -136q-222 0 -365 172.5t-143 565.5zM402 494q0 -137 63 -211.5 t144 -74.5q78 0 130 61t52 200q0 143 -56 209.5t-140 66.5q-81 0 -137 -63.5t-56 -187.5z" />
<glyph unicode="7" horiz-adv-x="1139" d="M87 1185v261h961v-204q-119 -117 -242 -336t-187.5 -465.5t-63.5 -440.5h-271q7 304 125.5 620t316.5 565h-639z" />
<glyph unicode="8" horiz-adv-x="1139" d="M83 419q0 119 59 218.5t186 153.5q-109 46 -158.5 126.5t-49.5 176.5q0 164 114.5 271t325.5 107q209 0 324.5 -107t115.5 -271q0 -102 -53 -181.5t-149 -121.5q122 -49 185.5 -143t63.5 -217q0 -203 -129.5 -330t-344.5 -127q-200 0 -333 105q-157 124 -157 340z M360 446q0 -116 59.5 -181t148.5 -65q87 0 144 62.5t57 180.5q0 103 -58 165.5t-147 62.5q-103 0 -153.5 -71t-50.5 -154zM386 1074q0 -84 47.5 -131t126.5 -47q80 0 128 47.5t48 131.5q0 79 -47.5 126.5t-125.5 47.5q-81 0 -129 -48t-48 -127z" />
<glyph unicode="9" horiz-adv-x="1139" d="M65 976q0 223 132.5 359.5t337.5 136.5q223 0 366 -172.5t143 -567.5q0 -402 -149 -580t-388 -178q-172 0 -278 91.5t-136 273.5l272 30q10 -83 52 -123t111 -40q87 0 148 80t78 332q-106 -123 -265 -123q-173 0 -298.5 133.5t-125.5 347.5zM341 976q0 -142 56 -208.5 t140 -66.5q81 0 136.5 64t55.5 188q0 136 -62.5 211t-144.5 75q-78 0 -129.5 -61.5t-51.5 -201.5z" />
<glyph unicode=":" horiz-adv-x="682" d="M201 0v281h281v-281h-281zM201 781v281h281v-281h-281z" />
<glyph unicode=";" horiz-adv-x="682" d="M170 -211q85 28 121 78t38 133h-136v281h281v-201q0 -122 -21 -192.5t-79.5 -126.5t-148.5 -88zM193 781v281h281v-281h-281z" />
<glyph unicode="&#x3c;" horiz-adv-x="1196" d="M95 604v242l1005 435v-285l-701 -268l701 -278v-283z" />
<glyph unicode="=" horiz-adv-x="1196" d="M85 372v259h1025v-259h-1025zM85 816v258h1025v-258h-1025z" />
<glyph unicode="&#x3e;" horiz-adv-x="1196" d="M95 166v283l702 276l-702 273v281l1006 -435v-240z" />
<glyph unicode="?" horiz-adv-x="1251" d="M106 1052q11 179 152.5 304t371.5 125q242 0 385 -126.5t143 -294.5q0 -93 -52.5 -176t-224.5 -226q-89 -74 -110.5 -119t-19.5 -161h-255q-1 55 -1 67q0 124 41 204t164 180t147 131q37 49 37 108q0 82 -65.5 140.5t-176.5 58.5q-107 0 -179 -61t-99 -186zM496 0v281 h281v-281h-281z" />
<glyph unicode="@" horiz-adv-x="1997" d="M61 483q0 281 133 523.5t364 364t528 121.5q252 0 448 -98t299.5 -278.5t103.5 -394.5q0 -255 -157 -461q-197 -260 -505 -260q-83 0 -125 29t-56 85q-118 -114 -272 -114q-166 0 -275.5 114.5t-109.5 304.5q0 235 132 429q160 236 410 236q178 0 263 -136l25 111h264 l-151 -717q-14 -68 -14 -88q0 -25 11.5 -37.5t27.5 -12.5q48 0 124 58q102 76 165 204t63 265q0 246 -178 411.5t-497 165.5q-271 0 -459.5 -110.5t-284 -311t-95.5 -417.5q0 -211 106.5 -384t299 -252.5t440.5 -79.5q239 0 411 66.5t277 199.5h213q-100 -203 -307 -318 q-237 -132 -578 -132q-330 0 -570 111.5t-357 329t-117 473.5zM696 430q0 -127 51.5 -187t127.5 -60q57 0 107 28q38 20 75 63q53 61 91.5 178t38.5 218q0 113 -52.5 173.5t-132.5 60.5q-86 0 -159 -66.5t-110 -189.5t-37 -218z" />
<glyph unicode="A" horiz-adv-x="1479" d="M0 0l571 1466h313l587 -1466h-322l-128 333h-586l-121 -333h-314zM526 580h400l-202 544z" />
<glyph unicode="B" horiz-adv-x="1479" d="M150 0v1466h586q174 0 259.5 -14.5t153 -60.5t112.5 -122.5t45 -171.5q0 -103 -55.5 -189t-150.5 -129q134 -39 206 -133t72 -221q0 -100 -46.5 -194.5t-127 -151t-198.5 -69.5q-74 -8 -357 -10h-499zM446 247h274q160 0 203 9q66 12 107.5 58.5t41.5 124.5q0 66 -32 112 t-92.5 67t-262.5 21h-239v-392zM446 883h194q173 0 215 5q76 9 119.5 52.5t43.5 114.5q0 68 -37.5 110.5t-111.5 51.5q-44 5 -253 5h-170v-339z" />
<glyph unicode="C" horiz-adv-x="1479" d="M97 720q0 366 189 568.5t497 202.5q269 0 437 -159q100 -94 150 -270l-293 -70q-26 114 -108.5 180t-200.5 66q-163 0 -264.5 -117t-101.5 -379q0 -278 100 -396t260 -118q118 0 203 75t122 236l287 -91q-66 -240 -219.5 -356.5t-389.5 -116.5q-292 0 -480 199.5 t-188 545.5z" />
<glyph unicode="D" horiz-adv-x="1479" d="M148 0v1466h541q183 0 279 -28q129 -38 221 -135t140 -237.5t48 -346.5q0 -181 -45 -312q-55 -160 -157 -259q-77 -75 -208 -117q-98 -31 -262 -31h-557zM444 247h221q124 0 179 14q72 18 119.5 61t77.5 141.5t30 268.5t-30 261t-84 142t-137 69q-62 14 -243 14h-133 v-971z" />
<glyph unicode="E" horiz-adv-x="1366" d="M149 0v1466h1087v-248h-791v-325h736v-247h-736v-399h819v-247h-1115z" />
<glyph unicode="F" horiz-adv-x="1251" d="M151 0v1466h1005v-248h-709v-347h612v-248h-612v-623h-296z" />
<glyph unicode="G" horiz-adv-x="1593" d="M98 738q0 229 96 407t281 273q141 73 351 73q273 0 426.5 -114.5t197.5 -316.5l-294 -55q-31 108 -116.5 170.5t-213.5 62.5q-194 0 -308.5 -123t-114.5 -365q0 -261 116 -391.5t304 -130.5q93 0 186.5 36.5t160.5 88.5v186h-339v247h638v-584q-93 -90 -269.5 -158.5 t-357.5 -68.5q-230 0 -401 96.5t-257 276t-86 390.5z" />
<glyph unicode="H" horiz-adv-x="1479" d="M150 0v1466h296v-577h580v577h296v-1466h-296v641h-580v-641h-296z" />
<glyph unicode="I" horiz-adv-x="569" d="M140 0v1466h296v-1466h-296z" />
<glyph unicode="J" horiz-adv-x="1139" d="M35 453l279 32q5 -126 37 -178q48 -79 146 -79q99 0 140 56.5t41 234.5v947h295v-928q0 -182 -32 -280q-43 -128 -156 -205.5t-298 -77.5q-217 0 -334 121.5t-118 356.5z" />
<glyph unicode="K" horiz-adv-x="1479" d="M153 0v1466h296v-651l598 651h398l-552 -571l582 -895h-383l-403 688l-240 -245v-443h-296z" />
<glyph unicode="L" horiz-adv-x="1251" d="M157 0v1454h296v-1207h736v-247h-1032z" />
<glyph unicode="M" horiz-adv-x="1706" d="M145 0v1466h443l266 -1000l263 1000h444v-1466h-275v1154l-291 -1154h-285l-290 1154v-1154h-275z" />
<glyph unicode="N" horiz-adv-x="1479" d="M152 0v1466h288l600 -979v979h275v-1466h-297l-591 956v-956h-275z" />
<glyph unicode="O" horiz-adv-x="1593" d="M89 724q0 224 67 376q50 112 136.5 201t189.5 132q137 58 316 58q324 0 518.5 -201t194.5 -559q0 -355 -193 -555.5t-516 -200.5q-327 0 -520 199.5t-193 549.5zM394 734q0 -249 115 -377.5t292 -128.5t290.5 127.5t113.5 382.5q0 252 -110.5 376t-293.5 124t-295 -125.5 t-112 -378.5z" />
<glyph unicode="P" horiz-adv-x="1366" d="M149 0v1466h475q270 0 352 -22q126 -33 211 -143.5t85 -285.5q0 -135 -49 -227t-124.5 -144.5t-153.5 -69.5q-106 -21 -307 -21h-193v-553h-296zM445 802h162q175 0 234 23t92.5 72t33.5 114q0 80 -47 132t-119 65q-53 10 -213 10h-143v-416z" />
<glyph unicode="Q" horiz-adv-x="1593" d="M89 733q0 359 192 558.5t521 199.5q326 0 517 -199.5t191 -558.5q0 -190 -53 -334q-40 -110 -128 -213q109 -78 237 -124l-109 -209q-67 20 -131 55q-14 7 -197 130q-144 -63 -319 -63q-338 0 -529.5 199t-191.5 559zM394 733q0 -257 112.5 -384.5t284.5 -127.5 q64 0 121 21q-90 59 -183 92l83 169q146 -50 279 -150q57 67 85.5 162t28.5 218q0 254 -112 379.5t-293 125.5t-293.5 -126t-112.5 -379z" />
<glyph unicode="R" horiz-adv-x="1479" d="M150 0v1466h623q235 0 341.5 -39.5t170.5 -140.5t64 -231q0 -165 -97 -272.5t-290 -135.5q96 -56 158.5 -123t168.5 -238l179 -286h-354l-214 319q-114 171 -156 215.5t-89 61t-149 16.5h-60v-612h-296zM446 846h219q213 0 266 18t83 62t30 110q0 74 -39.5 119.5 t-111.5 57.5q-36 5 -216 5h-231v-372z" />
<glyph unicode="S" horiz-adv-x="1366" d="M74 477l288 28q26 -145 105.5 -213t214.5 -68q143 0 215.5 60.5t72.5 141.5q0 52 -30.5 88.5t-106.5 63.5q-52 18 -237 64q-238 59 -334 145q-135 121 -135 295q0 112 63.5 209.5t183 148.5t288.5 51q276 0 415.5 -121t146.5 -323l-296 -13q-19 113 -81.5 162.5 t-187.5 49.5q-129 0 -202 -53q-47 -34 -47 -91q0 -52 44 -89q56 -47 272 -98t319.5 -105.5t162 -149t58.5 -233.5q0 -126 -70 -236t-198 -163.5t-319 -53.5q-278 0 -427 128.5t-178 374.5z" />
<glyph unicode="T" horiz-adv-x="1251" d="M44 1218v248h1165v-248h-434v-1218h-296v1218h-435z" />
<glyph unicode="U" horiz-adv-x="1479" d="M147 684v782h296v-794q0 -189 11 -245q19 -90 90.5 -144.5t195.5 -54.5q126 0 190 51.5t77 126.5t13 249v811h296v-770q0 -264 -24 -373t-88.5 -184t-172.5 -119.5t-282 -44.5q-210 0 -318.5 48.5t-171.5 126t-83 162.5q-29 126 -29 372z" />
<glyph unicode="V" horiz-adv-x="1366" d="M-1 1466h321l371 -1085l359 1085h314l-525 -1466h-316z" />
<glyph unicode="W" horiz-adv-x="1933" d="M7 1466h303l221 -1007l268 1007h352l257 -1024l225 1024h298l-356 -1466h-314l-292 1096l-291 -1096h-321z" />
<glyph unicode="X" horiz-adv-x="1366" d="M0 0l501 765l-454 701h346l294 -471l288 471h343l-456 -712l501 -754h-357l-325 507l-326 -507h-355z" />
<glyph unicode="Y" horiz-adv-x="1366" d="M-3 1466h347l345 -580l338 580h341l-539 -851v-615h-295v617z" />
<glyph unicode="Z" horiz-adv-x="1251" d="M22 0v267l770 951h-683v248h1073v-230l-803 -989h834v-247h-1191z" />
<glyph unicode="[" horiz-adv-x="682" d="M146 -413v1879h498v-221h-231v-1437h231v-221h-498z" />
<glyph unicode="\" horiz-adv-x="569" d="M-3 1491h207l367 -1516h-211z" />
<glyph unicode="]" horiz-adv-x="682" d="M38 -192h231v1439h-231v219h498v-1879h-498v221z" />
<glyph unicode="^" horiz-adv-x="1196" d="M115 692l376 799h223l366 -799h-284l-198 489l-197 -489h-286z" />
<glyph unicode="_" horiz-adv-x="1139" d="M-19 -223h1168v-182h-1168v182z" />
<glyph unicode="`" horiz-adv-x="682" d="M42 1491h315l138 -299h-177z" />
<glyph unicode="a" horiz-adv-x="1139" d="M73 290q0 90 43 160.5t120.5 108t223.5 65.5q197 37 273 69v28q0 81 -40 115.5t-151 34.5q-75 0 -117 -29.5t-68 -103.5l-255 46q43 154 148 228t312 74q188 0 280 -44.5t129.5 -113t37.5 -251.5l-3 -328q0 -140 13.5 -206.5t50.5 -142.5h-278q-11 28 -27 83 q-7 25 -10 33q-72 -70 -154 -105t-175 -35q-164 0 -258.5 89t-94.5 225zM354 319q0 -59 44 -102t112 -43q76 0 145 50q51 38 67 93q11 36 11 137v56q-54 -18 -171 -43t-153 -49q-55 -39 -55 -99z" />
<glyph unicode="b" horiz-adv-x="1251" d="M135 0v1466h281v-528q130 148 308 148q194 0 321 -140.5t127 -403.5q0 -272 -129.5 -419t-314.5 -147q-91 0 -179.5 45.5t-152.5 134.5v-156h-261zM414 554q0 -165 52 -244q73 -112 194 -112q93 0 158.5 79.5t65.5 250.5q0 182 -66 262.5t-169 80.5q-101 0 -168 -78.5 t-67 -238.5z" />
<glyph unicode="c" horiz-adv-x="1139" d="M85 530q0 263 139 409.5t376 146.5q194 0 308.5 -83.5t164.5 -254.5l-277 -50q-14 83 -63.5 125t-128.5 42q-105 0 -167.5 -72.5t-62.5 -242.5q0 -189 63.5 -267t170.5 -78q80 0 131 45.5t72 156.5l276 -47q-43 -190 -165 -287t-327 -97q-233 0 -371.5 147t-138.5 407z " />
<glyph unicode="d" horiz-adv-x="1251" d="M84 535q0 270 127 410.5t321 140.5q178 0 308 -148v528h281v-1466h-261v156q-65 -91 -153.5 -135.5t-178.5 -44.5q-183 0 -313.5 147.5t-130.5 411.5zM371 554q0 -170 47 -246q68 -110 190 -110q97 0 165 82.5t68 246.5q0 183 -66 263.5t-169 80.5q-100 0 -167.5 -79.5 t-67.5 -237.5z" />
<glyph unicode="e" horiz-adv-x="1139" d="M65 523q0 264 138 413.5t349 149.5q237 0 374 -156q131 -150 131 -453v-27h-704q3 -125 68 -194.5t162 -69.5q66 0 111 36t68 116l280 -47q-54 -154 -170.5 -234.5t-291.5 -80.5q-277 0 -410 181q-105 145 -105 366zM358 622h420q-3 122 -63 185.5t-146 63.5 q-92 0 -152 -67t-59 -182z" />
<glyph unicode="f" horiz-adv-x="682" d="M24 841v221h156v80q0 134 28.5 200t105 107.5t193.5 41.5q120 0 235 -36l-38 -196q-67 16 -129 16q-61 0 -87.5 -28.5t-26.5 -109.5v-75h210v-221h-210v-841h-281v841h-156z" />
<glyph unicode="g" horiz-adv-x="1251" d="M84 537q0 267 128.5 408t319.5 141q197 0 325 -173v149h263v-953q0 -188 -31 -281t-87 -146t-149.5 -83t-236.5 -30q-270 0 -383 92.5t-113 234.5q0 14 1 34l321 -39q8 -56 37 -77q40 -30 126 -30q110 0 165 33q37 22 56 71q13 35 13 129v155q-126 -172 -318 -172 q-214 0 -339 181q-98 143 -98 356zM372 553q0 -169 65.5 -247.5t161.5 -78.5q103 0 174 80.5t71 238.5q0 165 -68 245t-172 80q-101 0 -166.5 -78.5t-65.5 -239.5z" />
<glyph unicode="h" horiz-adv-x="1251" d="M146 0v1466h281v-539q136 159 325 159q97 0 175 -36t117.5 -92t54 -124t14.5 -211v-623h-281v561q0 167 -16 212t-56.5 71.5t-101.5 26.5q-70 0 -125 -34t-80.5 -102.5t-25.5 -202.5v-532h-281z" />
<glyph unicode="i" horiz-adv-x="569" d="M147 0v1062h281v-1062h-281zM147 1206v260h281v-260h-281z" />
<glyph unicode="j" horiz-adv-x="569" d="M-94 -401l49 240q20 -4 37.5 -6.5t32.5 -2.5q43 0 70.5 18.5t36.5 44.5t9 156v1013h281v-1029q0 -203 -26.5 -286.5t-102 -130.5t-192.5 -47q-42 0 -90.5 7.5t-104.5 22.5zM141 1206v260h281v-260h-281z" />
<glyph unicode="k" horiz-adv-x="1139" d="M137 0v1466h281v-778l329 374h346l-363 -388l389 -674h-303l-267 477l-131 -137v-340h-281z" />
<glyph unicode="l" horiz-adv-x="569" d="M147 0v1466h281v-1466h-281z" />
<glyph unicode="m" horiz-adv-x="1821" d="M126 0v1062h259v-145q139 169 331 169q102 0 177 -42t123 -127q70 85 151 127t173 42q117 0 198 -47.5t121 -139.5q29 -68 29 -220v-679h-281v607q0 158 -29 204q-39 60 -120 60q-59 0 -111 -36t-75 -105.5t-23 -219.5v-510h-281v582q0 155 -15 200t-46.5 67t-85.5 22 q-65 0 -117 -35t-74.5 -101t-22.5 -219v-516h-281z" />
<glyph unicode="n" horiz-adv-x="1251" d="M145 0v1062h261v-156q139 180 350 180q93 0 170 -33.5t116.5 -85.5t55 -118t15.5 -189v-660h-281v542q0 172 -18 222.5t-58.5 78.5t-97.5 28q-73 0 -131 -40t-79.5 -106t-21.5 -244v-481h-281z" />
<glyph unicode="o" horiz-adv-x="1251" d="M82 546q0 140 69 271t195.5 200t282.5 69q241 0 395 -156.5t154 -395.5q0 -241 -155.5 -399.5t-391.5 -158.5q-146 0 -278.5 66t-201.5 193.5t-69 310.5zM370 531q0 -158 75 -242t185 -84t184.5 84t74.5 244q0 156 -74.5 240t-184.5 84t-185 -84t-75 -242z" />
<glyph unicode="p" horiz-adv-x="1251" d="M139 -404v1466h262v-156q51 80 138 130t193 50q185 0 314 -145t129 -404q0 -266 -130 -413.5t-315 -147.5q-88 0 -159.5 35t-150.5 120v-535h-281zM417 549q0 -179 71 -264.5t173 -85.5q98 0 163 78.5t65 257.5q0 167 -67 248t-166 81q-103 0 -171 -79.5t-68 -235.5z" />
<glyph unicode="q" horiz-adv-x="1251" d="M91 543q0 256 129.5 399.5t321.5 143.5q106 0 183.5 -45t137.5 -136v157h259v-1466h-281v534q-55 -71 -137 -112.5t-177 -41.5q-181 0 -298 136q-138 159 -138 431zM378 528q0 -175 66 -252.5t163 -77.5t170 87t73 259q0 163 -66.5 242.5t-166.5 79.5q-102 0 -170.5 -81 t-68.5 -257z" />
<glyph unicode="r" horiz-adv-x="797" d="M135 0v1062h261v-151q67 107 120.5 141t121.5 34q96 0 185 -53l-87 -245q-71 46 -132 46q-59 0 -100 -32.5t-64.5 -117.5t-23.5 -356v-328h-281z" />
<glyph unicode="s" horiz-adv-x="1139" d="M48 303l282 43q18 -82 73 -124.5t154 -42.5q109 0 164 40q37 28 37 75q0 32 -20 53q-21 20 -94 37q-340 75 -431 137q-126 86 -126 239q0 138 109 232t338 94q218 0 324 -71t146 -210l-265 -49q-17 62 -64.5 95t-135.5 33q-111 0 -159 -31q-32 -22 -32 -57q0 -30 28 -51 q38 -28 262.5 -79t313.5 -125q88 -75 88 -209q0 -146 -122 -251t-361 -105q-217 0 -343.5 88t-165.5 239z" />
<glyph unicode="t" horiz-adv-x="682" d="M31 838v224h129v211l282 164v-375h192v-224h-192v-428q0 -130 5.5 -151.5t25 -35.5t47.5 -14q39 0 113 27l24 -218q-98 -42 -222 -42q-76 0 -137 25.5t-89.5 66t-39.5 109.5q-9 49 -9 198v463h-129z" />
<glyph unicode="u" horiz-adv-x="1251" d="M141 390v672h281v-488q0 -224 15.5 -274.5t56.5 -80t104 -29.5q72 0 129 39.5t78 98t21 286.5v448h281v-1062h-261v159q-58 -85 -152.5 -134t-199.5 -49q-107 0 -192 47t-123 132t-38 235z" />
<glyph unicode="v" horiz-adv-x="1139" d="M11 1062h295l200 -542l58 -181q23 69 29 91q14 45 30 90l202 542h289l-422 -1062h-253z" />
<glyph unicode="w" horiz-adv-x="1593" d="M9 1062h273l199 -696l183 696h271l177 -696l203 696h277l-341 -1062h-270l-183 683l-180 -683h-273z" />
<glyph unicode="x" horiz-adv-x="1139" d="M12 0l383 547l-367 515h343l188 -292l198 292h330l-360 -503l393 -559h-345l-216 329l-218 -329h-329z" />
<glyph unicode="y" horiz-adv-x="1139" d="M14 1062h299l254 -754l248 754h291l-375 -1022l-67 -185q-37 -93 -70.5 -142t-77 -79.5t-107 -47.5t-143.5 -17q-81 0 -159 17l-25 220q66 -13 119 -13q98 0 145 57.5t72 146.5z" />
<glyph unicode="z" horiz-adv-x="1024" d="M34 0v219l398 457q98 112 145 159q-49 -3 -129 -4l-375 -2v233h878v-199l-406 -468l-143 -155q117 7 145 7h435v-247h-948z" />
<glyph unicode="{" horiz-adv-x="797" d="M60 410v240q73 4 110 22t64 60.5t37 106.5q8 48 8 167q0 194 18 270.5t65 123t137 73.5q61 18 192 18h53v-239q-111 0 -142.5 -12.5t-46.5 -38t-15 -87.5q0 -63 -9 -239q-5 -99 -26 -160.5t-53.5 -101.5t-99.5 -83q59 -34 96.5 -79.5t57.5 -110.5t26 -174q7 -166 7 -212 q0 -66 16 -92t48.5 -39.5t140.5 -13.5v-240h-53q-135 0 -207 21.5t-121.5 71.5t-66.5 123.5t-17 231.5q0 184 -16 239q-22 80 -66.5 114.5t-136.5 39.5z" />
<glyph unicode="|" horiz-adv-x="573" d="M176 -431v1922h223v-1922h-223z" />
<glyph unicode="}" horiz-adv-x="797" d="M45 -191q107 0 140 13.5t48.5 39t16 86.5t8.5 233q5 104 27 166.5t58.5 106t93.5 76.5q-74 48 -108 94q-47 66 -64 168q-11 70 -16 308q-1 75 -13.5 100t-45 38.5t-145.5 13.5v239h53q135 0 207 -21t121 -71.5t66.5 -124t17.5 -231.5q0 -183 15 -239q22 -80 67 -114.5 t137 -39.5v-240q-73 -4 -110 -22t-63.5 -60.5t-37.5 -106.5q-8 -48 -8 -166q0 -194 -17.5 -271t-64.5 -123.5t-138 -73.5q-61 -18 -192 -18h-53v240z" />
<glyph unicode="~" horiz-adv-x="1196" d="M67 519v259q127 138 296 138q63 0 116 -12.5t190.5 -68t186.5 -55.5q56 0 129.5 34.5t143.5 109.5v-270q-46 -48 -128.5 -90t-170.5 -42q-50 0 -97.5 12t-150.5 57q-154 67 -242 67q-140 0 -273 -139z" />
<glyph unicode="&#xa1;" horiz-adv-x="682" d="M195 -63l73 741h158l73 -741v-344h-304v344zM206 781v281h282v-281h-282z" />
<glyph unicode="&#xa2;" horiz-adv-x="1139" d="M84 535q0 259 139 405t375 146q45 0 94 -6l113 376l123 -35l-112 -371q189 -72 256 -302l-277 -50q-12 72 -51 113l-182 -602q22 -4 45 -4q79 0 130.5 45.5t72.5 156.5l276 -47q-43 -190 -165 -287t-326 -97q-50 0 -101 7l-117 -386l-122 34l116 385 q-138 60 -212.5 196.5t-74.5 322.5zM372 549q0 -194 76 -280l179 595q-13 1 -24 1q-106 0 -168.5 -73t-62.5 -243z" />
<glyph unicode="&#xa3;" horiz-adv-x="1139" d="M13 217q113 81 162.5 172.5t49.5 174.5q0 27 -4 57h-208v221h157q-41 118 -41 239q0 109 59.5 208t168.5 150.5t238 51.5q197 0 314 -99.5t143 -285.5l-271 -40q-19 107 -69 154t-125 47q-80 0 -133 -53.5t-53 -134.5q0 -42 14.5 -111t35.5 -126h312v-221h-266 q3 -22 3 -44q0 -79 -30 -146t-123 -176q55 28 138 28q35 0 63 -4q14 -2 82 -19q121 -31 165 -31q78 0 204 56l108 -238q-57 -31 -131.5 -50.5t-144.5 -19.5q-90 0 -240 42.5t-222 42.5q-122 0 -249 -87z" />
<glyph unicode="&#xa4;" horiz-adv-x="1139" d="M45 1072l166 178l136 -136q53 29 107.5 43t110.5 14q57 0 112 -14t107 -43l134 134l167 -169l-132 -133q28 -51 42 -105.5t14 -112.5q0 -57 -14 -111.5t-42 -106.5l134 -133l-167 -171l-136 136q-50 -28 -104.5 -42.5t-113.5 -14.5q-56 0 -110 14t-106 42l-130 -131 l-170 168l130 132q-28 52 -42.5 106.5t-14.5 111.5t13.5 110.5t40.5 102.5zM364 728q0 -84 59.5 -143t142.5 -59q84 0 143 59t59 143t-59 143t-143 59t-143 -59t-59 -143z" />
<glyph unicode="&#xa5;" horiz-adv-x="1139" d="M1 1466h308l200 -426q38 -80 54 -141q19 66 54 141l204 426h308l-315 -631h265v-221h-376v-120h376v-221h-376v-273h-281v273h-371v221h371v120h-371v221h261z" />
<glyph unicode="&#xa6;" horiz-adv-x="573" d="M176 360h223v-791h-223v791zM176 701v790h223v-790h-223z" />
<glyph unicode="&#xa7;" horiz-adv-x="1139" d="M59 625q0 98 45 182t140 138q-50 54 -75.5 110t-25.5 114q0 135 105.5 228.5t296.5 93.5q196 0 308.5 -93.5t132.5 -243.5l-275 -29q-4 74 -43.5 113t-109.5 39q-65 0 -99 -28.5t-34 -64.5q0 -49 46 -94q31 -30 205 -142t230 -160q87 -73 124.5 -144.5t37.5 -158.5 q0 -93 -45.5 -171.5t-136.5 -142.5q61 -56 91 -119.5t30 -134.5q0 -148 -111 -248t-319 -100q-200 0 -320 99t-142 264l274 33q18 -90 68.5 -135.5t127.5 -45.5q66 0 105 34.5t39 83.5q0 47 -37 84q-38 37 -266.5 182.5t-297.5 241.5t-69 215zM314 680q0 -101 135 -192 l286 -195q44 40 65.5 76.5t21.5 70.5q0 33 -23 68t-126 110l-273 198q-34 -20 -60 -57t-26 -79z" />
<glyph unicode="&#xa8;" horiz-adv-x="682" d="M5 1250v241h241v-241h-241zM435 1250v241h242v-241h-242z" />
<glyph unicode="&#xa9;" horiz-adv-x="1509" d="M-9 730q0 201 103.5 384.5t284.5 282.5t378 99t378 -99t284.5 -282.5t103.5 -384.5q0 -200 -101.5 -381.5t-283 -283t-381.5 -101.5t-381.5 101.5t-283 283t-101.5 381.5zM142 730q0 -160 81.5 -306t227.5 -227.5t306 -81.5t306 81.5t227.5 227.5t81.5 306q0 161 -83 309 t-228.5 227t-303.5 79t-303.5 -79t-228.5 -226.5t-83 -309.5zM381 723q0 129 48 230t138.5 151t202.5 50q123 0 205.5 -58.5t128.5 -184.5l-162 -38q-28 73 -72.5 106t-105.5 33q-91 0 -149 -68.5t-58 -214.5t57 -215t137 -69q67 0 116 39.5t76 131.5l161 -54 q-38 -126 -126 -193t-210 -67q-171 0 -279 112t-108 309z" />
<glyph unicode="&#xaa;" horiz-adv-x="758" d="M37 959q0 68 31.5 115t92.5 74q45 19 188 47q79 16 125 33q0 14 -1 21q-1 49 -18 64q-24 21 -83 21q-52 0 -78 -17q-19 -13 -40 -65l-189 38q23 99 92.5 150t210.5 51q147 0 222 -39q49 -25 73 -89q15 -40 15 -154v-239q0 -104 6.5 -139.5t23.5 -69.5h-190q-13 26 -23 71 q-88 -89 -216 -89q-114 0 -178 60.5t-64 155.5zM244 974q0 -31 27 -56t70 -25q58 0 95.5 41.5t37.5 120.5v40q-22 -13 -62 -21q-108 -23 -128 -35q-40 -25 -40 -65z" />
<glyph unicode="&#xab;" horiz-adv-x="1139" d="M96 532l316 451h221l-260 -451l260 -462h-221zM488 532l316 451h221l-259 -451l259 -462h-221z" />
<glyph unicode="&#xac;" horiz-adv-x="1196" d="M85 817v257h1025v-698h-257v441h-768z" />
<glyph unicode="&#xad;" horiz-adv-x="682" d="M115 391v281h552v-281h-552z" />
<glyph unicode="&#xae;" horiz-adv-x="1509" d="M-9 730q0 201 103.5 385t284.5 282.5t378 98.5t378 -98.5t284.5 -282.5t103.5 -385q0 -200 -101.5 -381.5t-283 -283t-381.5 -101.5t-381.5 101.5t-283 283t-101.5 381.5zM143 730q0 -161 81.5 -307t227.5 -228t306 -82q161 0 306.5 82t227.5 228t82 307q0 162 -83.5 310 t-229 227t-303.5 79t-303 -79t-228.5 -227t-83.5 -310zM411 320v813h165q232 0 260 -2q82 -7 127.5 -32.5t76 -78t30.5 -116.5q0 -88 -57.5 -150.5t-161.5 -77.5q37 -14 57 -30.5t55 -62.5q9 -12 60 -99l96 -164h-204l-68 132q-69 133 -114 167.5t-114 34.5h-43v-334h-165z M576 782h67q143 0 177.5 11t54.5 38.5t20 62.5q0 34 -19.5 60.5t-55.5 38t-177 11.5h-67v-222z" />
<glyph unicode="&#xaf;" horiz-adv-x="1131" d="M-19 1552v183h1168v-183h-1168z" />
<glyph unicode="&#xb0;" horiz-adv-x="819" d="M86 1172q0 133 93.5 226t225.5 93t225.5 -93.5t93.5 -225.5t-93.5 -225.5t-225.5 -93.5t-225.5 93.5t-93.5 225.5zM252 1172q0 -63 45 -108t108 -45t108 45t45 108t-45 108t-108 45t-108 -45t-45 -108z" />
<glyph unicode="&#xb1;" horiz-adv-x="1124" d="M50 0v263h1025v-263h-1025zM50 737v263h384v381h256v-381h385v-263h-385v-381h-256v381h-384z" />
<glyph unicode="&#xb2;" horiz-adv-x="682" d="M25 727q11 85 54.5 152t194.5 186q114 89 137 118q31 38 31 77q0 37 -25 59t-76 22t-76 -24.5t-31 -90.5l-189 16q15 117 75 171q80 71 226 71q139 0 212.5 -64t73.5 -151q0 -54 -23 -102.5t-73 -100.5q-26 -26 -135 -112q-58 -45 -83 -69h314v-158h-607z" />
<glyph unicode="&#xb3;" horiz-adv-x="682" d="M40 946l184 20q8 -55 37 -81.5t76 -26.5q49 0 79 30t30 78q0 43 -28.5 71t-74.5 28q-30 0 -91 -15l23 146q52 -1 81.5 10.5t42 29t12.5 39.5q0 29 -21 47.5t-62 18.5t-66 -22.5t-33 -75.5l-178 26q25 103 74 147q76 68 208 68q124 0 196.5 -62t72.5 -142q0 -38 -21 -70 q-28 -45 -76 -74q67 -24 101.5 -70.5t34.5 -108.5q0 -95 -84 -168.5t-221 -73.5q-128 0 -205 63t-91 168z" />
<glyph unicode="&#xb4;" horiz-adv-x="682" d="M187 1192l138 299h315l-275 -299h-178z" />
<glyph unicode="&#xb5;" horiz-adv-x="1180" d="M111 -407v1469h279v-481q0 -208 42 -283q53 -97 157 -97q56 0 106 36t74 100t24 241v484h284v-1062h-262v128q-30 -56 -57 -84t-72.5 -49t-83.5 -21q-71 0 -126 39q-39 29 -86 115v-535h-279z" />
<glyph unicode="&#xb6;" horiz-adv-x="1139" d="M-2 1052q0 105 41 192.5t110.5 138.5t163.5 71q56 12 219 12h597v-261h-113v-1608h-237v1608h-144v-1608h-243v1047q-190 14 -292 122t-102 286z" />
<glyph unicode="&#xb7;" horiz-adv-x="682" d="M490 573v281h281v-281h-281z" />
<glyph unicode="&#xb8;" horiz-adv-x="682" d="M38 -285q103 -11 189 -11q89 0 132 32q33 24 33 62q0 34 -31 59t-96 25q-64 0 -131 -20l26 99q78 27 168 27q125 0 190 -55t65 -134q0 -88 -72 -143q-97 -75 -278 -75q-129 0 -195 16v118z" />
<glyph unicode="&#xb9;" horiz-adv-x="682" d="M91 1142v155q95 27 172 87q54 42 78 100h154v-757h-190v513q-94 -65 -214 -98z" />
<glyph unicode="&#xba;" horiz-adv-x="748" d="M26 1115q0 178 94.5 277t252.5 99q157 0 252 -99.5t95 -276.5t-94.5 -276t-252.5 -99t-252.5 98.5t-94.5 276.5zM237 1113q0 -110 37 -156.5t96 -46.5t96.5 46.5t37.5 156.5t-37.5 156.5t-96.5 46.5t-96 -46t-37 -157z" />
<glyph unicode="&#xbb;" horiz-adv-x="1139" d="M106 70l260 452l-260 461h221l316 -461l-316 -452h-221zM498 70l260 452l-260 461h221l316 -461l-316 -452h-221z" />
<glyph unicode="&#xbc;" horiz-adv-x="1708" d="M92 1142v155q95 27 172 87q54 42 78 100h154v-757h-190v513q-94 -65 -214 -98zM340 -54l869 1538h159l-869 -1538h-159zM1043 104v141l382 470h156v-466h107v-145h-107v-146h-178v146h-360zM1220 249h183v225z" />
<glyph unicode="&#xbd;" horiz-adv-x="1708" d="M92 1142v155q95 27 172 87q54 42 78 100h154v-757h-190v513q-94 -65 -214 -98zM340 -54l869 1538h159l-869 -1538h-159zM1049 -42q11 85 55 152t194 186q114 89 137 118q31 38 31 77q0 37 -25 59t-76 22q-50 0 -75.5 -24.5t-30.5 -90.5l-190 16q15 116 76 171 q79 71 225 71q139 0 212.5 -64t73.5 -151q0 -54 -22.5 -102.5t-73.5 -100.5q-26 -26 -135 -112q-57 -45 -82 -70h313v-157h-607z" />
<glyph unicode="&#xbe;" horiz-adv-x="1708" d="M40 946l184 20q8 -55 37 -81.5t76 -26.5q49 0 79 30t30 78q0 43 -28.5 71t-74.5 28q-30 0 -91 -15l23 146q52 -1 81.5 10.5t42 29t12.5 39.5q0 29 -21 47.5t-62 18.5t-66 -22.5t-33 -75.5l-178 26q25 103 74 147q76 68 208 68q124 0 196.5 -62t72.5 -142q0 -38 -21 -70 q-28 -45 -76 -74q67 -24 101.5 -70.5t34.5 -108.5q0 -95 -84 -168.5t-221 -73.5q-128 0 -205 63t-91 168zM364 -54l869 1538h158l-868 -1538h-159zM1042 104v141l382 470h156v-466h108v-145h-108v-146h-178v146h-360zM1220 249h182v225z" />
<glyph unicode="&#xbf;" horiz-adv-x="1251" d="M101 -1q0 64 25.5 124.5t80 121.5t173.5 159q87 70 108.5 116.5t20.5 163.5h254q2 -66 2 -76q0 -114 -43.5 -196.5t-170 -185.5t-151.5 -144t-25 -93q0 -77 66 -135.5t177 -58.5q107 0 178 59.5t100 187.5l258 -33q-17 -125 -71 -208q-74 -113 -192.5 -167t-261.5 -54 q-241 0 -384.5 126.5t-143.5 292.5zM482 781v281h281v-281h-281z" />
<glyph unicode="&#xc0;" horiz-adv-x="1479" d="M0 0l571 1466h313l587 -1466h-322l-128 333h-586l-121 -333h-314zM438 1849h315l138 -299h-177zM526 580h400l-202 544z" />
<glyph unicode="&#xc1;" horiz-adv-x="1479" d="M0 0l571 1466h313l587 -1466h-322l-128 333h-586l-121 -333h-314zM526 580h400l-202 544zM554 1550l138 299h315l-275 -299h-178z" />
<glyph unicode="&#xc2;" horiz-adv-x="1479" d="M0 0l571 1466h313l587 -1466h-322l-128 333h-586l-121 -333h-314zM386 1550l210 295h260l207 -295h-226l-116 149l-108 -149h-227zM526 580h400l-202 544z" />
<glyph unicode="&#xc3;" horiz-adv-x="1479" d="M0 0l571 1466h313l587 -1466h-322l-128 333h-586l-121 -333h-314zM366 1583q0 105 51 161.5t131 56.5q35 0 65 -7.5t109.5 -43t124.5 -35.5q32 0 53.5 20t27.5 67h130q-1 -135 -50.5 -193t-127.5 -58q-34 0 -67 7q-23 6 -115 41t-134 35q-32 0 -50 -19.5t-19 -67.5h-128 q-1 23 -1 36zM526 580h400l-202 544z" />
<glyph unicode="&#xc4;" horiz-adv-x="1479" d="M0 0l571 1466h313l587 -1466h-322l-128 333h-586l-121 -333h-314zM383 1550v241h241v-241h-241zM526 580h400l-202 544zM813 1550v241h242v-241h-242z" />
<glyph unicode="&#xc5;" horiz-adv-x="1479" d="M0 0l571 1466h313l587 -1466h-322l-128 333h-586l-121 -333h-314zM526 580h400l-202 544zM529 1562q0 81 57.5 138.5t138.5 57.5t138.5 -57t57.5 -139q0 -81 -57.5 -138.5t-138.5 -57.5t-138.5 57.5t-57.5 138.5zM636 1562q0 -37 26 -63t63 -26t63 26t26 63t-26 63 t-63 26t-63 -26t-26 -63z" />
<glyph unicode="&#xc6;" horiz-adv-x="2048" d="M-86 0l684 1466h1324v-248h-726v-326h669v-248h-669v-397h753v-247h-1049v345h-508l-150 -345h-328zM501 601h402v643h-115z" />
<glyph unicode="&#xc7;" horiz-adv-x="1479" d="M97 720q0 366 189 568.5t497 202.5q269 0 437 -159q100 -94 150 -270l-293 -70q-26 114 -108.5 180t-200.5 66q-163 0 -264.5 -117t-101.5 -379q0 -278 100 -396t260 -118q118 0 203 75t122 236l287 -91q-66 -240 -219.5 -356.5t-389.5 -116.5q-292 0 -480 199.5 t-188 545.5zM465 -285q103 -11 189 -11q89 0 132 32q33 24 33 62q0 34 -31 59t-96 25q-64 0 -131 -20l26 99q78 27 168 27q125 0 190 -55t65 -134q0 -88 -72 -143q-97 -75 -278 -75q-129 0 -195 16v118z" />
<glyph unicode="&#xc8;" horiz-adv-x="1366" d="M149 0v1466h1087v-248h-791v-325h736v-247h-736v-399h819v-247h-1115zM409 1849h315l138 -299h-177z" />
<glyph unicode="&#xc9;" horiz-adv-x="1366" d="M149 0v1466h1087v-248h-791v-325h736v-247h-736v-399h819v-247h-1115zM525 1550l138 299h315l-275 -299h-178z" />
<glyph unicode="&#xca;" horiz-adv-x="1366" d="M149 0v1466h1087v-248h-791v-325h736v-247h-736v-399h819v-247h-1115zM337 1550l210 295h260l207 -295h-226l-116 149l-108 -149h-227z" />
<glyph unicode="&#xcb;" horiz-adv-x="1366" d="M149 0v1466h1087v-248h-791v-325h736v-247h-736v-399h819v-247h-1115zM354 1550v241h241v-241h-241zM784 1550v241h242v-241h-242z" />
<glyph unicode="&#xcc;" horiz-adv-x="569" d="M-10 1849h315l138 -299h-177zM140 0v1466h296v-1466h-296z" />
<glyph unicode="&#xcd;" horiz-adv-x="569" d="M106 1550l138 299h315l-275 -299h-178zM140 0v1466h296v-1466h-296z" />
<glyph unicode="&#xce;" horiz-adv-x="569" d="M-42 1550l210 295h260l207 -295h-226l-116 149l-108 -149h-227zM140 0v1466h296v-1466h-296z" />
<glyph unicode="&#xcf;" horiz-adv-x="569" d="M-45 1550v241h241v-241h-241zM140 0v1466h296v-1466h-296zM385 1550v241h242v-241h-242z" />
<glyph unicode="&#xd0;" horiz-adv-x="1479" d="M-3 640v186h152v640h540q186 0 282 -29q130 -39 222 -137.5t138.5 -238.5t46.5 -346q0 -181 -51.5 -326.5t-151.5 -242.5q-77 -73 -207 -115q-98 -31 -263 -31h-556v640h-152zM444 247h222q147 0 212 24q86 30 131 110q63 113 63 345q0 165 -26.5 254.5t-78 144.5 t-134.5 77q-64 16 -255 16h-134v-392h314v-186h-314v-393z" />
<glyph unicode="&#xd1;" horiz-adv-x="1479" d="M152 0v1466h288l600 -979v979h275v-1466h-297l-591 956v-956h-275zM391 1583q0 105 51 161.5t131 56.5q35 0 65 -7.5t109.5 -43t124.5 -35.5q32 0 53.5 20t27.5 67h130q-1 -135 -50.5 -193t-127.5 -58q-34 0 -67 7q-23 6 -115 41t-134 35q-32 0 -50 -19.5t-19 -67.5h-128 q-1 23 -1 36z" />
<glyph unicode="&#xd2;" horiz-adv-x="1593" d="M89 724q0 224 67 376q50 112 136.5 201t189.5 132q137 58 316 58q324 0 518.5 -201t194.5 -559q0 -355 -193 -555.5t-516 -200.5q-327 0 -520 199.5t-193 549.5zM394 734q0 -249 115 -377.5t292 -128.5t290.5 127.5t113.5 382.5q0 252 -110.5 376t-293.5 124t-295 -125.5 t-112 -378.5zM502 1849h315l138 -299h-177z" />
<glyph unicode="&#xd3;" horiz-adv-x="1593" d="M89 724q0 224 67 376q50 112 136.5 201t189.5 132q137 58 316 58q324 0 518.5 -201t194.5 -559q0 -355 -193 -555.5t-516 -200.5q-327 0 -520 199.5t-193 549.5zM394 734q0 -249 115 -377.5t292 -128.5t290.5 127.5t113.5 382.5q0 252 -110.5 376t-293.5 124t-295 -125.5 t-112 -378.5zM618 1550l138 299h315l-275 -299h-178z" />
<glyph unicode="&#xd4;" horiz-adv-x="1593" d="M89 724q0 224 67 376q50 112 136.5 201t189.5 132q137 58 316 58q324 0 518.5 -201t194.5 -559q0 -355 -193 -555.5t-516 -200.5q-327 0 -520 199.5t-193 549.5zM394 734q0 -249 115 -377.5t292 -128.5t290.5 127.5t113.5 382.5q0 252 -110.5 376t-293.5 124t-295 -125.5 t-112 -378.5zM450 1550l210 295h260l207 -295h-226l-116 149l-108 -149h-227z" />
<glyph unicode="&#xd5;" horiz-adv-x="1593" d="M89 724q0 224 67 376q50 112 136.5 201t189.5 132q137 58 316 58q324 0 518.5 -201t194.5 -559q0 -355 -193 -555.5t-516 -200.5q-327 0 -520 199.5t-193 549.5zM394 734q0 -249 115 -377.5t292 -128.5t290.5 127.5t113.5 382.5q0 252 -110.5 376t-293.5 124t-295 -125.5 t-112 -378.5zM430 1583q0 105 51 161.5t131 56.5q35 0 65 -7.5t109.5 -43t124.5 -35.5q32 0 53.5 20t27.5 67h130q-1 -135 -50.5 -193t-127.5 -58q-34 0 -67 7q-23 6 -115 41t-134 35q-32 0 -50 -19.5t-19 -67.5h-128q-1 23 -1 36z" />
<glyph unicode="&#xd6;" horiz-adv-x="1593" d="M89 724q0 224 67 376q50 112 136.5 201t189.5 132q137 58 316 58q324 0 518.5 -201t194.5 -559q0 -355 -193 -555.5t-516 -200.5q-327 0 -520 199.5t-193 549.5zM394 734q0 -249 115 -377.5t292 -128.5t290.5 127.5t113.5 382.5q0 252 -110.5 376t-293.5 124t-295 -125.5 t-112 -378.5zM447 1550v241h241v-241h-241zM877 1550v241h242v-241h-242z" />
<glyph unicode="&#xd7;" horiz-adv-x="1196" d="M109 1025l186 186l304 -303l302 302l181 -182l-302 -302l305 -305l-186 -186l-305 305l-302 -302l-181 182l302 302z" />
<glyph unicode="&#xd8;" horiz-adv-x="1593" d="M63 42l171 192q-146 195 -146 508q0 347 193 548t515 201q267 0 443 -132l158 177l139 -122l-167 -188q67 -90 104 -221.5t37 -279.5q0 -349 -193 -549.5t-510 -200.5q-275 0 -440 125l-162 -182zM393 735q0 -159 46 -272l616 690q-101 86 -256 86q-182 0 -294 -125.5 t-112 -378.5zM549 305q103 -90 248 -90q178 0 292.5 129t114.5 385q0 162 -40 267z" />
<glyph unicode="&#xd9;" horiz-adv-x="1479" d="M147 684v782h296v-794q0 -189 11 -245q19 -90 90.5 -144.5t195.5 -54.5q126 0 190 51.5t77 126.5t13 249v811h296v-770q0 -264 -24 -373t-88.5 -184t-172.5 -119.5t-282 -44.5q-210 0 -318.5 48.5t-171.5 126t-83 162.5q-29 126 -29 372zM434 1849h315l138 -299h-177z " />
<glyph unicode="&#xda;" horiz-adv-x="1479" d="M147 684v782h296v-794q0 -189 11 -245q19 -90 90.5 -144.5t195.5 -54.5q126 0 190 51.5t77 126.5t13 249v811h296v-770q0 -264 -24 -373t-88.5 -184t-172.5 -119.5t-282 -44.5q-210 0 -318.5 48.5t-171.5 126t-83 162.5q-29 126 -29 372zM550 1550l138 299h315l-275 -299 h-178z" />
<glyph unicode="&#xdb;" horiz-adv-x="1479" d="M147 684v782h296v-794q0 -189 11 -245q19 -90 90.5 -144.5t195.5 -54.5q126 0 190 51.5t77 126.5t13 249v811h296v-770q0 -264 -24 -373t-88.5 -184t-172.5 -119.5t-282 -44.5q-210 0 -318.5 48.5t-171.5 126t-83 162.5q-29 126 -29 372zM402 1550l210 295h260l207 -295 h-226l-116 149l-108 -149h-227z" />
<glyph unicode="&#xdc;" horiz-adv-x="1479" d="M147 684v782h296v-794q0 -189 11 -245q19 -90 90.5 -144.5t195.5 -54.5q126 0 190 51.5t77 126.5t13 249v811h296v-770q0 -264 -24 -373t-88.5 -184t-172.5 -119.5t-282 -44.5q-210 0 -318.5 48.5t-171.5 126t-83 162.5q-29 126 -29 372zM399 1550v241h241v-241h-241z M829 1550v241h242v-241h-242z" />
<glyph unicode="&#xdd;" horiz-adv-x="1366" d="M-3 1466h347l345 -580l338 580h341l-539 -851v-615h-295v617zM495 1550l138 299h315l-275 -299h-178z" />
<glyph unicode="&#xde;" horiz-adv-x="1366" d="M149 0v1466h296v-276h179q270 0 353 -22q126 -34 210.5 -144.5t84.5 -285.5q0 -134 -49 -226t-124.5 -145t-153.5 -69q-106 -22 -307 -22h-193v-276h-296zM445 525h162q166 0 211 11q62 15 105.5 66t43.5 135q0 68 -34.5 118.5t-84 68.5t-260.5 18h-143v-417z" />
<glyph unicode="&#xdf;" horiz-adv-x="1251" d="M139 0v952q0 200 35.5 304t137.5 169.5t265 65.5q204 0 305 -87t101 -216q0 -87 -54.5 -186.5t-62.5 -121.5t-8 -38q0 -33 25 -69q16 -23 120 -128t140 -178t36 -151q0 -145 -100.5 -242.5t-254.5 -97.5q-106 0 -193 54.5t-131 134.5l196 115q21 -39 47 -59t57 -20 q41 0 69.5 29.5t28.5 73.5q0 41 -30 83q-17 25 -138 139q-169 162 -169 255q0 59 65 194q51 104 60 132t9 58q0 44 -33 75t-88 31q-50 0 -86.5 -26t-49.5 -67q-18 -55 -18 -226v-952h-281z" />
<glyph unicode="&#xe0;" horiz-adv-x="1139" d="M73 290q0 90 43 160.5t120.5 108t223.5 65.5q197 37 273 69v28q0 81 -40 115.5t-151 34.5q-75 0 -117 -29.5t-68 -103.5l-255 46q43 154 148 228t312 74q188 0 280 -44.5t129.5 -113t37.5 -251.5l-3 -328q0 -140 13.5 -206.5t50.5 -142.5h-278q-11 28 -27 83 q-7 25 -10 33q-72 -70 -154 -105t-175 -35q-164 0 -258.5 89t-94.5 225zM260 1491h315l138 -299h-177zM354 319q0 -59 44 -102t112 -43q76 0 145 50q51 38 67 93q11 36 11 137v56q-54 -18 -171 -43t-153 -49q-55 -39 -55 -99z" />
<glyph unicode="&#xe1;" horiz-adv-x="1139" d="M73 290q0 90 43 160.5t120.5 108t223.5 65.5q197 37 273 69v28q0 81 -40 115.5t-151 34.5q-75 0 -117 -29.5t-68 -103.5l-255 46q43 154 148 228t312 74q188 0 280 -44.5t129.5 -113t37.5 -251.5l-3 -328q0 -140 13.5 -206.5t50.5 -142.5h-278q-11 28 -27 83 q-7 25 -10 33q-72 -70 -154 -105t-175 -35q-164 0 -258.5 89t-94.5 225zM354 319q0 -59 44 -102t112 -43q76 0 145 50q51 38 67 93q11 36 11 137v56q-54 -18 -171 -43t-153 -49q-55 -39 -55 -99zM429 1192l138 299h315l-275 -299h-178z" />
<glyph unicode="&#xe2;" horiz-adv-x="1139" d="M73 290q0 90 43 160.5t120.5 108t223.5 65.5q197 37 273 69v28q0 81 -40 115.5t-151 34.5q-75 0 -117 -29.5t-68 -103.5l-255 46q43 154 148 228t312 74q188 0 280 -44.5t129.5 -113t37.5 -251.5l-3 -328q0 -140 13.5 -206.5t50.5 -142.5h-278q-11 28 -27 83 q-7 25 -10 33q-72 -70 -154 -105t-175 -35q-164 0 -258.5 89t-94.5 225zM233 1196l210 295h260l207 -295h-226l-116 149l-108 -149h-227zM354 319q0 -59 44 -102t112 -43q76 0 145 50q51 38 67 93q11 36 11 137v56q-54 -18 -171 -43t-153 -49q-55 -39 -55 -99z" />
<glyph unicode="&#xe3;" horiz-adv-x="1139" d="M73 290q0 90 43 160.5t120.5 108t223.5 65.5q197 37 273 69v28q0 81 -40 115.5t-151 34.5q-75 0 -117 -29.5t-68 -103.5l-255 46q43 154 148 228t312 74q188 0 280 -44.5t129.5 -113t37.5 -251.5l-3 -328q0 -140 13.5 -206.5t50.5 -142.5h-278q-11 28 -27 83 q-7 25 -10 33q-72 -70 -154 -105t-175 -35q-164 0 -258.5 89t-94.5 225zM226 1241q0 105 51 161.5t131 56.5q35 0 65 -7.5t109.5 -43t124.5 -35.5q32 0 53.5 20t27.5 67h130q-1 -135 -50.5 -193t-127.5 -58q-34 0 -67 7q-23 6 -115 41t-134 35q-32 0 -50 -19.5t-19 -67.5 h-128q-1 23 -1 36zM354 319q0 -59 44 -102t112 -43q76 0 145 50q51 38 67 93q11 36 11 137v56q-54 -18 -171 -43t-153 -49q-55 -39 -55 -99z" />
<glyph unicode="&#xe4;" horiz-adv-x="1139" d="M73 290q0 90 43 160.5t120.5 108t223.5 65.5q197 37 273 69v28q0 81 -40 115.5t-151 34.5q-75 0 -117 -29.5t-68 -103.5l-255 46q43 154 148 228t312 74q188 0 280 -44.5t129.5 -113t37.5 -251.5l-3 -328q0 -140 13.5 -206.5t50.5 -142.5h-278q-11 28 -27 83 q-7 25 -10 33q-72 -70 -154 -105t-175 -35q-164 0 -258.5 89t-94.5 225zM236 1250v241h241v-241h-241zM354 319q0 -59 44 -102t112 -43q76 0 145 50q51 38 67 93q11 36 11 137v56q-54 -18 -171 -43t-153 -49q-55 -39 -55 -99zM666 1250v241h242v-241h-242z" />
<glyph unicode="&#xe5;" horiz-adv-x="1139" d="M73 290q0 90 43 160.5t120.5 108t223.5 65.5q197 37 273 69v28q0 81 -40 115.5t-151 34.5q-75 0 -117 -29.5t-68 -103.5l-255 46q43 154 148 228t312 74q188 0 280 -44.5t129.5 -113t37.5 -251.5l-3 -328q0 -140 13.5 -206.5t50.5 -142.5h-278q-11 28 -27 83 q-7 25 -10 33q-72 -70 -154 -105t-175 -35q-164 0 -258.5 89t-94.5 225zM354 319q0 -59 44 -102t112 -43q76 0 145 50q51 38 67 93q11 36 11 137v56q-54 -18 -171 -43t-153 -49q-55 -39 -55 -99zM375 1342q0 81 57.5 138.5t138.5 57.5t138.5 -57t57.5 -139 q0 -81 -57.5 -138.5t-138.5 -57.5t-138.5 57.5t-57.5 138.5zM482 1342q0 -37 26 -63t63 -26t63 26t26 63t-26 63t-63 26t-63 -26t-26 -63z" />
<glyph unicode="&#xe6;" horiz-adv-x="1821" d="M88 288q0 81 33.5 144t81 98.5t132.5 61.5q40 13 238 54q99 21 169 44v28q0 77 -42 115t-133 38q-80 0 -127 -32.5t-67 -100.5l-255 49q50 154 157.5 226.5t327.5 72.5q104 0 185.5 -24.5t139.5 -73.5q61 49 133.5 73.5t155.5 24.5q160 0 270.5 -67.5t174 -199 t62.5 -371.5h-706q17 -136 76 -197t145 -61q71 0 121 36.5t76 112.5l275 -49q-57 -157 -173 -235.5t-296 -78.5q-112 0 -207 36.5t-172 109.5q-71 -61 -183.5 -103.5t-231.5 -42.5q-170 0 -265 88.5t-95 223.5zM369 314q0 -58 43.5 -99t113.5 -41q74 0 139 47 q48 35 61.5 87.5t13.5 199.5q-231 -61 -251 -68q-67 -22 -93.5 -53t-26.5 -73zM1023 624h424q-6 88 -24 127q-25 56 -75.5 88t-118.5 32q-59 0 -103.5 -27.5t-70.5 -82.5q-35 -73 -32 -137z" />
<glyph unicode="&#xe7;" horiz-adv-x="1139" d="M85 530q0 263 139 409.5t376 146.5q194 0 308.5 -83.5t164.5 -254.5l-277 -50q-14 83 -63.5 125t-128.5 42q-105 0 -167.5 -72.5t-62.5 -242.5q0 -189 63.5 -267t170.5 -78q80 0 131 45.5t72 156.5l276 -47q-43 -190 -165 -287t-327 -97q-233 0 -371.5 147t-138.5 407z M316 -285q103 -11 189 -11q89 0 132 32q33 24 33 62q0 34 -31 59t-96 25q-64 0 -131 -20l26 99q78 27 168 27q125 0 190 -55t65 -134q0 -88 -72 -143q-97 -75 -278 -75q-129 0 -195 16v118z" />
<glyph unicode="&#xe8;" horiz-adv-x="1139" d="M65 523q0 264 138 413.5t349 149.5q237 0 374 -156.5t131 -479.5h-704q3 -125 68 -194.5t162 -69.5q66 0 111 36t68 116l280 -47q-54 -154 -170.5 -234.5t-291.5 -80.5q-277 0 -410 181q-105 145 -105 366zM250 1491h315l138 -299h-177zM358 622h420q-3 122 -63 185.5 t-146 63.5q-92 0 -152 -67t-59 -182z" />
<glyph unicode="&#xe9;" horiz-adv-x="1139" d="M65 523q0 264 138 413.5t349 149.5q237 0 374 -156.5t131 -479.5h-704q3 -125 68 -194.5t162 -69.5q66 0 111 36t68 116l280 -47q-54 -154 -170.5 -234.5t-291.5 -80.5q-277 0 -410 181q-105 145 -105 366zM358 622h420q-3 122 -63 185.5t-146 63.5q-92 0 -152 -67 t-59 -182zM419 1192l138 299h315l-275 -299h-178z" />
<glyph unicode="&#xea;" horiz-adv-x="1139" d="M65 523q0 264 138 413.5t349 149.5q237 0 374 -156.5t131 -479.5h-704q3 -125 68 -194.5t162 -69.5q66 0 111 36t68 116l280 -47q-54 -154 -170.5 -234.5t-291.5 -80.5q-277 0 -410 181q-105 145 -105 366zM223 1196l210 295h260l207 -295h-226l-116 149l-108 -149h-227z M358 622h420q-3 122 -63 185.5t-146 63.5q-92 0 -152 -67t-59 -182z" />
<glyph unicode="&#xeb;" horiz-adv-x="1139" d="M65 523q0 264 138 413.5t349 149.5q237 0 374 -156.5t131 -479.5h-704q3 -125 68 -194.5t162 -69.5q66 0 111 36t68 116l280 -47q-54 -154 -170.5 -234.5t-291.5 -80.5q-277 0 -410 181q-105 145 -105 366zM225 1250v241h241v-241h-241zM358 622h420q-3 122 -63 185.5 t-146 63.5q-92 0 -152 -67t-59 -182zM655 1250v241h242v-241h-242z" />
<glyph unicode="&#xec;" horiz-adv-x="569" d="M-23 1491h315l138 -299h-177zM147 0v1062h281v-1062h-281z" />
<glyph unicode="&#xed;" horiz-adv-x="569" d="M126 1192l138 299h315l-275 -299h-178zM147 0v1062h281v-1062h-281z" />
<glyph unicode="&#xee;" horiz-adv-x="569" d="M-51 1196l210 295h260l207 -295h-226l-116 149l-108 -149h-227zM147 0v1062h281v-1062h-281z" />
<glyph unicode="&#xef;" horiz-adv-x="569" d="M-48 1250v241h241v-241h-241zM147 0v1062h281v-1062h-281zM382 1250v241h242v-241h-242z" />
<glyph unicode="&#xf0;" horiz-adv-x="1251" d="M83 533q0 243 162 399q135 130 304 130q54 0 109 -16q40 -12 113 -53q-39 70 -65 109t-81 108l-250 -119l-43 96l218 103q-100 92 -218 176h293q57 -44 109 -89l181 89l45 -98l-144 -67q192 -193 275.5 -387.5t83.5 -367.5q0 -258 -154 -414.5t-398 -156.5 q-235 0 -387.5 155.5t-152.5 402.5zM376 530q0 -159 72.5 -242.5t177.5 -83.5q107 0 182 84t75 232q0 149 -77 235t-182 86q-103 0 -175.5 -81.5t-72.5 -229.5z" />
<glyph unicode="&#xf1;" horiz-adv-x="1251" d="M145 0v1062h261v-156q139 180 350 180q93 0 170 -33.5t116.5 -85.5t55 -118t15.5 -189v-660h-281v542q0 172 -18 222.5t-58.5 78.5t-97.5 28q-73 0 -131 -40t-79.5 -106t-21.5 -244v-481h-281zM283 1241q0 105 51 161.5t131 56.5q35 0 65 -7.5t109.5 -43t124.5 -35.5 q32 0 53.5 20t27.5 67h130q-1 -135 -50.5 -193t-127.5 -58q-34 0 -67 7q-23 6 -115 41t-134 35q-32 0 -50 -19.5t-19 -67.5h-128q-1 23 -1 36z" />
<glyph unicode="&#xf2;" horiz-adv-x="1251" d="M82 546q0 140 69 271t195.5 200t282.5 69q241 0 395 -156.5t154 -395.5q0 -241 -155.5 -399.5t-391.5 -158.5q-146 0 -278.5 66t-201.5 193.5t-69 310.5zM318 1491h315l138 -299h-177zM370 531q0 -158 75 -242t185 -84t184.5 84t74.5 244q0 156 -74.5 240t-184.5 84 t-185 -84t-75 -242z" />
<glyph unicode="&#xf3;" horiz-adv-x="1251" d="M82 546q0 140 69 271t195.5 200t282.5 69q241 0 395 -156.5t154 -395.5q0 -241 -155.5 -399.5t-391.5 -158.5q-146 0 -278.5 66t-201.5 193.5t-69 310.5zM370 531q0 -158 75 -242t185 -84t184.5 84t74.5 244q0 156 -74.5 240t-184.5 84t-185 -84t-75 -242zM488 1192 l138 299h315l-275 -299h-178z" />
<glyph unicode="&#xf4;" horiz-adv-x="1251" d="M82 546q0 140 69 271t195.5 200t282.5 69q241 0 395 -156.5t154 -395.5q0 -241 -155.5 -399.5t-391.5 -158.5q-146 0 -278.5 66t-201.5 193.5t-69 310.5zM291 1196l210 295h260l207 -295h-226l-116 149l-108 -149h-227zM370 531q0 -158 75 -242t185 -84t184.5 84 t74.5 244q0 156 -74.5 240t-184.5 84t-185 -84t-75 -242z" />
<glyph unicode="&#xf5;" horiz-adv-x="1251" d="M82 546q0 140 69 271t195.5 200t282.5 69q241 0 395 -156.5t154 -395.5q0 -241 -155.5 -399.5t-391.5 -158.5q-146 0 -278.5 66t-201.5 193.5t-69 310.5zM284 1241q0 105 51 161.5t131 56.5q35 0 65 -7.5t109.5 -43t124.5 -35.5q32 0 53.5 20t27.5 67h130 q-1 -135 -50.5 -193t-127.5 -58q-34 0 -67 7q-23 6 -115 41t-134 35q-32 0 -50 -19.5t-19 -67.5h-128q-1 23 -1 36zM370 531q0 -158 75 -242t185 -84t184.5 84t74.5 244q0 156 -74.5 240t-184.5 84t-185 -84t-75 -242z" />
<glyph unicode="&#xf6;" horiz-adv-x="1251" d="M82 546q0 140 69 271t195.5 200t282.5 69q241 0 395 -156.5t154 -395.5q0 -241 -155.5 -399.5t-391.5 -158.5q-146 0 -278.5 66t-201.5 193.5t-69 310.5zM283 1250v241h241v-241h-241zM370 531q0 -158 75 -242t185 -84t184.5 84t74.5 244q0 156 -74.5 240t-184.5 84 t-185 -84t-75 -242zM713 1250v241h242v-241h-242z" />
<glyph unicode="&#xf7;" horiz-adv-x="1124" d="M49 592v263h1025v-263h-1025zM421 185v281h281v-281h-281zM421 981v281h281v-281h-281z" />
<glyph unicode="&#xf8;" horiz-adv-x="1251" d="M87 537q0 240 153.5 394.5t393.5 154.5q178 0 312 -87l104 120l112 -92l-108 -124q60 -71 94.5 -168.5t34.5 -204.5q0 -238 -157 -396t-394 -158q-172 0 -307 84l-115 -133l-110 95l116 134q-60 73 -94.5 174t-34.5 207zM366 540q0 -99 28 -178l394 455q-67 54 -152 54 q-113 0 -191.5 -87t-78.5 -244zM482 242q66 -48 151 -48q115 0 193 86.5t78 242.5q0 94 -30 172z" />
<glyph unicode="&#xf9;" horiz-adv-x="1251" d="M141 390v672h281v-488q0 -224 15.5 -274.5t56.5 -80t104 -29.5q72 0 129 39.5t78 98t21 286.5v448h281v-1062h-261v159q-58 -85 -152.5 -134t-199.5 -49q-107 0 -192 47t-123 132t-38 235zM313 1491h315l138 -299h-177z" />
<glyph unicode="&#xfa;" horiz-adv-x="1251" d="M141 390v672h281v-488q0 -224 15.5 -274.5t56.5 -80t104 -29.5q72 0 129 39.5t78 98t21 286.5v448h281v-1062h-261v159q-58 -85 -152.5 -134t-199.5 -49q-107 0 -192 47t-123 132t-38 235zM482 1192l138 299h315l-275 -299h-178z" />
<glyph unicode="&#xfb;" horiz-adv-x="1251" d="M141 390v672h281v-488q0 -224 15.5 -274.5t56.5 -80t104 -29.5q72 0 129 39.5t78 98t21 286.5v448h281v-1062h-261v159q-58 -85 -152.5 -134t-199.5 -49q-107 0 -192 47t-123 132t-38 235zM286 1196l210 295h260l207 -295h-226l-116 149l-108 -149h-227z" />
<glyph unicode="&#xfc;" horiz-adv-x="1251" d="M141 390v672h281v-488q0 -224 15.5 -274.5t56.5 -80t104 -29.5q72 0 129 39.5t78 98t21 286.5v448h281v-1062h-261v159q-58 -85 -152.5 -134t-199.5 -49q-107 0 -192 47t-123 132t-38 235zM288 1250v241h241v-241h-241zM718 1250v241h242v-241h-242z" />
<glyph unicode="&#xfd;" horiz-adv-x="1139" d="M14 1062h299l254 -754l248 754h291l-375 -1022l-67 -185q-37 -93 -70.5 -142t-77 -79.5t-107 -47.5t-143.5 -17q-81 0 -159 17l-25 220q66 -13 119 -13q98 0 145 57.5t72 146.5zM418 1192l138 299h315l-275 -299h-178z" />
<glyph unicode="&#xfe;" horiz-adv-x="1251" d="M139 -404v1870h281v-528q83 83 152.5 115.5t159.5 32.5q185 0 314 -145t129 -404q0 -266 -130 -413.5t-315 -147.5q-88 0 -159.5 35t-150.5 120v-535h-281zM418 554q0 -165 52 -244q73 -112 194 -112q93 0 158.5 79.5t65.5 250.5q0 182 -66 262.5t-169 80.5 q-101 0 -168 -78.5t-67 -238.5z" />
<glyph unicode="&#xff;" horiz-adv-x="1139" d="M14 1062h299l254 -754l248 754h291l-375 -1022l-67 -185q-37 -93 -70.5 -142t-77 -79.5t-107 -47.5t-143.5 -17q-81 0 -159 17l-25 220q66 -13 119 -13q98 0 145 57.5t72 146.5zM230 1250v241h241v-241h-241zM660 1250v241h242v-241h-242z" />
<glyph unicode="&#x100;" horiz-adv-x="1479" d="M0 0l571 1466h313l587 -1466h-322l-128 333h-586l-121 -333h-314zM405 1598v185h644v-185h-644zM526 580h400l-202 544z" />
<glyph unicode="&#x101;" horiz-adv-x="1139" d="M73 290q0 90 43 160.5t120.5 108t223.5 65.5q197 37 273 69v28q0 81 -40 115.5t-151 34.5q-75 0 -117 -29.5t-68 -103.5l-255 46q43 154 148 228t312 74q188 0 280 -44.5t129.5 -113t37.5 -251.5l-3 -328q0 -140 13.5 -206.5t50.5 -142.5h-278q-11 28 -27 83 q-7 25 -10 33q-72 -70 -154 -105t-175 -35q-164 0 -258.5 89t-94.5 225zM247 1237v185h644v-185h-644zM354 319q0 -59 44 -102t112 -43q76 0 145 50q51 38 67 93q11 36 11 137v56q-54 -18 -171 -43t-153 -49q-55 -39 -55 -99z" />
<glyph unicode="&#x102;" horiz-adv-x="1479" d="M0 0l571 1466h313l587 -1466h-322l-128 333h-586l-121 -333h-314zM424 1836h137q7 -71 50 -107.5t125 -36.5t125 36.5t50 107.5h137q-12 -136 -95.5 -213.5t-216.5 -77.5t-216.5 77.5t-95.5 213.5zM526 580h400l-202 544z" />
<glyph unicode="&#x103;" horiz-adv-x="1139" d="M73 290q0 90 43 160.5t120.5 108t223.5 65.5q197 37 273 69v28q0 81 -40 115.5t-151 34.5q-75 0 -117 -29.5t-68 -103.5l-255 46q43 154 148 228t312 74q188 0 280 -44.5t129.5 -113t37.5 -251.5l-3 -328q0 -140 13.5 -206.5t50.5 -142.5h-278q-11 28 -27 83 q-7 25 -10 33q-72 -70 -154 -105t-175 -35q-164 0 -258.5 89t-94.5 225zM256 1491h137q7 -71 50 -107.5t125 -36.5t125 36.5t50 107.5h137q-12 -136 -95.5 -213.5t-216.5 -77.5t-216.5 77.5t-95.5 213.5zM354 319q0 -59 44 -102t112 -43q76 0 145 50q51 38 67 93 q11 36 11 137v56q-54 -18 -171 -43t-153 -49q-55 -39 -55 -99z" />
<glyph unicode="&#x104;" horiz-adv-x="1479" d="M0 0l571 1466h313l587 -1466h-322l-128 333h-586l-121 -333h-314zM526 580h400l-202 544zM1120 -197q0 83 36 223h150q-20 -56 -20 -144q0 -80 37 -119t106 -39q63 0 136 23v-135q-101 -43 -194 -43q-119 0 -185 63t-66 171z" />
<glyph unicode="&#x105;" horiz-adv-x="1139" d="M73 290q0 90 43 160.5t120.5 108t223.5 65.5q197 37 273 69v28q0 81 -40 115.5t-151 34.5q-75 0 -117 -29.5t-68 -103.5l-255 46q43 154 148 228t312 74q188 0 280 -44.5t129.5 -113t37.5 -251.5l-3 -328q0 -140 13.5 -206.5t50.5 -142.5h-278q-11 28 -27 83 q-7 25 -10 33q-72 -70 -154 -105t-175 -35q-164 0 -258.5 89t-94.5 225zM354 319q0 -59 44 -102t112 -43q76 0 145 50q51 38 67 93q11 36 11 137v56q-54 -18 -171 -43t-153 -49q-55 -39 -55 -99zM765 -197q0 83 36 223h150q-20 -56 -20 -144q0 -80 37 -119t106 -39 q63 0 136 23v-135q-101 -43 -194 -43q-119 0 -185 63t-66 171z" />
<glyph unicode="&#x106;" horiz-adv-x="1479" d="M97 720q0 366 189 568.5t497 202.5q269 0 437 -159q100 -94 150 -270l-293 -70q-26 114 -108.5 180t-200.5 66q-163 0 -264.5 -117t-101.5 -379q0 -278 100 -396t260 -118q118 0 203 75t122 236l287 -91q-66 -240 -219.5 -356.5t-389.5 -116.5q-292 0 -480 199.5 t-188 545.5zM577 1550l138 299h315l-275 -299h-178z" />
<glyph unicode="&#x107;" horiz-adv-x="1139" d="M85 530q0 263 139 409.5t376 146.5q194 0 308.5 -83.5t164.5 -254.5l-277 -50q-14 83 -63.5 125t-128.5 42q-105 0 -167.5 -72.5t-62.5 -242.5q0 -189 63.5 -267t170.5 -78q80 0 131 45.5t72 156.5l276 -47q-43 -190 -165 -287t-327 -97q-233 0 -371.5 147t-138.5 407z M432 1192l138 299h315l-275 -299h-178z" />
<glyph unicode="&#x108;" horiz-adv-x="1479" d="M97 720q0 366 189 568.5t497 202.5q269 0 437 -159q100 -94 150 -270l-293 -70q-26 114 -108.5 180t-200.5 66q-163 0 -264.5 -117t-101.5 -379q0 -278 100 -396t260 -118q118 0 203 75t122 236l287 -91q-66 -240 -219.5 -356.5t-389.5 -116.5q-292 0 -480 199.5 t-188 545.5zM430 1598l210 295h260l207 -295h-226l-116 149l-108 -149h-227z" />
<glyph unicode="&#x109;" horiz-adv-x="1139" d="M85 530q0 263 139 409.5t376 146.5q194 0 308.5 -83.5t164.5 -254.5l-277 -50q-14 83 -63.5 125t-128.5 42q-105 0 -167.5 -72.5t-62.5 -242.5q0 -189 63.5 -267t170.5 -78q80 0 131 45.5t72 156.5l276 -47q-43 -190 -165 -287t-327 -97q-233 0 -371.5 147t-138.5 407z M231 1196l210 295h260l207 -295h-226l-116 149l-108 -149h-227z" />
<glyph unicode="&#x10a;" horiz-adv-x="1479" d="M97 720q0 366 189 568.5t497 202.5q269 0 437 -159q100 -94 150 -270l-293 -70q-26 114 -108.5 180t-200.5 66q-163 0 -264.5 -117t-101.5 -379q0 -278 100 -396t260 -118q118 0 203 75t122 236l287 -91q-66 -240 -219.5 -356.5t-389.5 -116.5q-292 0 -480 199.5 t-188 545.5zM628 1598v266h276v-266h-276z" />
<glyph unicode="&#x10b;" horiz-adv-x="1139" d="M85 530q0 263 139 409.5t376 146.5q194 0 308.5 -83.5t164.5 -254.5l-277 -50q-14 83 -63.5 125t-128.5 42q-105 0 -167.5 -72.5t-62.5 -242.5q0 -189 63.5 -267t170.5 -78q80 0 131 45.5t72 156.5l276 -47q-43 -190 -165 -287t-327 -97q-233 0 -371.5 147t-138.5 407z M433 1225v266h276v-266h-276z" />
<glyph unicode="&#x10c;" horiz-adv-x="1479" d="M97 720q0 366 189 568.5t497 202.5q269 0 437 -159q100 -94 150 -270l-293 -70q-26 114 -108.5 180t-200.5 66q-163 0 -264.5 -117t-101.5 -379q0 -278 100 -396t260 -118q118 0 203 75t122 236l287 -91q-66 -240 -219.5 -356.5t-389.5 -116.5q-292 0 -480 199.5 t-188 545.5zM416 1851h227l108 -149l116 149h226l-207 -295h-260z" />
<glyph unicode="&#x10d;" horiz-adv-x="1139" d="M85 530q0 263 139 409.5t376 146.5q194 0 308.5 -83.5t164.5 -254.5l-277 -50q-14 83 -63.5 125t-128.5 42q-105 0 -167.5 -72.5t-62.5 -242.5q0 -189 63.5 -267t170.5 -78q80 0 131 45.5t72 156.5l276 -47q-43 -190 -165 -287t-327 -97q-233 0 -371.5 147t-138.5 407z M274 1491h227l108 -149l116 149h226l-207 -295h-260z" />
<glyph unicode="&#x10e;" horiz-adv-x="1479" d="M148 0v1466h541q183 0 279 -28q129 -38 221 -135t140 -237.5t48 -346.5q0 -181 -45 -312q-55 -160 -157 -259q-77 -75 -208 -117q-98 -31 -262 -31h-557zM274 1851h227l108 -149l116 149h226l-207 -295h-260zM444 247h221q124 0 179 14q72 18 119.5 61t77.5 141.5 t30 268.5t-30 261t-84 142t-137 69q-62 14 -243 14h-133v-971z" />
<glyph unicode="&#x10f;" horiz-adv-x="1472" d="M81 535q0 270 127 410.5t321 140.5q178 0 308 -148v528h281v-1466h-261v156q-65 -91 -153.5 -135.5t-178.5 -44.5q-183 0 -313.5 147.5t-130.5 411.5zM368 554q0 -170 47 -246q68 -110 190 -110q97 0 165 82.5t68 246.5q0 183 -66 263.5t-169 80.5q-100 0 -167.5 -79.5 t-67.5 -237.5zM1198 1023q76 25 109 70t34 120h-122v253h253v-181q0 -112 -20 -176t-74 -114t-130 -77z" />
<glyph unicode="&#x110;" horiz-adv-x="1479" d="M-3 640v186h152v640h540q186 0 282 -29q130 -39 222 -137.5t138.5 -238.5t46.5 -346q0 -181 -51.5 -326.5t-151.5 -242.5q-77 -73 -207 -115q-98 -31 -263 -31h-556v640h-152zM444 247h222q147 0 212 24q86 30 131 110q63 113 63 345q0 165 -26.5 254.5t-78 144.5 t-134.5 77q-64 16 -255 16h-134v-392h314v-186h-314v-393z" />
<glyph unicode="&#x111;" horiz-adv-x="1251" d="M84 535q0 270 127 410.5t321 140.5q178 0 308 -148v237h-303v187h303v104h281v-104h111v-187h-111v-1175h-261v156q-65 -91 -153.5 -135.5t-178.5 -44.5q-183 0 -313.5 147.5t-130.5 411.5zM371 554q0 -170 47 -246q68 -110 190 -110q97 0 165 82.5t68 246.5 q0 183 -66 263.5t-169 80.5q-100 0 -167.5 -79.5t-67.5 -237.5z" />
<glyph unicode="&#x112;" horiz-adv-x="1366" d="M149 0v1466h1087v-248h-791v-325h736v-247h-736v-399h819v-247h-1115zM361 1598v185h644v-185h-644z" />
<glyph unicode="&#x113;" horiz-adv-x="1139" d="M65 523q0 264 138 413.5t349 149.5q237 0 374 -156.5t131 -479.5h-704q3 -125 68 -194.5t162 -69.5q66 0 111 36t68 116l280 -47q-54 -154 -170.5 -234.5t-291.5 -80.5q-277 0 -410 181q-105 145 -105 366zM245 1237v185h644v-185h-644zM358 622h420q-3 122 -63 185.5 t-146 63.5q-92 0 -152 -67t-59 -182z" />
<glyph unicode="&#x114;" horiz-adv-x="1366" d="M149 0v1466h1087v-248h-791v-325h736v-247h-736v-399h819v-247h-1115zM368 1880h137q7 -71 50 -107.5t125 -36.5t125 36.5t50 107.5h137q-12 -136 -95.5 -213.5t-216.5 -77.5t-216.5 77.5t-95.5 213.5z" />
<glyph unicode="&#x115;" horiz-adv-x="1139" d="M65 523q0 264 138 413.5t349 149.5q237 0 374 -156.5t131 -479.5h-704q3 -125 68 -194.5t162 -69.5q66 0 111 36t68 116l280 -47q-54 -154 -170.5 -234.5t-291.5 -80.5q-277 0 -410 181q-105 145 -105 366zM242 1491h137q7 -71 50 -107.5t125 -36.5t125 36.5t50 107.5 h137q-12 -136 -95.5 -213.5t-216.5 -77.5t-216.5 77.5t-95.5 213.5zM358 622h420q-3 122 -63 185.5t-146 63.5q-92 0 -152 -67t-59 -182z" />
<glyph unicode="&#x116;" horiz-adv-x="1366" d="M149 0v1466h1087v-248h-791v-325h736v-247h-736v-399h819v-247h-1115zM547 1598v266h276v-266h-276z" />
<glyph unicode="&#x117;" horiz-adv-x="1139" d="M65 523q0 264 138 413.5t349 149.5q237 0 374 -156.5t131 -479.5h-704q3 -125 68 -194.5t162 -69.5q66 0 111 36t68 116l280 -47q-54 -154 -170.5 -234.5t-291.5 -80.5q-277 0 -410 181q-105 145 -105 366zM358 622h420q-3 122 -63 185.5t-146 63.5q-92 0 -152 -67 t-59 -182zM430 1225v266h276v-266h-276z" />
<glyph unicode="&#x118;" horiz-adv-x="1366" d="M149 0v1466h1087v-248h-791v-325h736v-247h-736v-399h819v-247h-1115zM819 -197q0 83 36 223h150q-20 -56 -20 -144q0 -80 37 -119t106 -39q63 0 136 23v-135q-101 -43 -194 -43q-119 0 -185 63t-66 171z" />
</font>
</defs>
</svg>
